A.ufo
<glyph name="exclam" format="1">
  <advance width="515"/>
  <unicode hex="0021"/>
  <outline>
    <contour>
      <point x="434" y="1456" type="line" startp="1" name="z1l"/>
      <point added="1" x="434" y="1456" control_out="1" name="z2l"/> 
      <point added="2" x="111" y="1456" control_in="1" name="z3l"/> 
      <point x="111" y="1456" type="line" name="z4l"/>
      <point added="1" x="111" y="1456" control_out="1" name="z5l"/> 
      <point added="2" x="111" y="516" control_in="1" name="z6l"/> 
      <point x="111" y="516" type="line" name="z7l"/>
      <point added="1" x="111" y="516" control_out="1" name="z8l"/> 
      <point added="2" x="434" y="516" control_in="1" name="z9l"/> 
      <point x="434" y="516" type="line" name="z10l"/>
      <point added="1" x="434" y="516" control_out="1" name="z11l"/> 
      <point added="2" x="434" y="1456" control_in="1" name="z12l"/> 
    </contour>
    <contour>
      <point x="434" y="283" type="line" startp="1" name="z13l"/>
      <point added="1" x="434" y="283" control_out="1" name="z14l"/> 
      <point added="2" x="111" y="283" control_in="1" name="z15l"/> 
      <point x="111" y="283" type="line" name="z16l"/>
      <point added="1" x="111" y="283" control_out="1" name="z17l"/> 
      <point added="2" x="111" y="0" control_in="1" name="z18l"/> 
      <point x="111" y="0" type="line" name="z19l"/>
      <point added="1" x="111" y="0" control_out="1" name="z20l"/> 
      <point added="2" x="434" y="0" control_in="1" name="z21l"/> 
      <point x="434" y="0" type="line" name="z22l"/>
      <point added="1" x="434" y="0" control_out="1" name="z23l"/> 
      <point added="2" x="434" y="283" control_in="1" name="z24l"/> 
    </contour>
  </outline>
</glyph>
<glyph name="quotedbl" format="1">
  <advance width="787"/>
  <unicode hex="0022"/>
  <outline>
    <contour>
      <point x="353" y="1560" type="line" startp="1" name="z1l"/>
      <point added="1" x="353" y="1560" control_out="1" name="z2l"/> 
      <point added="2" x="132" y="1560" control_in="1" name="z3l"/> 
      <point x="132" y="1560" type="line" name="z4l"/>
      <point added="1" x="132" y="1560" control_out="1" name="z5l"/> 
      <point added="2" x="132" y="1277" control_in="1" name="z6l"/> 
      <point x="132" y="1277" type="line" name="z7l"/>
      <point added="1" x="132" y="1277" control_out="1" name="z8l"/> 
      <point added="2" x="132" y="1042" control_in="1" name="z9l"/> 
      <point x="132" y="1042" type="line" name="z10l"/>
      <point added="1" x="132" y="1042" control_out="1" name="z11l"/> 
      <point added="2" x="271" y="1042" control_in="1" name="z12l"/> 
      <point x="271" y="1042" type="line" name="z13l"/>
      <point added="1" x="271" y="1042" control_out="1" name="z14l"/> 
      <point added="2" x="353" y="1291" control_in="1" name="z15l"/> 
      <point x="353" y="1291" type="line" name="z16l"/>
      <point added="1" x="353" y="1291" control_out="1" name="z17l"/> 
      <point added="2" x="353" y="1560" control_in="1" name="z18l"/> 
    </contour>
    <contour>
      <point x="684" y="1560" type="line" startp="1" name="z19l"/>
      <point added="1" x="684" y="1560" control_out="1" name="z20l"/> 
      <point added="2" x="464" y="1560" control_in="1" name="z21l"/> 
      <point x="464" y="1560" type="line" name="z22l"/>
      <point added="1" x="464" y="1560" control_out="1" name="z23l"/> 
      <point added="2" x="464" y="1286" control_in="1" name="z24l"/> 
      <point x="464" y="1286" type="line" name="z25l"/>
      <point added="1" x="464" y="1286" control_out="1" name="z26l"/> 
      <point added="2" x="464" y="1042" control_in="1" name="z27l"/> 
      <point x="464" y="1042" type="line" name="z28l"/>
      <point added="1" x="464" y="1042" control_out="1" name="z29l"/> 
      <point added="2" x="602" y="1042" control_in="1" name="z30l"/> 
      <point x="602" y="1042" type="line" name="z31l"/>
      <point added="1" x="602" y="1042" control_out="1" name="z32l"/> 
      <point added="2" x="684" y="1291" control_in="1" name="z33l"/> 
      <point x="684" y="1291" type="line" name="z34l"/>
      <point added="1" x="684" y="1291" control_out="1" name="z35l"/> 
      <point added="2" x="684" y="1560" control_in="1" name="z36l"/> 
    </contour>
  </outline>
</glyph>
<glyph name="dollar" format="1">
  <advance width="1106"/>
  <unicode hex="0024"/>
  <outline>
    <contour>
      <point x="668" y="1685" type="line" startp="1" name="z1l"/>
      <point added="1" x="668" y="1685" control_out="1" name="z2l"/> 
      <point added="2" x="509" y="1685" control_in="1" name="z3l"/> 
      <point x="509" y="1685" type="line" name="z4l"/>
      <point added="1" x="509" y="1685" control_out="1" name="z5l"/> 
      <point added="2" x="509" y="1394" control_in="1" name="z6l"/> 
      <point x="509" y="1394" type="line" name="z7l"/>
      <point added="1" x="509" y="1394" control_out="1" name="z8l"/> 
      <point added="2" x="668" y="1394" control_in="1" name="z9l"/> 
      <point x="668" y="1394" type="line" name="z10l"/>
      <point added="1" x="668" y="1394" control_out="1" name="z11l"/> 
      <point added="2" x="668" y="1685" control_in="1" name="z12l"/> 
    </contour>
    <contour>
      <point x="648" y="52" type="line" startp="1" name="z13l"/>
      <point added="1" x="648" y="52" control_out="1" name="z14l"/> 
      <point added="2" x="489" y="52" control_in="1" name="z15l"/> 
      <point x="489" y="52" type="line" name="z16l"/>
      <point added="1" x="489" y="52" control_out="1" name="z17l"/> 
      <point added="2" x="489" y="-218" control_in="1" name="z18l"/> 
      <point x="489" y="-218" type="line" name="z19l"/>
      <point added="1" x="489" y="-218" control_out="1" name="z20l"/> 
      <point added="2" x="648" y="-218" control_in="1" name="z21l"/> 
      <point x="648" y="-218" type="line" name="z22l"/>
      <point added="1" x="648" y="-218" control_out="1" name="z23l"/> 
      <point added="2" x="648" y="52" control_in="1" name="z24l"/> 
    </contour>
    <contour>
      <point x="728" y="386" type="curve" smooth="yes" startp="1" name="z25l"/>
      <point x="728" y="302" control_out="1" name="z26l"/>
      <point x="677" y="234" control_in="1" name="z27l"/>
      <point x="568" y="234" type="curve" smooth="yes" name="z28l"/>
      <point x="464" y="234" control_out="1" name="z29l"/>
      <point x="366" y="289" control_in="1" name="z30l"/>
      <point x="366" y="467" type="curve" name="z31l"/>
      <point added="1" x="366" y="467" control_out="1" name="z32l"/> 
      <point added="2" x="44" y="467" control_in="1" name="z33l"/> 
      <point x="44" y="467" type="line" name="z34l"/>
      <point x="44" y="101" control_out="1" name="z35l"/>
      <point x="315" y="-21" control_in="1" name="z36l"/>
      <point x="568" y="-21" type="curve" smooth="yes" name="z37l"/>
      <point x="854" y="-21" control_out="1" name="z38l"/>
      <point x="1050" y="128" control_in="1" name="z39l"/>
      <point x="1050" y="388" type="curve" smooth="yes" name="z40l"/>
      <point x="1050" y="657" control_out="1" name="z41l"/>
      <point x="864" y="757" control_in="1" name="z42l"/>
      <point x="605" y="867" type="curve" smooth="yes" name="z43l"/>
      <point x="463" y="927" control_out="1" name="z44l"/>
      <point x="420" y="976" control_in="1" name="z45l"/>
      <point x="420" y="1066" type="curve" smooth="yes" name="z46l"/>
      <point x="420" y="1151" control_out="1" name="z47l"/>
      <point x="464" y="1222" control_in="1" name="z48l"/>
      <point x="570" y="1222" type="curve" smooth="yes" name="z49l"/>
      <point x="665" y="1222" control_out="1" name="z50l"/>
      <point x="733" y="1159" control_in="1" name="z51l"/>
      <point x="733" y="1006" type="curve" name="z52l"/>
      <point added="1" x="733" y="1006" control_out="1" name="z53l"/> 
      <point added="2" x="1055" y="1006" control_in="1" name="z54l"/> 
      <point x="1055" y="1006" type="line" name="z55l"/>
      <point x="1055" y="1302" control_out="1" name="z56l"/>
      <point x="861" y="1477" control_in="1" name="z57l"/>
      <point x="575" y="1477" type="curve" smooth="yes" name="z58l"/>
      <point x="293" y="1477" control_out="1" name="z59l"/>
      <point x="98" y="1316" control_in="1" name="z60l"/>
      <point x="98" y="1068" type="curve" smooth="yes" name="z61l"/>
      <point x="98" y="796" control_out="1" name="z62l"/>
      <point x="280" y="701" control_in="1" name="z63l"/>
      <point x="544" y="594" type="curve" smooth="yes" name="z64l"/>
      <point x="678" y="540" control_out="1" name="z65l"/>
      <point x="728" y="495" control_in="1" name="z66l"/>
    </contour>
  </outline>
</glyph>
<glyph name="percent" format="1">
  <advance width="1418"/>
  <unicode hex="0025"/>
  <outline>
    <contour>
      <point x="40" y="1099" type="line" smooth="yes" startp="1" name="z1l"/>
      <point x="40" y="936" control_out="1" name="z2l"/>
      <point x="150" y="800" control_in="1" name="z3l"/>
      <point x="363" y="800" type="curve" smooth="yes" name="z4l"/>
      <point x="577" y="800" control_out="1" name="z5l"/>
      <point x="683" y="936" control_in="1" name="z6l"/>
      <point x="683" y="1099" type="curve" smooth="yes" name="z7l"/>
      <point added="1" x="683" y="1099" control_out="1" name="z8l"/> 
      <point added="2" x="683" y="1176" control_in="1" name="z9l"/> 
      <point x="683" y="1176" type="line" smooth="yes" name="z10l"/>
      <point x="683" y="1341" control_out="1" name="z11l"/>
      <point x="577" y="1477" control_in="1" name="z12l"/>
      <point x="361" y="1477" type="curve" smooth="yes" name="z13l"/>
      <point x="150" y="1477" control_out="1" name="z14l"/>
      <point x="40" y="1341" control_in="1" name="z15l"/>
      <point x="40" y="1176" type="curve" smooth="yes" name="z16l"/>
      <point added="1" x="40" y="1176" control_out="1" name="z17l"/> 
      <point added="2" x="40" y="1099" control_in="1" name="z18l"/> 
    </contour>
    <contour>
      <point x="249" y="1176" type="line" smooth="yes" startp="1" name="z19l"/>
      <point x="249" y="1239" control_out="1" name="z20l"/>
      <point x="286" y="1295" control_in="1" name="z21l"/>
      <point x="361" y="1295" type="curve" smooth="yes" name="z22l"/>
      <point x="438" y="1295" control_out="1" name="z23l"/>
      <point x="474" y="1239" control_in="1" name="z24l"/>
      <point x="474" y="1176" type="curve" smooth="yes" name="z25l"/>
      <point added="1" x="474" y="1176" control_out="1" name="z26l"/> 
      <point added="2" x="474" y="1099" control_in="1" name="z27l"/> 
      <point x="474" y="1099" type="line" smooth="yes" name="z28l"/>
      <point x="474" y="1038" control_out="1" name="z29l"/>
      <point x="439" y="982" control_in="1" name="z30l"/>
      <point x="363" y="982" type="curve" smooth="yes" name="z31l"/>
      <point x="286" y="982" control_out="1" name="z32l"/>
      <point x="249" y="1038" control_in="1" name="z33l"/>
      <point x="249" y="1099" type="curve" smooth="yes" name="z34l"/>
      <point added="1" x="249" y="1099" control_out="1" name="z35l"/> 
      <point added="2" x="249" y="1176" control_in="1" name="z36l"/> 
    </contour>
    <contour>
      <point x="733" y="280" type="line" smooth="yes" startp="1" name="z37l"/>
      <point x="733" y="116" control_out="1" name="z38l"/>
      <point x="844" y="-20" control_in="1" name="z39l"/>
      <point x="1057" y="-20" type="curve" smooth="yes" name="z40l"/>
      <point x="1271" y="-20" control_out="1" name="z41l"/>
      <point x="1377" y="116" control_in="1" name="z42l"/>
      <point x="1377" y="280" type="curve" smooth="yes" name="z43l"/>
      <point added="1" x="1377" y="280" control_out="1" name="z44l"/> 
      <point added="2" x="1377" y="357" control_in="1" name="z45l"/> 
      <point x="1377" y="357" type="line" smooth="yes" name="z46l"/>
      <point x="1377" y="521" control_out="1" name="z47l"/>
      <point x="1271" y="657" control_in="1" name="z48l"/>
      <point x="1055" y="657" type="curve" smooth="yes" name="z49l"/>
      <point x="844" y="657" control_out="1" name="z50l"/>
      <point x="733" y="521" control_in="1" name="z51l"/>
      <point x="733" y="357" type="curve" smooth="yes" name="z52l"/>
      <point added="1" x="733" y="357" control_out="1" name="z53l"/> 
      <point added="2" x="733" y="280" control_in="1" name="z54l"/> 
    </contour>
    <contour>
      <point x="942" y="357" type="line" smooth="yes" startp="1" name="z55l"/>
      <point x="942" y="419" control_out="1" name="z56l"/>
      <point x="979" y="475" control_in="1" name="z57l"/>
      <point x="1055" y="475" type="curve" smooth="yes" name="z58l"/>
      <point x="1131" y="475" control_out="1" name="z59l"/>
      <point x="1168" y="419" control_in="1" name="z60l"/>
      <point x="1168" y="357" type="curve" smooth="yes" name="z61l"/>
      <point added="1" x="1168" y="357" control_out="1" name="z62l"/> 
      <point added="2" x="1168" y="280" control_in="1" name="z63l"/> 
      <point x="1168" y="280" type="line" smooth="yes" name="z64l"/>
      <point x="1168" y="218" control_out="1" name="z65l"/>
      <point x="1150" y="162" control_in="1" name="z66l"/>
      <point x="1057" y="162" type="curve" smooth="yes" name="z67l"/>
      <point x="991" y="162" control_out="1" name="z68l"/>
      <point x="942" y="218" control_in="1" name="z69l"/>
      <point x="942" y="280" type="curve" smooth="yes" name="z70l"/>
      <point added="1" x="942" y="280" control_out="1" name="z71l"/> 
      <point added="2" x="942" y="357" control_in="1" name="z72l"/> 
    </contour>
    <contour>
      <point x="1164" y="1247" type="line" startp="1" name="z73l"/>
      <point added="1" x="1164" y="1247" control_out="1" name="z74l"/> 
      <point added="2" x="1012" y="1326" control_in="1" name="z75l"/> 
      <point x="1012" y="1326" type="line" name="z76l"/>
      <point added="1" x="1012" y="1326" control_out="1" name="z77l"/> 
      <point added="2" x="301" y="188" control_in="1" name="z78l"/> 
      <point x="301" y="188" type="line" name="z79l"/>
      <point added="1" x="301" y="188" control_out="1" name="z80l"/> 
      <point added="2" x="453" y="109" control_in="1" name="z81l"/> 
      <point x="453" y="109" type="line" name="z82l"/>
      <point added="1" x="453" y="109" control_out="1" name="z83l"/> 
      <point added="2" x="1164" y="1247" control_in="1" name="z84l"/> 
    </contour>
  </outline>
</glyph>
<glyph name="ampersand" format="1">
  <advance width="1274"/>
  <unicode hex="0026"/>
  <outline>
    <contour>
      <point x="295" y="765" type="line" smooth="yes" startp="1" name="z1l"/>
      <point x="143" y="657" control_out="1" name="z2l"/>
      <point x="36" y="560" control_in="1" name="z3l"/>
      <point x="36" y="391" type="curve" smooth="yes" name="z4l"/>
      <point x="36" y="150" control_out="1" name="z5l"/>
      <point x="218" y="-21" control_in="1" name="z6l"/>
      <point x="512" y="-21" type="curve" smooth="yes" name="z7l"/>
      <point x="688" y="-21" control_out="1" name="z8l"/>
      <point x="816" y="36" control_in="1" name="z9l"/>
      <point x="952" y="136" type="curve" name="z10l"/>
      <point x="960" y="140" control_out="1" name="z11l"/>
      <point x="981" y="145" control_in="1" name="z12l"/>
      <point x="989" y="149" type="curve" name="z13l"/>
      <point x="1163" y="285" control_out="1" name="z14l"/>
      <point x="1226" y="492" control_in="1" name="z15l"/>
      <point x="1226" y="728" type="curve" name="z16l"/>
      <point added="1" x="1226" y="728" control_out="1" name="z17l"/> 
      <point added="2" x="995" y="728" control_in="1" name="z18l"/> 
      <point x="995" y="728" type="line" name="z19l"/>
      <point x="995" y="439" control_out="1" name="z20l"/>
      <point x="767" y="239" control_in="1" name="z21l"/>
      <point x="532" y="239" type="curve" smooth="yes" name="z22l"/>
      <point x="435" y="239" control_out="1" name="z23l"/>
      <point x="359" y="310" control_in="1" name="z24l"/>
      <point x="359" y="414" type="curve" smooth="yes" name="z25l"/>
      <point x="359" y="473" control_out="1" name="z26l"/>
      <point x="374" y="521" control_in="1" name="z27l"/>
      <point x="426" y="572" type="curve" name="z28l"/>
      <point added="1" x="426" y="572" control_out="1" name="z29l"/> 
      <point added="2" x="755" y="805" control_in="1" name="z30l"/> 
      <point x="755" y="805" type="line" smooth="yes" name="z31l"/>
      <point x="859" y="878" control_out="1" name="z32l"/>
      <point x="929" y="994" control_in="1" name="z33l"/>
      <point x="929" y="1127" type="curve" smooth="yes" name="z34l"/>
      <point x="929" y="1316" control_out="1" name="z35l"/>
      <point x="789" y="1477" control_in="1" name="z36l"/>
      <point x="571" y="1477" type="curve" smooth="yes" name="z37l"/>
      <point x="324" y="1477" control_out="1" name="z38l"/>
      <point x="164" y="1314" control_in="1" name="z39l"/>
      <point x="164" y="1084" type="curve" smooth="yes" name="z40l"/>
      <point x="164" y="936" control_out="1" name="z41l"/>
      <point x="255" y="809" control_in="1" name="z42l"/>
      <point x="394" y="634" type="curve" name="z43l"/>
      <point added="1" x="394" y="634" control_out="1" name="z44l"/> 
      <point added="2" x="952" y="0" control_in="1" name="z45l"/> 
      <point x="952" y="0" type="line" name="z46l"/>
      <point added="1" x="952" y="0" control_out="1" name="z47l"/> 
      <point added="2" x="1313" y="0" control_in="1" name="z48l"/> 
      <point x="1313" y="0" type="line" name="z49l"/>
      <point added="1" x="1313" y="0" control_out="1" name="z50l"/> 
      <point added="2" x="628" y="788" control_in="1" name="z51l"/> 
      <point x="628" y="788" type="line" smooth="yes" name="z52l"/>
      <point x="526" y="910" control_out="1" name="z53l"/>
      <point x="445" y="998" control_in="1" name="z54l"/>
      <point x="445" y="1088" type="curve" smooth="yes" name="z55l"/>
      <point x="445" y="1159" control_out="1" name="z56l"/>
      <point x="487" y="1217" control_in="1" name="z57l"/>
      <point x="570" y="1217" type="curve" smooth="yes" name="z58l"/>
      <point x="645" y="1217" control_out="1" name="z59l"/>
      <point x="688" y="1158" control_in="1" name="z60l"/>
      <point x="688" y="1103" type="curve" smooth="yes" name="z61l"/>
      <point x="688" y="1058" control_out="1" name="z62l"/>
      <point x="676" y="1011" control_in="1" name="z63l"/>
      <point x="593" y="958" type="curve" smooth="yes" name="z64l"/>
      <point added="1" x="593" y="958" control_out="1" name="z65l"/> 
      <point added="2" x="295" y="765" control_in="1" name="z66l"/> 
    </contour>
  </outline>
</glyph>
<glyph name="quotesingle" format="1">
  <advance width="445"/>
  <unicode hex="0027"/>
  <outline>
    <contour>
      <point x="342" y="1560" type="line" startp="1" name="z1l"/>
      <point added="1" x="342" y="1560" control_out="1" name="z2l"/> 
      <point added="2" x="131" y="1560" control_in="1" name="z3l"/> 
      <point x="131" y="1560" type="line" name="z4l"/>
      <point added="1" x="131" y="1560" control_out="1" name="z5l"/> 
      <point added="2" x="131" y="1255" control_in="1" name="z6l"/> 
      <point x="131" y="1255" type="line" name="z7l"/>
      <point added="1" x="131" y="1255" control_out="1" name="z8l"/> 
      <point added="2" x="131" y="985" control_in="1" name="z9l"/> 
      <point x="131" y="985" type="line" name="z10l"/>
      <point added="1" x="131" y="985" control_out="1" name="z11l"/> 
      <point added="2" x="270" y="985" control_in="1" name="z12l"/> 
      <point x="270" y="985" type="line" name="z13l"/>
      <point added="1" x="270" y="985" control_out="1" name="z14l"/> 
      <point added="2" x="342" y="1268" control_in="1" name="z15l"/> 
      <point x="342" y="1268" type="line" name="z16l"/>
      <point added="1" x="342" y="1268" control_out="1" name="z17l"/> 
      <point added="2" x="342" y="1560" control_in="1" name="z18l"/> 
    </contour>
  </outline>
</glyph>
<glyph name="parenleft" format="1">
  <advance width="693"/>
  <unicode hex="0028"/>
  <outline>
    <contour>
      <point x="81" y="564" type="line" smooth="yes" startp="1" name="z1l"/>
      <point x="81" y="11" control_out="1" name="z2l"/>
      <point x="340" y="-350" control_in="1" name="z3l"/>
      <point x="580" y="-450" type="curve" name="z4l"/>
      <point added="1" x="580" y="-450" control_out="1" name="z5l"/> 
      <point added="2" x="641" y="-284" control_in="1" name="z6l"/> 
      <point x="641" y="-284" type="line" name="z7l"/>
      <point x="491" y="-174" control_out="1" name="z8l"/>
      <point x="342" y="83" control_in="1" name="z9l"/>
      <point x="342" y="562" type="curve" smooth="yes" name="z10l"/>
      <point added="1" x="342" y="562" control_out="1" name="z11l"/> 
      <point added="2" x="342" y="594" control_in="1" name="z12l"/> 
      <point x="342" y="594" type="line" smooth="yes" name="z13l"/>
      <point x="342" y="1073" control_out="1" name="z14l"/>
      <point x="491" y="1330" control_in="1" name="z15l"/>
      <point x="641" y="1440" type="curve" name="z16l"/>
      <point added="1" x="641" y="1440" control_out="1" name="z17l"/> 
      <point added="2" x="580" y="1606" control_in="1" name="z18l"/> 
      <point x="580" y="1606" type="line" name="z19l"/>
      <point x="340" y="1506" control_out="1" name="z20l"/>
      <point x="81" y="1145" control_in="1" name="z21l"/>
      <point x="81" y="592" type="curve" smooth="yes" name="z22l"/>
      <point added="1" x="81" y="592" control_out="1" name="z23l"/> 
      <point added="2" x="81" y="564" control_in="1" name="z24l"/> 
    </contour>
  </outline>
</glyph>
<glyph name="parenright" format="1">
  <advance width="731"/>
  <unicode hex="0029"/>
  <outline>
    <contour>
      <point x="659" y="592" type="line" smooth="yes" startp="1" name="z1l"/>
      <point x="659" y="1118" control_out="1" name="z2l"/>
      <point x="390" y="1506" control_in="1" name="z3l"/>
      <point x="140" y="1606" type="curve" name="z4l"/>
      <point added="1" x="140" y="1606" control_out="1" name="z5l"/> 
      <point added="2" x="78" y="1440" control_in="1" name="z6l"/> 
      <point x="78" y="1440" type="line" name="z7l"/>
      <point x="226" y="1330" control_out="1" name="z8l"/>
      <point x="377" y="1073" control_in="1" name="z9l"/>
      <point x="377" y="594" type="curve" smooth="yes" name="z10l"/>
      <point added="1" x="377" y="594" control_out="1" name="z11l"/> 
      <point added="2" x="377" y="562" control_in="1" name="z12l"/> 
      <point x="377" y="562" type="line" smooth="yes" name="z13l"/>
      <point x="377" y="83" control_out="1" name="z14l"/>
      <point x="226" y="-174" control_in="1" name="z15l"/>
      <point x="78" y="-284" type="curve" name="z16l"/>
      <point added="1" x="78" y="-284" control_out="1" name="z17l"/> 
      <point added="2" x="140" y="-450" control_in="1" name="z18l"/> 
      <point x="140" y="-450" type="line" name="z19l"/>
      <point x="390" y="-350" control_out="1" name="z20l"/>
      <point x="659" y="38" control_in="1" name="z21l"/>
      <point x="659" y="564" type="curve" smooth="yes" name="z22l"/>
      <point added="1" x="659" y="564" control_out="1" name="z23l"/> 
      <point added="2" x="659" y="592" control_in="1" name="z24l"/> 
    </contour>
  </outline>
</glyph>
<glyph name="asterisk" format="1">
  <advance width="900"/>
  <unicode hex="002A"/>
  <outline>
    <contour>
      <point x="116" y="687" type="line" startp="1" name="z1l"/>
      <point added="1" x="116" y="687" control_out="1" name="z2l"/> 
      <point added="2" x="275" y="575" control_in="1" name="z3l"/> 
      <point x="275" y="575" type="line" name="z4l"/>
      <point added="1" x="275" y="575" control_out="1" name="z5l"/> 
      <point added="2" x="447" y="858" control_in="1" name="z6l"/> 
      <point x="447" y="858" type="line" name="z7l"/>
      <point added="1" x="447" y="858" control_out="1" name="z8l"/> 
      <point added="2" x="620" y="565" control_in="1" name="z9l"/> 
      <point x="620" y="565" type="line" name="z10l"/>
      <point added="1" x="620" y="565" control_out="1" name="z11l"/> 
      <point added="2" x="778" y="682" control_in="1" name="z12l"/> 
      <point x="778" y="682" type="line" name="z13l"/>
      <point added="1" x="778" y="682" control_out="1" name="z14l"/> 
      <point added="2" x="575" y="946" control_in="1" name="z15l"/> 
      <point x="575" y="946" type="line" name="z16l"/>
      <point added="1" x="575" y="946" control_out="1" name="z17l"/> 
      <point added="2" x="883" y="1036" control_in="1" name="z18l"/> 
      <point x="883" y="1036" type="line" name="z19l"/>
      <point added="1" x="883" y="1036" control_out="1" name="z20l"/> 
      <point added="2" x="824" y="1226" control_in="1" name="z21l"/> 
      <point x="824" y="1226" type="line" name="z22l"/>
      <point added="1" x="824" y="1226" control_out="1" name="z23l"/> 
      <point added="2" x="533" y="1099" control_in="1" name="z24l"/> 
      <point x="533" y="1099" type="line" name="z25l"/>
      <point added="1" x="533" y="1099" control_out="1" name="z26l"/> 
      <point added="2" x="556" y="1456" control_in="1" name="z27l"/> 
      <point x="556" y="1456" type="line" name="z28l"/>
      <point added="1" x="556" y="1456" control_out="1" name="z29l"/> 
      <point added="2" x="360" y="1456" control_in="1" name="z30l"/> 
      <point x="360" y="1456" type="line" name="z31l"/>
      <point added="1" x="360" y="1456" control_out="1" name="z32l"/> 
      <point added="2" x="381" y="1106" control_in="1" name="z33l"/> 
      <point x="381" y="1106" type="line" name="z34l"/>
      <point added="1" x="381" y="1106" control_out="1" name="z35l"/> 
      <point added="2" x="83" y="1236" control_in="1" name="z36l"/> 
      <point x="83" y="1236" type="line" name="z37l"/>
      <point added="1" x="83" y="1236" control_out="1" name="z38l"/> 
      <point added="2" x="24" y="1048" control_in="1" name="z39l"/> 
      <point x="24" y="1048" type="line" name="z40l"/>
      <point added="1" x="24" y="1048" control_out="1" name="z41l"/> 
      <point added="2" x="328" y="958" control_in="1" name="z42l"/> 
      <point x="328" y="958" type="line" name="z43l"/>
      <point added="1" x="328" y="958" control_out="1" name="z44l"/> 
      <point added="2" x="116" y="687" control_in="1" name="z45l"/> 
    </contour>
  </outline>
</glyph>
<glyph name="plus" format="1">
  <advance width="1083"/>
  <unicode hex="002B"/>
  <outline>
    <contour>
      <point x="1040" y="826" type="line" startp="1" name="z1l"/>
      <point added="1" x="1040" y="826" control_out="1" name="z2l"/> 
      <point added="2" x="42" y="826" control_in="1" name="z3l"/> 
      <point x="42" y="826" type="line" name="z4l"/>
      <point added="1" x="42" y="826" control_out="1" name="z5l"/> 
      <point added="2" x="42" y="537" control_in="1" name="z6l"/> 
      <point x="42" y="537" type="line" name="z7l"/>
      <point added="1" x="42" y="537" control_out="1" name="z8l"/> 
      <point added="2" x="1040" y="537" control_in="1" name="z9l"/> 
      <point x="1040" y="537" type="line" name="z10l"/>
      <point added="1" x="1040" y="537" control_out="1" name="z11l"/> 
      <point added="2" x="1040" y="826" control_in="1" name="z12l"/> 
    </contour>
    <contour>
      <point x="693" y="1206" type="line" startp="1" name="z13l"/>
      <point added="1" x="693" y="1206" control_out="1" name="z14l"/> 
      <point added="2" x="391" y="1206" control_in="1" name="z15l"/> 
      <point x="391" y="1206" type="line" name="z16l"/>
      <point added="1" x="391" y="1206" control_out="1" name="z17l"/> 
      <point added="2" x="391" y="146" control_in="1" name="z18l"/> 
      <point x="391" y="146" type="line" name="z19l"/>
      <point added="1" x="391" y="146" control_out="1" name="z20l"/> 
      <point added="2" x="693" y="146" control_in="1" name="z21l"/> 
      <point x="693" y="146" type="line" name="z22l"/>
      <point added="1" x="693" y="146" control_out="1" name="z23l"/> 
      <point added="2" x="693" y="1206" control_in="1" name="z24l"/> 
    </contour>
  </outline>
</glyph>
<glyph name="comma" format="1">
  <advance width="536"/>
  <unicode hex="002C"/>
  <outline>
    <contour>
      <point x="429" y="254" type="line" startp="1" name="z1l"/>
      <point added="1" x="429" y="254" control_out="1" name="z2l"/> 
      <point added="2" x="147" y="254" control_in="1" name="z3l"/> 
      <point x="147" y="254" type="line" name="z4l"/>
      <point added="1" x="147" y="254" control_out="1" name="z5l"/> 
      <point added="2" x="147" y="1" control_in="1" name="z6l"/> 
      <point x="147" y="1" type="line" smooth="yes" name="z7l"/>
      <point x="147" y="-138" control_out="1" name="z8l"/>
      <point x="115" y="-231" control_in="1" name="z9l"/>
      <point x="71" y="-312" type="curve" name="z10l"/>
      <point added="1" x="71" y="-312" control_out="1" name="z11l"/> 
      <point added="2" x="225" y="-392" control_in="1" name="z12l"/> 
      <point x="225" y="-392" type="line" name="z13l"/>
      <point x="330" y="-300" control_out="1" name="z14l"/>
      <point x="428" y="-128" control_in="1" name="z15l"/>
      <point x="428" y="20" type="curve" smooth="yes" name="z16l"/>
      <point added="1" x="428" y="20" control_out="1" name="z17l"/> 
      <point added="2" x="429" y="254" control_in="1" name="z18l"/> 
    </contour>
  </outline>
</glyph>
<glyph name="hyphen" format="1">
  <advance width="821"/>
  <unicode hex="002D"/>
  <outline>
    <contour>
      <point x="713" y="758" type="line" startp="1" name="z1l"/>
      <point added="1" x="713" y="758" control_out="1" name="z2l"/> 
      <point added="2" x="124" y="758" control_in="1" name="z3l"/> 
      <point x="124" y="758" type="line" name="z4l"/>
      <point added="1" x="124" y="758" control_out="1" name="z5l"/> 
      <point added="2" x="124" y="497" control_in="1" name="z6l"/> 
      <point x="124" y="497" type="line" name="z7l"/>
      <point added="1" x="124" y="497" control_out="1" name="z8l"/> 
      <point added="2" x="713" y="497" control_in="1" name="z9l"/> 
      <point x="713" y="497" type="line" name="z10l"/>
      <point added="1" x="713" y="497" control_out="1" name="z11l"/> 
      <point added="2" x="713" y="758" control_in="1" name="z12l"/> 
    </contour>
  </outline>
</glyph>
<glyph name="period" format="1">
  <advance width="532"/>
  <unicode hex="002E"/>
  <outline>
    <contour>
      <point x="446" y="284" type="line" startp="1" name="z1l"/>
      <point added="1" x="446" y="284" control_out="1" name="z2l"/> 
      <point added="2" x="124" y="284" control_in="1" name="z3l"/> 
      <point x="124" y="284" type="line" name="z4l"/>
      <point added="1" x="124" y="284" control_out="1" name="z5l"/> 
      <point added="2" x="124" y="0" control_in="1" name="z6l"/> 
      <point x="124" y="0" type="line" name="z7l"/>
      <point added="1" x="124" y="0" control_out="1" name="z8l"/> 
      <point added="2" x="446" y="0" control_in="1" name="z9l"/> 
      <point x="446" y="0" type="line" name="z10l"/>
      <point added="1" x="446" y="0" control_out="1" name="z11l"/> 
      <point added="2" x="446" y="284" control_in="1" name="z12l"/> 
    </contour>
  </outline>
</glyph>
<glyph name="slash" format="1">
  <advance width="723"/>
  <unicode hex="002F"/>
  <outline>
    <contour>
      <point x="711" y="1456" type="line" startp="1" name="z1l"/>
      <point added="1" x="711" y="1456" control_out="1" name="z2l"/> 
      <point added="2" x="479" y="1456" control_in="1" name="z3l"/> 
      <point x="479" y="1456" type="line" name="z4l"/>
      <point added="1" x="479" y="1456" control_out="1" name="z5l"/> 
      <point added="2" x="-31" y="-125" control_in="1" name="z6l"/> 
      <point x="-31" y="-125" type="line" name="z7l"/>
      <point added="1" x="-31" y="-125" control_out="1" name="z8l"/> 
      <point added="2" x="201" y="-125" control_in="1" name="z9l"/> 
      <point x="201" y="-125" type="line" name="z10l"/>
      <point added="1" x="201" y="-125" control_out="1" name="z11l"/> 
      <point added="2" x="711" y="1456" control_in="1" name="z12l"/> 
    </contour>
  </outline>
</glyph>
<glyph name="zero" format="1">
  <advance width="1171"/>
  <unicode hex="0030"/>
  <outline>
    <contour>
      <point x="1094" y="881" type="line" smooth="yes" startp="1" name="z1l"/>
      <point x="1094" y="1287" control_out="1" name="z2l"/>
      <point x="888" y="1477" control_in="1" name="z3l"/>
      <point x="591" y="1477" type="curve" smooth="yes" name="z4l"/>
      <point x="293" y="1477" control_out="1" name="z5l"/>
      <point x="89" y="1287" control_in="1" name="z6l"/>
      <point x="89" y="881" type="curve" smooth="yes" name="z7l"/>
      <point added="1" x="89" y="881" control_out="1" name="z8l"/> 
      <point added="2" x="89" y="575" control_in="1" name="z9l"/> 
      <point x="89" y="575" type="line" smooth="yes" name="z10l"/>
      <point x="89" y="169" control_out="1" name="z11l"/>
      <point x="295" y="-21" control_in="1" name="z12l"/>
      <point x="593" y="-21" type="curve" smooth="yes" name="z13l"/>
      <point x="890" y="-21" control_out="1" name="z14l"/>
      <point x="1094" y="169" control_in="1" name="z15l"/>
      <point x="1094" y="575" type="curve" smooth="yes" name="z16l"/>
      <point added="1" x="1094" y="575" control_out="1" name="z17l"/> 
      <point added="2" x="1094" y="881" control_in="1" name="z18l"/> 
    </contour>
    <contour>
      <point x="772" y="554" type="line" smooth="yes" startp="1" name="z19l"/>
      <point x="772" y="318" control_out="1" name="z20l"/>
      <point x="705" y="239" control_in="1" name="z21l"/>
      <point x="593" y="239" type="curve" smooth="yes" name="z22l"/>
      <point x="479" y="239" control_out="1" name="z23l"/>
      <point x="411" y="318" control_in="1" name="z24l"/>
      <point x="411" y="554" type="curve" smooth="yes" name="z25l"/>
      <point added="1" x="411" y="554" control_out="1" name="z26l"/> 
      <point added="2" x="411" y="904" control_in="1" name="z27l"/> 
      <point x="411" y="904" type="line" smooth="yes" name="z28l"/>
      <point x="411" y="1136" control_out="1" name="z29l"/>
      <point x="478" y="1217" control_in="1" name="z30l"/>
      <point x="591" y="1217" type="curve" smooth="yes" name="z31l"/>
      <point x="704" y="1217" control_out="1" name="z32l"/>
      <point x="772" y="1136" control_in="1" name="z33l"/>
      <point x="772" y="904" type="curve" smooth="yes" name="z34l"/>
      <point added="1" x="772" y="904" control_out="1" name="z35l"/> 
      <point added="2" x="772" y="554" control_in="1" name="z36l"/> 
    </contour>
  </outline>
</glyph>
<glyph name="one" format="1">
  <advance width="925"/>
  <unicode hex="0031"/>
  <outline>
    <component base="A_"/>
    <contour>
      <point x="622" y="1457" type="line" startp="1" name="z1l"/>
      <point added="1" x="622" y="1457" control_out="1" name="z2l"/>
      <point added="2" x="44" y="1355" control_in="1" name="z3l"/>
      <point x="44" y="1355" type="line" name="z4l"/>
      <point added="1" x="44" y="1355" control_out="1" name="z5l"/>
      <point added="2" x="44" y="1167" control_in="1" name="z6l"/>
      <point x="44" y="1167" type="line" name="z7l"/>
      <point added="1" x="44" y="1167" control_out="1" name="z8l"/>
      <point added="2" x="300" y="1167" control_in="1" name="z9l"/>
      <point x="300" y="1167" type="line" name="z10l"/>
      <point added="1" x="300" y="1167" control_out="1" name="z11l"/>
      <point added="2" x="300" y="0" control_in="1" name="z12l"/>
      <point x="300" y="0" type="line" name="z13l"/>
      <point added="1" x="300" y="0" control_out="1" name="z14l"/>
      <point added="2" x="622" y="0" control_in="1" name="z15l"/>
      <point x="622" y="0" type="line" name="z16l"/>
      <point added="1" x="622" y="0" control_out="1" name="z17l"/>
      <point added="2" x="622" y="1457" control_in="1" name="z18l"/>
    </contour>
    <contour>
      <point x="300" y="0" type="line" startp="1" name="z19l"/>
      <point added="1" x="300" y="0" control_out="1" name="z20l"/>
      <point added="2" x="300" y="230" control_in="1" name="z21l"/>
      <point x="300" y="230" type="line" name="z22l"/>
      <point added="1" x="300" y="230" control_out="1" name="z23l"/>
      <point added="2" x="47" y="200" control_in="1" name="z24l"/>
      <point x="47" y="200" type="line" name="z25l"/>
      <point added="1" x="47" y="200" control_out="1" name="z26l"/>
      <point added="2" x="47" y="0" control_in="1" name="z27l"/>
      <point x="47" y="0" type="line" name="z28l"/>
      <point added="1" x="47" y="0" control_out="1" name="z29l"/>
      <point added="2" x="300" y="0" control_in="1" name="z30l"/>
    </contour>
    <contour>
      <point x="622" y="0" type="line" startp="1" name="z31l"/>
      <point added="1" x="622" y="0" control_out="1" name="z32l"/>
      <point added="2" x="875" y="0" control_in="1" name="z33l"/>
      <point x="875" y="0" type="line" name="z34l"/>
      <point added="1" x="875" y="0" control_out="1" name="z35l"/>
      <point added="2" x="875" y="200" control_in="1" name="z36l"/>
      <point x="875" y="200" type="line" name="z37l"/>
      <point added="1" x="875" y="200" control_out="1" name="z38l"/>
      <point added="2" x="622" y="230" control_in="1" name="z39l"/>
      <point x="622" y="230" type="line" name="z40l"/>
      <point added="1" x="622" y="230" control_out="1" name="z41l"/>
      <point added="2" x="622" y="0" control_in="1" name="z42l"/>
    </contour>
  </outline>
</glyph>
<glyph name="two" format="1">
  <advance width="1133"/>
  <unicode hex="0032"/>
  <outline>
    <contour>
      <point x="1076" y="260" type="line" startp="1" name="z1l"/>
      <point added="1" x="1076" y="260" control_out="1" name="z2l"/> 
      <point added="2" x="486" y="260" control_in="1" name="z3l"/> 
      <point x="486" y="260" type="line" name="z4l"/>
      <point added="1" x="486" y="260" control_out="1" name="z5l"/> 
      <point added="2" x="709" y="477" control_in="1" name="z6l"/> 
      <point x="709" y="477" type="line" name="z7l"/>
      <point x="909" y="702" control_out="1" name="z8l"/>
      <point x="1036" y="833" control_in="1" name="z9l"/>
      <point x="1036" y="1036" type="curve" smooth="yes" name="z10l"/>
      <point x="1036" y="1308" control_out="1" name="z11l"/>
      <point x="853" y="1477" control_in="1" name="z12l"/>
      <point x="536" y="1477" type="curve" smooth="yes" name="z13l"/>
      <point x="226" y="1477" control_out="1" name="z14l"/>
      <point x="36" y="1256" control_in="1" name="z15l"/>
      <point x="36" y="988" type="curve" name="z16l"/>
      <point added="1" x="36" y="988" control_out="1" name="z17l"/> 
      <point added="2" x="359" y="988" control_in="1" name="z18l"/> 
      <point x="359" y="988" type="line" name="z19l"/>
      <point x="359" y="1118" control_out="1" name="z20l"/>
      <point x="421" y="1217" control_in="1" name="z21l"/>
      <point x="536" y="1217" type="curve" smooth="yes" name="z22l"/>
      <point x="657" y="1217" control_out="1" name="z23l"/>
      <point x="713" y="1140" control_in="1" name="z24l"/>
      <point x="713" y="1033" type="curve" smooth="yes" name="z25l"/>
      <point x="713" y="958" control_out="1" name="z26l"/>
      <point x="664" y="854" control_in="1" name="z27l"/>
      <point x="535" y="712" type="curve" smooth="yes" name="z28l"/>
      <point added="1" x="535" y="712" control_out="1" name="z29l"/> 
      <point added="2" x="66" y="220" control_in="1" name="z30l"/> 
      <point x="66" y="220" type="line" name="z31l"/>
      <point added="1" x="66" y="220" control_out="1" name="z32l"/> 
      <point added="2" x="66" y="0" control_in="1" name="z33l"/> 
      <point x="66" y="0" type="line" name="z34l"/>
      <point added="1" x="66" y="0" control_out="1" name="z35l"/> 
      <point added="2" x="1076" y="0" control_in="1" name="z36l"/> 
      <point x="1076" y="0" type="line" name="z37l"/>
      <point added="1" x="1076" y="0" control_out="1" name="z38l"/> 
      <point added="2" x="1076" y="260" control_in="1" name="z39l"/> 
    </contour>
    <contour>
      <point x="1076" y="0" type="line" startp="1" name="z40l"/>
      <point added="1" x="1076" y="0" control_out="1" name="z41l"/> 
      <point added="2" x="1076" y="393" control_in="1" name="z42l"/> 
      <point x="1076" y="393" type="line" name="z43l"/>
      <point added="1" x="1076" y="393" control_out="1" name="z44l"/> 
      <point added="2" x="836" y="393" control_in="1" name="z45l"/> 
      <point x="836" y="393" type="line" name="z46l"/>
      <point added="1" x="836" y="393" control_out="1" name="z47l"/> 
      <point added="2" x="806" y="0" control_in="1" name="z48l"/> 
      <point x="806" y="0" type="line" name="z49l"/>
      <point added="1" x="806" y="0" control_out="1" name="z50l"/> 
      <point added="2" x="1076" y="0" control_in="1" name="z51l"/> 
    </contour>
  </outline>
</glyph>
<glyph name="three" format="1">
  <advance width="1114"/>
  <unicode hex="0033"/>
  <outline>
    <contour>
      <point x="387" y="869" type="line" startp="1" name="z1l"/>
      <point added="1" x="387" y="869" control_out="1" name="z2l"/> 
      <point added="2" x="387" y="697" control_in="1" name="z3l"/> 
      <point x="387" y="697" type="line" name="z4l"/>
      <point added="1" x="387" y="697" control_out="1" name="z5l"/> 
      <point added="2" x="601" y="697" control_in="1" name="z6l"/> 
      <point x="601" y="697" type="line" smooth="yes" name="z7l"/>
      <point x="873" y="697" control_out="1" name="z8l"/>
      <point x="1064" y="861" control_in="1" name="z9l"/>
      <point x="1064" y="1061" type="curve" smooth="yes" name="z10l"/>
      <point x="1064" y="1333" control_out="1" name="z11l"/>
      <point x="856" y="1477" control_in="1" name="z12l"/>
      <point x="552" y="1477" type="curve" smooth="yes" name="z13l"/>
      <point x="290" y="1477" control_out="1" name="z14l"/>
      <point x="65" y="1328" control_in="1" name="z15l"/>
      <point x="65" y="1081" type="curve" name="z16l"/>
      <point added="1" x="65" y="1081" control_out="1" name="z17l"/> 
      <point added="2" x="387" y="1081" control_in="1" name="z18l"/> 
      <point x="387" y="1081" type="line" name="z19l"/>
      <point x="387" y="1166" control_out="1" name="z20l"/>
      <point x="473" y="1217" control_in="1" name="z21l"/>
      <point x="562" y="1217" type="curve" smooth="yes" name="z22l"/>
      <point x="685" y="1217" control_out="1" name="z23l"/>
      <point x="742" y="1141" control_in="1" name="z24l"/>
      <point x="742" y="1054" type="curve" smooth="yes" name="z25l"/>
      <point x="742" y="940" control_out="1" name="z26l"/>
      <point x="679" y="869" control_in="1" name="z27l"/>
      <point x="548" y="869" type="curve" smooth="yes" name="z28l"/>
      <point added="1" x="548" y="869" control_out="1" name="z29l"/> 
      <point added="2" x="387" y="869" control_in="1" name="z30l"/> 
    </contour>
    <contour>
      <point x="387" y="618" type="line" startp="1" name="z31l"/>
      <point added="1" x="387" y="618" control_out="1" name="z32l"/> 
      <point added="2" x="548" y="618" control_in="1" name="z33l"/> 
      <point x="548" y="618" type="line" smooth="yes" name="z34l"/>
      <point x="683" y="618" control_out="1" name="z35l"/>
      <point x="765" y="562" control_in="1" name="z36l"/>
      <point x="765" y="415" type="curve" smooth="yes" name="z37l"/>
      <point x="765" y="317" control_out="1" name="z38l"/>
      <point x="690" y="239" control_in="1" name="z39l"/>
      <point x="562" y="239" type="curve" smooth="yes" name="z40l"/>
      <point x="454" y="239" control_out="1" name="z41l"/>
      <point x="367" y="311" control_in="1" name="z42l"/>
      <point x="367" y="404" type="curve" name="z43l"/>
      <point added="1" x="367" y="404" control_out="1" name="z44l"/> 
      <point added="2" x="44" y="404" control_in="1" name="z45l"/> 
      <point x="44" y="404" type="line" name="z46l"/>
      <point x="44" y="106" control_out="1" name="z47l"/>
      <point x="308" y="-21" control_in="1" name="z48l"/>
      <point x="552" y="-21" type="curve" smooth="yes" name="z49l"/>
      <point x="856" y="-21" control_out="1" name="z50l"/>
      <point x="1087" y="135" control_in="1" name="z51l"/>
      <point x="1087" y="408" type="curve" smooth="yes" name="z52l"/>
      <point x="1087" y="651" control_out="1" name="z53l"/>
      <point x="901" y="786" control_in="1" name="z54l"/>
      <point x="601" y="786" type="curve" smooth="yes" name="z55l"/>
      <point added="1" x="601" y="786" control_out="1" name="z56l"/> 
      <point added="2" x="387" y="786" control_in="1" name="z57l"/> 
      <point x="387" y="786" type="line" name="z58l"/>
      <point added="1" x="387" y="786" control_out="1" name="z59l"/> 
      <point added="2" x="387" y="618" control_in="1" name="z60l"/> 
    </contour>
  </outline>
</glyph>
<glyph name="four" format="1">
  <advance width="1143"/>
  <unicode hex="0034"/>
  <outline>
    <contour>
      <point x="1095" y="569" type="line"/>
      <point x="320" y="569" type="line"/>
      <point x="589" y="978" type="line"/>
      <point x="874" y="1456" type="line"/>
      <point x="620" y="1456" type="line"/>
      <point x="28" y="515" type="line"/>
      <point x="46" y="357" type="line"/>
      <point x="1095" y="357" type="line"/>
    </contour>
    <contour>
      <point x="942" y="1456" type="line"/>
      <point x="620" y="1456" type="line"/>
      <point x="620" y="0" type="line"/>
      <point x="942" y="0" type="line"/>
    </contour>
    <contour>
      <point x="942" y="0" type="line"/>
      <point x="1095" y="0" type="line"/>
      <point x="1095" y="200" type="line"/>
      <point x="942" y="230" type="line"/>
    </contour>
    <contour>
      <point x="620" y="0" type="line"/>
      <point x="620" y="230" type="line"/>
      <point x="467" y="200" type="line"/>
      <point x="467" y="0" type="line"/>
    </contour>
  </outline>
</glyph>
<glyph name="five" format="1">
  <advance width="1096"/>
  <unicode hex="0035"/>
  <outline>
    <contour>
      <point x="373" y="623" type="line" startp="1" name="z1l"/>
      <point x="394" y="676" control_out="1" name="z2l"/>
      <point x="444" y="725" control_in="1" name="z3l"/>
      <point x="548" y="725" type="curve" smooth="yes" name="z4l"/>
      <point x="682" y="725" control_out="1" name="z5l"/>
      <point x="736" y="618" control_in="1" name="z6l"/>
      <point x="736" y="467" type="curve" smooth="yes" name="z7l"/>
      <point x="736" y="355" control_out="1" name="z8l"/>
      <point x="695" y="239" control_in="1" name="z9l"/>
      <point x="557" y="239" type="curve" smooth="yes" name="z10l"/>
      <point x="449" y="239" control_out="1" name="z11l"/>
      <point x="373" y="307" control_in="1" name="z12l"/>
      <point x="373" y="424" type="curve" name="z13l"/>
      <point added="1" x="373" y="424" control_out="1" name="z14l"/> 
      <point added="2" x="51" y="403" control_in="1" name="z15l"/> 
      <point x="51" y="403" type="line" name="z16l"/>
      <point x="51" y="135" control_out="1" name="z17l"/>
      <point x="300" y="-21" control_in="1" name="z18l"/>
      <point x="557" y="-21" type="curve" smooth="yes" name="z19l"/>
      <point x="899" y="-21" control_out="1" name="z20l"/>
      <point x="1058" y="218" control_in="1" name="z21l"/>
      <point x="1058" y="469" type="curve" smooth="yes" name="z22l"/>
      <point x="1058" y="781" control_out="1" name="z23l"/>
      <point x="902" y="964" control_in="1" name="z24l"/>
      <point x="615" y="958" type="curve" smooth="yes" name="z25l"/>
      <point x="521" y="956" control_out="1" name="z26l"/>
      <point x="443" y="929" control_in="1" name="z27l"/>
      <point x="394" y="891" type="curve" name="z28l"/>
      <point added="1" x="394" y="891" control_out="1" name="z29l"/> 
      <point added="2" x="432" y="1194" control_in="1" name="z30l"/> 
      <point x="432" y="1194" type="line" name="z31l"/>
      <point added="1" x="432" y="1194" control_out="1" name="z32l"/> 
      <point added="2" x="1029" y="1194" control_in="1" name="z33l"/> 
      <point x="1029" y="1194" type="line" name="z34l"/>
      <point added="1" x="1029" y="1194" control_out="1" name="z35l"/> 
      <point added="2" x="1029" y="1456" control_in="1" name="z36l"/> 
      <point x="1029" y="1456" type="line" name="z37l"/>
      <point added="1" x="1029" y="1456" control_out="1" name="z38l"/> 
      <point added="2" x="169" y="1456" control_in="1" name="z39l"/> 
      <point x="169" y="1456" type="line" name="z40l"/>
      <point added="1" x="169" y="1456" control_out="1" name="z41l"/> 
      <point added="2" x="85" y="640" control_in="1" name="z42l"/> 
      <point x="85" y="640" type="line" name="z43l"/>
      <point added="1" x="85" y="640" control_out="1" name="z44l"/> 
      <point added="2" x="373" y="623" control_in="1" name="z45l"/> 
    </contour>
    <contour>
      <point x="1029" y="1103" type="line" startp="1" name="z46l"/>
      <point added="1" x="1029" y="1103" control_out="1" name="z47l"/> 
      <point added="2" x="1029" y="1456" control_in="1" name="z48l"/> 
      <point x="1029" y="1456" type="line" name="z49l"/>
      <point added="1" x="1029" y="1456" control_out="1" name="z50l"/> 
      <point added="2" x="739" y="1456" control_in="1" name="z51l"/> 
      <point x="739" y="1456" type="line" name="z52l"/>
      <point added="1" x="739" y="1456" control_out="1" name="z53l"/> 
      <point added="2" x="839" y="1103" control_in="1" name="z54l"/> 
      <point x="839" y="1103" type="line" name="z55l"/>
      <point added="1" x="839" y="1103" control_out="1" name="z56l"/> 
      <point added="2" x="1029" y="1103" control_in="1" name="z57l"/> 
    </contour>
  </outline>
</glyph>
<glyph name="six" format="1">
  <advance width="1144"/>
  <unicode hex="0036"/>
  <outline>
    <contour>
      <point x="679" y="1477" type="curve" smooth="yes" startp="1" name="z1l"/>
      <point x="340" y="1477" control_out="1" name="z2l"/>
      <point x="81" y="1253" control_in="1" name="z3l"/>
      <point x="81" y="859" type="curve" smooth="yes" name="z4l"/>
      <point added="1" x="81" y="859" control_out="1" name="z5l"/> 
      <point added="2" x="81" y="566" control_in="1" name="z6l"/> 
      <point x="81" y="566" type="line" smooth="yes" name="z7l"/>
      <point x="81" y="197" control_out="1" name="z8l"/>
      <point x="302" y="-21" control_in="1" name="z9l"/>
      <point x="610" y="-21" type="curve" smooth="yes" name="z10l"/>
      <point x="908" y="-21" control_out="1" name="z11l"/>
      <point x="1113" y="197" control_in="1" name="z12l"/>
      <point x="1113" y="482" type="curve" smooth="yes" name="z13l"/>
      <point x="1113" y="764" control_out="1" name="z14l"/>
      <point x="969" y="982" control_in="1" name="z15l"/>
      <point x="700" y="982" type="curve" smooth="yes" name="z16l"/>
      <point x="431" y="982" control_out="1" name="z17l"/>
      <point x="280" y="798" control_in="1" name="z18l"/>
      <point x="280" y="536" type="curve" name="z19l"/>
      <point added="1" x="280" y="536" control_out="1" name="z20l"/> 
      <point added="2" x="364" y="534" control_in="1" name="z21l"/> 
      <point x="364" y="534" type="line" name="z22l"/>
      <point x="364" y="648" control_out="1" name="z23l"/>
      <point x="445" y="724" control_in="1" name="z24l"/>
      <point x="612" y="724" type="curve" smooth="yes" name="z25l"/>
      <point x="719" y="724" control_out="1" name="z26l"/>
      <point x="791" y="632" control_in="1" name="z27l"/>
      <point x="791" y="482" type="curve" smooth="yes" name="z28l"/>
      <point x="791" y="356" control_out="1" name="z29l"/>
      <point x="722" y="239" control_in="1" name="z30l"/>
      <point x="610" y="239" type="curve" smooth="yes" name="z31l"/>
      <point x="484" y="239" control_out="1" name="z32l"/>
      <point x="403" y="353" control_in="1" name="z33l"/>
      <point x="403" y="566" type="curve" smooth="yes" name="z34l"/>
      <point added="1" x="403" y="566" control_out="1" name="z35l"/> 
      <point added="2" x="403" y="861" control_in="1" name="z36l"/> 
      <point x="403" y="861" type="line" smooth="yes" name="z37l"/>
      <point x="403" y="1103" control_out="1" name="z38l"/>
      <point x="521" y="1212" control_in="1" name="z39l"/>
      <point x="681" y="1212" type="curve" smooth="yes" name="z40l"/>
      <point x="781" y="1212" control_out="1" name="z41l"/>
      <point x="845" y="1195" control_in="1" name="z42l"/>
      <point x="922" y="1170" type="curve" name="z43l"/>
      <point added="1" x="922" y="1170" control_out="1" name="z44l"/> 
      <point added="2" x="977" y="1416" control_in="1" name="z45l"/> 
      <point x="977" y="1416" type="line" name="z46l"/>
      <point x="881" y="1456" control_out="1" name="z47l"/>
      <point x="798" y="1477" control_in="1" name="z48l"/>
    </contour>
  </outline>
</glyph>
<glyph name="seven" format="1">
  <advance width="1100"/>
  <unicode hex="0037"/>
  <outline>
    <contour>
      <point x="774" y="1196" type="line" startp="1" name="z1l"/>
      <point x="515" y="910" control_out="1" name="z2l"/>
      <point x="377" y="544" control_in="1" name="z3l"/>
      <point x="335" y="141" type="curve" smooth="yes" name="z4l"/>
      <point added="1" x="335" y="141" control_out="1" name="z5l"/> 
      <point added="2" x="321" y="0" control_in="1" name="z6l"/> 
      <point x="321" y="0" type="line" name="z7l"/>
      <point added="1" x="321" y="0" control_out="1" name="z8l"/> 
      <point added="2" x="644" y="0" control_in="1" name="z9l"/> 
      <point x="644" y="0" type="line" name="z10l"/>
      <point added="1" x="644" y="0" control_out="1" name="z11l"/> 
      <point added="2" x="658" y="141" control_in="1" name="z12l"/> 
      <point x="658" y="141" type="line" smooth="yes" name="z13l"/>
      <point x="698" y="520" control_out="1" name="z14l"/>
      <point x="759" y="834" control_in="1" name="z15l"/>
      <point x="1084" y="1196" type="curve" name="z16l"/>
      <point added="1" x="1084" y="1196" control_out="1" name="z17l"/> 
      <point added="2" x="774" y="1196" control_in="1" name="z18l"/> 
    </contour>
    <contour>
      <point x="1084" y="1456" type="line" startp="1" name="z19l"/>
      <point added="1" x="1084" y="1456" control_out="1" name="z20l"/> 
      <point added="2" x="41" y="1456" control_in="1" name="z21l"/> 
      <point x="41" y="1456" type="line" name="z22l"/>
      <point added="1" x="41" y="1456" control_out="1" name="z23l"/> 
      <point added="2" x="41" y="1196" control_in="1" name="z24l"/> 
      <point x="41" y="1196" type="line" name="z25l"/>
      <point added="1" x="41" y="1196" control_out="1" name="z26l"/> 
      <point added="2" x="1084" y="1196" control_in="1" name="z27l"/> 
      <point x="1084" y="1196" type="line" name="z28l"/>
      <point added="1" x="1084" y="1196" control_out="1" name="z29l"/> 
      <point added="2" x="1084" y="1456" control_in="1" name="z30l"/> 
    </contour>
    <contour>
      <point x="41" y="1456" type="line" startp="1" name="z31l"/>
      <point added="1" x="41" y="1456" control_out="1" name="z32l"/> 
      <point added="2" x="41" y="1063" control_in="1" name="z33l"/> 
      <point x="41" y="1063" type="line" name="z34l"/>
      <point added="1" x="41" y="1063" control_out="1" name="z35l"/> 
      <point added="2" x="282" y="1063" control_in="1" name="z36l"/> 
      <point x="282" y="1063" type="line" name="z37l"/>
      <point added="1" x="282" y="1063" control_out="1" name="z38l"/> 
      <point added="2" x="311" y="1456" control_in="1" name="z39l"/> 
      <point x="311" y="1456" type="line" name="z40l"/>
      <point added="1" x="311" y="1456" control_out="1" name="z41l"/> 
      <point added="2" x="41" y="1456" control_in="1" name="z42l"/> 
    </contour>
  </outline>
</glyph>
<glyph name="eight" format="1">
  <advance width="1110"/>
  <unicode hex="0038"/>
  <outline>
    <contour>
      <point x="1066" y="401" type="curve" smooth="yes" startp="1" name="z1l"/>
      <point x="1066" y="642" control_out="1" name="z2l"/>
      <point x="851" y="799" control_in="1" name="z3l"/>
      <point x="562" y="799" type="curve" smooth="yes" name="z4l"/>
      <point x="276" y="799" control_out="1" name="z5l"/>
      <point x="59" y="642" control_in="1" name="z6l"/>
      <point x="59" y="401" type="curve" smooth="yes" name="z7l"/>
      <point x="59" y="122" control_out="1" name="z8l"/>
      <point x="276" y="-21" control_in="1" name="z9l"/>
      <point x="564" y="-21" type="curve" smooth="yes" name="z10l"/>
      <point x="853" y="-21" control_out="1" name="z11l"/>
      <point x="1066" y="122" control_in="1" name="z12l"/>
    </contour>
    <contour>
      <point x="744" y="428" type="curve" smooth="yes" startp="1" name="z13l"/>
      <point x="744" y="311" control_out="1" name="z14l"/>
      <point x="672" y="239" control_in="1" name="z15l"/>
      <point x="564" y="239" type="curve" smooth="yes" name="z16l"/>
      <point x="455" y="239" control_out="1" name="z17l"/>
      <point x="382" y="311" control_in="1" name="z18l"/>
      <point x="382" y="428" type="curve" smooth="yes" name="z19l"/>
      <point x="382" y="547" control_out="1" name="z20l"/>
      <point x="455" y="615" control_in="1" name="z21l"/>
      <point x="562" y="615" type="curve" smooth="yes" name="z22l"/>
      <point x="670" y="615" control_out="1" name="z23l"/>
      <point x="744" y="547" control_in="1" name="z24l"/>
    </contour>
    <contour>
      <point x="1035" y="1067" type="curve" smooth="yes" startp="1" name="z25l"/>
      <point x="1035" y="1334" control_out="1" name="z26l"/>
      <point x="839" y="1477" control_in="1" name="z27l"/>
      <point x="562" y="1477" type="curve" smooth="yes" name="z28l"/>
      <point x="288" y="1477" control_out="1" name="z29l"/>
      <point x="90" y="1334" control_in="1" name="z30l"/>
      <point x="90" y="1067" type="curve" smooth="yes" name="z31l"/>
      <point x="90" y="839" control_out="1" name="z32l"/>
      <point x="288" y="687" control_in="1" name="z33l"/>
      <point x="564" y="687" type="curve" smooth="yes" name="z34l"/>
      <point x="840" y="687" control_out="1" name="z35l"/>
      <point x="1035" y="839" control_in="1" name="z36l"/>
    </contour>
    <contour>
      <point x="713" y="1049" type="curve" smooth="yes" startp="1" name="z37l"/>
      <point x="713" y="945" control_out="1" name="z38l"/>
      <point x="662" y="875" control_in="1" name="z39l"/>
      <point x="564" y="875" type="curve" smooth="yes" name="z40l"/>
      <point x="466" y="875" control_out="1" name="z41l"/>
      <point x="413" y="945" control_in="1" name="z42l"/>
      <point x="413" y="1049" type="curve" smooth="yes" name="z43l"/>
      <point x="413" y="1154" control_out="1" name="z44l"/>
      <point x="466" y="1217" control_in="1" name="z45l"/>
      <point x="562" y="1217" type="curve" smooth="yes" name="z46l"/>
      <point x="660" y="1217" control_out="1" name="z47l"/>
      <point x="713" y="1152" control_in="1" name="z48l"/>
    </contour>
  </outline>
</glyph>
<glyph name="nine" format="1">
  <advance width="1137"/>
  <unicode hex="0039"/>
  <outline>
    <contour>
      <point x="498" y="239" type="curve" smooth="yes" startp="1" name="z1l"/>
      <point x="388" y="239" control_out="1" name="z2l"/>
      <point x="310" y="256" control_in="1" name="z3l"/>
      <point x="225" y="283" type="curve" name="z4l"/>
      <point added="1" x="225" y="283" control_out="1" name="z5l"/> 
      <point added="2" x="190" y="42" control_in="1" name="z6l"/> 
      <point x="190" y="42" type="line" name="z7l"/>
      <point x="285" y="4" control_out="1" name="z8l"/>
      <point x="398" y="-21" control_in="1" name="z9l"/>
      <point x="498" y="-21" type="curve" smooth="yes" name="z10l"/>
      <point x="817" y="-21" control_out="1" name="z11l"/>
      <point x="1062" y="193" control_in="1" name="z12l"/>
      <point x="1062" y="535" type="curve" smooth="yes" name="z13l"/>
      <point added="1" x="1062" y="535" control_out="1" name="z14l"/> 
      <point added="2" x="1062" y="881" control_in="1" name="z15l"/> 
      <point x="1062" y="881" type="line" smooth="yes" name="z16l"/>
      <point x="1062" y="1263" control_out="1" name="z17l"/>
      <point x="844" y="1477" control_in="1" name="z18l"/>
      <point x="558" y="1477" type="curve" smooth="yes" name="z19l"/>
      <point x="261" y="1477" control_out="1" name="z20l"/>
      <point x="57" y="1241" control_in="1" name="z21l"/>
      <point x="57" y="957" type="curve" smooth="yes" name="z22l"/>
      <point x="57" y="649" control_out="1" name="z23l"/>
      <point x="217" y="455" control_in="1" name="z24l"/>
      <point x="485" y="455" type="curve" smooth="yes" name="z25l"/>
      <point x="677" y="455" control_out="1" name="z26l"/>
      <point x="838" y="615" control_in="1" name="z27l"/>
      <point x="838" y="904" type="curve" name="z28l"/>
      <point added="1" x="838" y="904" control_out="1" name="z29l"/> 
      <point added="2" x="781" y="881" control_in="1" name="z30l"/> 
      <point x="781" y="881" type="line" name="z31l"/>
      <point x="781" y="798" control_out="1" name="z32l"/>
      <point x="701" y="698" control_in="1" name="z33l"/>
      <point x="550" y="698" type="curve" smooth="yes" name="z34l"/>
      <point x="435" y="698" control_out="1" name="z35l"/>
      <point x="379" y="804" control_in="1" name="z36l"/>
      <point x="379" y="957" type="curve" smooth="yes" name="z37l"/>
      <point x="379" y="1083" control_out="1" name="z38l"/>
      <point x="445" y="1217" control_in="1" name="z39l"/>
      <point x="558" y="1217" type="curve" smooth="yes" name="z40l"/>
      <point x="662" y="1217" control_out="1" name="z41l"/>
      <point x="740" y="1124" control_in="1" name="z42l"/>
      <point x="740" y="923" type="curve" smooth="yes" name="z43l"/>
      <point added="1" x="740" y="923" control_out="1" name="z44l"/> 
      <point added="2" x="740" y="512" control_in="1" name="z45l"/> 
      <point x="740" y="512" type="line" smooth="yes" name="z46l"/>
      <point x="740" y="337" control_out="1" name="z47l"/>
      <point x="635" y="239" control_in="1" name="z48l"/>
    </contour>
  </outline>
</glyph>
<glyph name="colon" format="1">
  <advance width="467"/>
  <unicode hex="003A"/>
  <outline>
    <contour>
      <point x="394" y="284" type="line" startp="1" name="z1l"/>
      <point added="1" x="394" y="284" control_out="1" name="z2l"/> 
      <point added="2" x="72" y="284" control_in="1" name="z3l"/> 
      <point x="72" y="284" type="line" name="z4l"/>
      <point added="1" x="72" y="284" control_out="1" name="z5l"/> 
      <point added="2" x="72" y="0" control_in="1" name="z6l"/> 
      <point x="72" y="0" type="line" name="z7l"/>
      <point added="1" x="72" y="0" control_out="1" name="z8l"/> 
      <point added="2" x="394" y="0" control_in="1" name="z9l"/> 
      <point x="394" y="0" type="line" name="z10l"/>
      <point added="1" x="394" y="0" control_out="1" name="z11l"/> 
      <point added="2" x="394" y="284" control_in="1" name="z12l"/> 
    </contour>
    <contour>
      <point x="394" y="1082" type="line" startp="1" name="z13l"/>
      <point added="1" x="394" y="1082" control_out="1" name="z14l"/> 
      <point added="2" x="72" y="1082" control_in="1" name="z15l"/> 
      <point x="72" y="1082" type="line" name="z16l"/>
      <point added="1" x="72" y="1082" control_out="1" name="z17l"/> 
      <point added="2" x="72" y="798" control_in="1" name="z18l"/> 
      <point x="72" y="798" type="line" name="z19l"/>
      <point added="1" x="72" y="798" control_out="1" name="z20l"/> 
      <point added="2" x="394" y="798" control_in="1" name="z21l"/> 
      <point x="394" y="798" type="line" name="z22l"/>
      <point added="1" x="394" y="798" control_out="1" name="z23l"/> 
      <point added="2" x="394" y="1082" control_in="1" name="z24l"/> 
    </contour>
  </outline>
</glyph>
<glyph name="semicolon" format="1">
  <advance width="462"/>
  <unicode hex="003B"/>
  <outline>
    <contour>
      <point x="392" y="1082" type="line" startp="1" name="z1l"/>
      <point added="1" x="392" y="1082" control_out="1" name="z2l"/> 
      <point added="2" x="70" y="1082" control_in="1" name="z3l"/> 
      <point x="70" y="1082" type="line" name="z4l"/>
      <point added="1" x="70" y="1082" control_out="1" name="z5l"/> 
      <point added="2" x="70" y="798" control_in="1" name="z6l"/> 
      <point x="70" y="798" type="line" name="z7l"/>
      <point added="1" x="70" y="798" control_out="1" name="z8l"/> 
      <point added="2" x="392" y="798" control_in="1" name="z9l"/> 
      <point x="392" y="798" type="line" name="z10l"/>
      <point added="1" x="392" y="798" control_out="1" name="z11l"/> 
      <point added="2" x="392" y="1082" control_in="1" name="z12l"/> 
    </contour>
    <contour>
      <point x="377" y="254" type="line" startp="1" name="z13l"/>
      <point added="1" x="377" y="254" control_out="1" name="z14l"/> 
      <point added="2" x="95" y="254" control_in="1" name="z15l"/> 
      <point x="95" y="254" type="line" name="z16l"/>
      <point added="1" x="95" y="254" control_out="1" name="z17l"/> 
      <point added="2" x="95" y="1" control_in="1" name="z18l"/> 
      <point x="95" y="1" type="line" smooth="yes" name="z19l"/>
      <point x="95" y="-138" control_out="1" name="z20l"/>
      <point x="63" y="-231" control_in="1" name="z21l"/>
      <point x="19" y="-312" type="curve" name="z22l"/>
      <point added="1" x="19" y="-312" control_out="1" name="z23l"/> 
      <point added="2" x="173" y="-392" control_in="1" name="z24l"/> 
      <point x="173" y="-392" type="line" name="z25l"/>
      <point x="278" y="-300" control_out="1" name="z26l"/>
      <point x="376" y="-128" control_in="1" name="z27l"/>
      <point x="376" y="20" type="curve" smooth="yes" name="z28l"/>
      <point added="1" x="376" y="20" control_out="1" name="z29l"/> 
      <point added="2" x="377" y="254" control_in="1" name="z30l"/> 
    </contour>
  </outline>
</glyph>
<glyph name="less" format="1">
  <advance width="1011"/>
  <unicode hex="003C"/>
  <outline>
    <contour>
      <point x="311" y="563" type="line" startp="1" name="z1l"/>
      <point added="1" x="311" y="563" control_out="1" name="z2l"/> 
      <point added="2" x="52" y="578" control_in="1" name="z3l"/> 
      <point x="52" y="578" type="line" name="z4l"/>
      <point added="1" x="52" y="578" control_out="1" name="z5l"/> 
      <point added="2" x="52" y="410" control_in="1" name="z6l"/> 
      <point x="52" y="410" type="line" name="z7l"/>
      <point added="1" x="52" y="410" control_out="1" name="z8l"/> 
      <point added="2" x="929" y="50" control_in="1" name="z9l"/> 
      <point x="929" y="50" type="line" name="z10l"/>
      <point added="1" x="929" y="50" control_out="1" name="z11l"/> 
      <point added="2" x="929" y="357" control_in="1" name="z12l"/> 
      <point x="929" y="357" type="line" name="z13l"/>
      <point added="1" x="929" y="357" control_out="1" name="z14l"/> 
      <point added="2" x="311" y="563" control_in="1" name="z15l"/> 
    </contour>
    <contour>
      <point x="929" y="730" type="line" startp="1" name="z16l"/>
      <point added="1" x="929" y="730" control_out="1" name="z17l"/> 
      <point added="2" x="929" y="1036" control_in="1" name="z18l"/> 
      <point x="929" y="1036" type="line" name="z19l"/>
      <point added="1" x="929" y="1036" control_out="1" name="z20l"/> 
      <point added="2" x="52" y="676" control_in="1" name="z21l"/> 
      <point x="52" y="676" type="line" name="z22l"/>
      <point added="1" x="52" y="676" control_out="1" name="z23l"/> 
      <point added="2" x="52" y="508" control_in="1" name="z24l"/> 
      <point x="52" y="508" type="line" name="z25l"/>
      <point added="1" x="52" y="508" control_out="1" name="z26l"/> 
      <point added="2" x="311" y="520" control_in="1" name="z27l"/> 
      <point x="311" y="520" type="line" name="z28l"/>
      <point added="1" x="311" y="520" control_out="1" name="z29l"/> 
      <point added="2" x="929" y="730" control_in="1" name="z30l"/> 
    </contour>
  </outline>
</glyph>
<glyph name="greater" format="1">
  <advance width="1021"/>
  <unicode hex="003E"/>
  <outline>
    <contour>
      <point x="715" y="522" type="line" startp="1" name="z1l"/>
      <point added="1" x="715" y="522" control_out="1" name="z2l"/> 
      <point added="2" x="974" y="505" control_in="1" name="z3l"/> 
      <point x="974" y="505" type="line" name="z4l"/>
      <point added="1" x="974" y="505" control_out="1" name="z5l"/> 
      <point added="2" x="974" y="674" control_in="1" name="z6l"/> 
      <point x="974" y="674" type="line" name="z7l"/>
      <point added="1" x="974" y="674" control_out="1" name="z8l"/> 
      <point added="2" x="97" y="1034" control_in="1" name="z9l"/> 
      <point x="97" y="1034" type="line" name="z10l"/>
      <point added="1" x="97" y="1034" control_out="1" name="z11l"/> 
      <point added="2" x="97" y="728" control_in="1" name="z12l"/> 
      <point x="97" y="728" type="line" name="z13l"/>
      <point added="1" x="97" y="728" control_out="1" name="z14l"/> 
      <point added="2" x="715" y="522" control_in="1" name="z15l"/> 
    </contour>
    <contour>
      <point x="97" y="354" type="line" startp="1" name="z16l"/>
      <point added="1" x="97" y="354" control_out="1" name="z17l"/> 
      <point added="2" x="97" y="48" control_in="1" name="z18l"/> 
      <point x="97" y="48" type="line" name="z19l"/>
      <point added="1" x="97" y="48" control_out="1" name="z20l"/> 
      <point added="2" x="974" y="408" control_in="1" name="z21l"/> 
      <point x="974" y="408" type="line" name="z22l"/>
      <point added="1" x="974" y="408" control_out="1" name="z23l"/> 
      <point added="2" x="974" y="576" control_in="1" name="z24l"/> 
      <point x="974" y="576" type="line" name="z25l"/>
      <point added="1" x="974" y="576" control_out="1" name="z26l"/> 
      <point added="2" x="715" y="565" control_in="1" name="z27l"/> 
      <point x="715" y="565" type="line" name="z28l"/>
      <point added="1" x="715" y="565" control_out="1" name="z29l"/> 
      <point added="2" x="97" y="354" control_in="1" name="z30l"/> 
    </contour>
  </outline>
</glyph>
<glyph name="question" format="1">
  <advance width="996"/>
  <unicode hex="003F"/>
  <outline>
    <contour>
      <point x="637" y="416" type="line" startp="1" name="z1l"/>
      <point x="637" y="523" control_out="1" name="z2l"/>
      <point x="656" y="581" control_in="1" name="z3l"/>
      <point x="743" y="638" type="curve" name="z4l"/>
      <point x="885" y="714" control_out="1" name="z5l"/>
      <point x="1006" y="860" control_in="1" name="z6l"/>
      <point x="1006" y="1033" type="curve" smooth="yes" name="z7l"/>
      <point x="1006" y="1304" control_out="1" name="z8l"/>
      <point x="819" y="1477" control_in="1" name="z9l"/>
      <point x="505" y="1477" type="curve" smooth="yes" name="z10l"/>
      <point x="233" y="1477" control_out="1" name="z11l"/>
      <point x="21" y="1352" control_in="1" name="z12l"/>
      <point x="17" y="1054" type="curve" name="z13l"/>
      <point added="1" x="17" y="1054" control_out="1" name="z14l"/> 
      <point added="2" x="340" y="1054" control_in="1" name="z15l"/> 
      <point x="340" y="1054" type="line" name="z16l"/>
      <point x="343" y="1169" control_out="1" name="z17l"/>
      <point x="421" y="1217" control_in="1" name="z18l"/>
      <point x="505" y="1217" type="curve" smooth="yes" name="z19l"/>
      <point x="622" y="1217" control_out="1" name="z20l"/>
      <point x="683" y="1142" control_in="1" name="z21l"/>
      <point x="683" y="1033" type="curve" smooth="yes" name="z22l"/>
      <point x="683" y="921" control_out="1" name="z23l"/>
      <point x="619" y="840" control_in="1" name="z24l"/>
      <point x="535" y="786" type="curve" smooth="yes" name="z25l"/>
      <point x="386" y="680" control_out="1" name="z26l"/>
      <point x="317" y="618" control_in="1" name="z27l"/>
      <point x="315" y="416" type="curve" name="z28l"/>
      <point added="1" x="315" y="416" control_out="1" name="z29l"/> 
      <point added="2" x="637" y="416" control_in="1" name="z30l"/> 
    </contour>
    <contour>
      <point x="637" y="270" type="line" startp="1" name="z31l"/>
      <point added="1" x="637" y="270" control_out="1" name="z32l"/> 
      <point added="2" x="315" y="270" control_in="1" name="z33l"/> 
      <point x="315" y="270" type="line" name="z34l"/>
      <point added="1" x="315" y="270" control_out="1" name="z35l"/> 
      <point added="2" x="315" y="0" control_in="1" name="z36l"/> 
      <point x="315" y="0" type="line" name="z37l"/>
      <point added="1" x="315" y="0" control_out="1" name="z38l"/> 
      <point added="2" x="637" y="0" control_in="1" name="z39l"/> 
      <point x="637" y="0" type="line" name="z40l"/>
      <point added="1" x="637" y="0" control_out="1" name="z41l"/> 
      <point added="2" x="637" y="270" control_in="1" name="z42l"/> 
    </contour>
  </outline>
</glyph>
<glyph name="at" format="1">
  <advance width="1801"/>
  <unicode hex="0040"/>
  <outline>
    <contour>
      <point x="1740" y="520" type="curve" smooth="yes" startp="1" name="z1l"/>
      <point x="1762" y="1067" control_out="1" name="z2l"/>
      <point x="1477" y="1410" control_in="1" name="z3l"/>
      <point x="952" y="1410" type="curve" smooth="yes" name="z4l"/>
      <point x="424" y="1410" control_out="1" name="z5l"/>
      <point x="85" y="1049" control_in="1" name="z6l"/>
      <point x="61" y="478" type="curve" smooth="yes" name="z7l"/>
      <point x="39" y="-96" control_out="1" name="z8l"/>
      <point x="343" y="-453" control_in="1" name="z9l"/>
      <point x="879" y="-453" type="curve" smooth="yes" name="z10l"/>
      <point x="1003" y="-453" control_out="1" name="z11l"/>
      <point x="1159" y="-424" control_in="1" name="z12l"/>
      <point x="1252" y="-364" type="curve" name="z13l"/>
      <point added="1" x="1252" y="-364" control_out="1" name="z14l"/> 
      <point added="2" x="1214" y="-198" control_in="1" name="z15l"/> 
      <point x="1214" y="-198" type="line" name="z16l"/>
      <point x="1130" y="-234" control_out="1" name="z17l"/>
      <point x="999" y="-263" control_in="1" name="z18l"/>
      <point x="883" y="-263" type="curve" smooth="yes" name="z19l"/>
      <point x="477" y="-263" control_out="1" name="z20l"/>
      <point x="251" y="24" control_in="1" name="z21l"/>
      <point x="273" y="478" type="curve" smooth="yes" name="z22l"/>
      <point x="294" y="945" control_out="1" name="z23l"/>
      <point x="542" y="1238" control_in="1" name="z24l"/>
      <point x="948" y="1238" type="curve" smooth="yes" name="z25l"/>
      <point x="1377" y="1238" control_out="1" name="z26l"/>
      <point x="1567" y="961" control_in="1" name="z27l"/>
      <point x="1546" y="520" type="curve" smooth="yes" name="z28l"/>
      <point x="1536" y="312" control_out="1" name="z29l"/>
      <point x="1446" y="141" control_in="1" name="z30l"/>
      <point x="1289" y="141" type="curve" smooth="yes" name="z31l"/>
      <point x="1256" y="141" control_out="1" name="z32l"/>
      <point x="1220" y="165" control_in="1" name="z33l"/>
      <point x="1228" y="293" type="curve" smooth="yes" name="z34l"/>
      <point added="1" x="1228" y="293" control_out="1" name="z35l"/> 
      <point added="2" x="1279" y="859" control_in="1" name="z36l"/> 
      <point x="1279" y="859" type="line" name="z37l"/>
      <point added="1" x="1279" y="859" control_out="1" name="z38l"/> 
      <point added="2" x="1061" y="859" control_in="1" name="z39l"/> 
      <point x="1061" y="859" type="line" name="z40l"/>
      <point added="1" x="1061" y="859" control_out="1" name="z41l"/> 
      <point added="2" x="1010" y="293" control_in="1" name="z42l"/> 
      <point x="1010" y="293" type="line" smooth="yes" name="z43l"/>
      <point x="1001" y="100" control_out="1" name="z44l"/>
      <point x="1099" y="-21" control_in="1" name="z45l"/>
      <point x="1246" y="-21" type="curve" smooth="yes" name="z46l"/>
      <point x="1597" y="-21" control_out="1" name="z47l"/>
      <point x="1730" y="266" control_in="1" name="z48l"/>
    </contour>
    <contour>
      <point x="730" y="416" type="curve" smooth="yes" startp="1" name="z49l"/>
      <point x="753" y="651" control_out="1" name="z50l"/>
      <point x="820" y="778" control_in="1" name="z51l"/>
      <point x="965" y="778" type="curve" smooth="yes" name="z52l"/>
      <point x="1059" y="778" control_out="1" name="z53l"/>
      <point x="1128" y="738" control_in="1" name="z54l"/>
      <point x="1171" y="703" type="curve" name="z55l"/>
      <point added="1" x="1171" y="703" control_out="1" name="z56l"/> 
      <point added="2" x="1277" y="863" control_in="1" name="z57l"/> 
      <point x="1277" y="863" type="line" name="z58l"/>
      <point x="1185" y="921" control_out="1" name="z59l"/>
      <point x="1103" y="969" control_in="1" name="z60l"/>
      <point x="926" y="969" type="curve" smooth="yes" name="z61l"/>
      <point x="700" y="969" control_out="1" name="z62l"/>
      <point x="524" y="753" control_in="1" name="z63l"/>
      <point x="489" y="416" type="curve" smooth="yes" name="z64l"/>
      <point x="463" y="154" control_out="1" name="z65l"/>
      <point x="577" y="-17" control_in="1" name="z66l"/>
      <point x="771" y="-17" type="curve" smooth="yes" name="z67l"/>
      <point x="910" y="-17" control_out="1" name="z68l"/>
      <point x="1006" y="66" control_in="1" name="z69l"/>
      <point x="1059" y="231" type="curve" name="z70l"/>
      <point added="1" x="1059" y="231" control_out="1" name="z71l"/> 
      <point added="2" x="1028" y="345" control_in="1" name="z72l"/> 
      <point x="1028" y="345" type="line" name="z73l"/>
      <point x="979" y="201" control_out="1" name="z74l"/>
      <point x="908" y="173" control_in="1" name="z75l"/>
      <point x="836" y="173" type="curve" smooth="yes" name="z76l"/>
      <point x="755" y="173" control_out="1" name="z77l"/>
      <point x="718" y="257" control_in="1" name="z78l"/>
    </contour>
  </outline>
</glyph>
<glyph name="A" format="1">
  <advance width="1462"/>
  <unicode hex="0041"/>
  <outline>
    <contour>
      <point x="803" y="1337" type="line" startp="1" name="z1l"/>
      <point added="1" x="803" y="1337" control_out="1" name="z2l"/> 
      <point added="2" x="735" y="1456" control_in="1" name="z3l"/> 
      <point x="735" y="1456" type="line" name="z4l"/>
      <point added="1" x="735" y="1456" control_out="1" name="z5l"/> 
      <point added="2" x="560" y="1456" control_in="1" name="z6l"/> 
      <point x="560" y="1456" type="line" name="z7l"/>
      <point added="1" x="560" y="1456" control_out="1" name="z8l"/> 
      <point added="2" x="70" y="0" control_in="1" name="z9l"/> 
      <point x="70" y="0" type="line" name="z10l"/>
      <point added="1" x="70" y="0" control_out="1" name="z11l"/> 
      <point added="2" x="395" y="0" control_in="1" name="z12l"/> 
      <point x="395" y="0" type="line" name="z13l"/>
      <point added="1" x="395" y="0" control_out="1" name="z14l"/> 
      <point added="2" x="803" y="1337" control_in="1" name="z15l"/> 
    </contour>
    <contour>
      <point x="1067" y="0" type="line" startp="1" name="z16l"/>
      <point added="1" x="1067" y="0" control_out="1" name="z17l"/> 
      <point added="2" x="1392" y="0" control_in="1" name="z18l"/> 
      <point x="1392" y="0" type="line" name="z19l"/>
      <point added="1" x="1392" y="0" control_out="1" name="z20l"/> 
      <point added="2" x="902" y="1456" control_in="1" name="z21l"/> 
      <point x="902" y="1456" type="line" name="z22l"/>
      <point added="1" x="902" y="1456" control_out="1" name="z23l"/> 
      <point added="2" x="727" y="1456" control_in="1" name="z24l"/> 
      <point x="727" y="1456" type="line" name="z25l"/>
      <point added="1" x="727" y="1456" control_out="1" name="z26l"/> 
      <point added="2" x="655" y="1346" control_in="1" name="z27l"/> 
      <point x="655" y="1346" type="line" name="z28l"/>
      <point added="1" x="655" y="1346" control_out="1" name="z29l"/> 
      <point added="2" x="1067" y="0" control_in="1" name="z30l"/> 
    </contour>
    <contour>
      <point x="1104" y="623" type="line" startp="1" name="z31l"/>
      <point added="1" x="1104" y="623" control_out="1" name="z32l"/> 
      <point added="2" x="341" y="623" control_in="1" name="z33l"/> 
      <point x="341" y="623" type="line" name="z34l"/>
      <point added="1" x="341" y="623" control_out="1" name="z35l"/> 
      <point added="2" x="341" y="383" control_in="1" name="z36l"/> 
      <point x="341" y="383" type="line" name="z37l"/>
      <point added="1" x="341" y="383" control_out="1" name="z38l"/> 
      <point added="2" x="1104" y="383" control_in="1" name="z39l"/> 
      <point x="1104" y="383" type="line" name="z40l"/>
      <point added="1" x="1104" y="383" control_out="1" name="z41l"/> 
      <point added="2" x="1104" y="623" control_in="1" name="z42l"/> 
    </contour>
    <contour>
      <point x="395" y="0" type="line" startp="1" name="z43l"/>
      <point added="1" x="395" y="0" control_out="1" name="z44l"/> 
      <point added="2" x="558" y="0" control_in="1" name="z45l"/> 
      <point x="558" y="0" type="line" name="z46l"/>
      <point added="1" x="558" y="0" control_out="1" name="z47l"/> 
      <point added="2" x="558" y="200" control_in="1" name="z48l"/> 
      <point x="558" y="200" type="line" name="z49l"/>
      <point added="1" x="558" y="200" control_out="1" name="z50l"/> 
      <point added="2" x="395" y="230" control_in="1" name="z51l"/> 
      <point x="395" y="230" type="line" name="z52l"/>
      <point added="1" x="395" y="230" control_out="1" name="z53l"/> 
      <point added="2" x="395" y="0" control_in="1" name="z54l"/> 
    </contour>
    <contour>
      <point x="70" y="0" type="line" startp="1" name="z55l"/>
      <point added="1" x="70" y="0" control_out="1" name="z56l"/> 
      <point added="2" x="250" y="230" control_in="1" name="z57l"/> 
      <point x="250" y="230" type="line" name="z58l"/>
      <point added="1" x="250" y="230" control_out="1" name="z59l"/> 
      <point added="2" x="37" y="200" control_in="1" name="z60l"/> 
      <point x="37" y="200" type="line" name="z61l"/>
      <point added="1" x="37" y="200" control_out="1" name="z62l"/> 
      <point added="2" x="37" y="0" control_in="1" name="z63l"/> 
      <point x="37" y="0" type="line" name="z64l"/>
      <point added="1" x="37" y="0" control_out="1" name="z65l"/> 
      <point added="2" x="70" y="0" control_in="1" name="z66l"/> 
    </contour>
    <contour>
      <point x="1392" y="0" type="line" startp="1" name="z67l"/>
      <point added="1" x="1392" y="0" control_out="1" name="z68l"/> 
      <point added="2" x="1425" y="0" control_in="1" name="z69l"/> 
      <point x="1425" y="0" type="line" name="z70l"/>
      <point added="1" x="1425" y="0" control_out="1" name="z71l"/> 
      <point added="2" x="1425" y="200" control_in="1" name="z72l"/> 
      <point x="1425" y="200" type="line" name="z73l"/>
      <point added="1" x="1425" y="200" control_out="1" name="z74l"/> 
      <point added="2" x="1212" y="230" control_in="1" name="z75l"/> 
      <point x="1212" y="230" type="line" name="z76l"/>
      <point added="1" x="1212" y="230" control_out="1" name="z77l"/> 
      <point added="2" x="1392" y="0" control_in="1" name="z78l"/> 
    </contour>
    <contour>
      <point x="1067" y="0" type="line" startp="1" name="z79l"/>
      <point added="1" x="1067" y="0" control_out="1" name="z80l"/> 
      <point added="2" x="1067" y="230" control_in="1" name="z81l"/> 
      <point x="1067" y="230" type="line" name="z82l"/>
      <point added="1" x="1067" y="230" control_out="1" name="z83l"/> 
      <point added="2" x="904" y="200" control_in="1" name="z84l"/> 
      <point x="904" y="200" type="line" name="z85l"/>
      <point added="1" x="904" y="200" control_out="1" name="z86l"/> 
      <point added="2" x="904" y="0" control_in="1" name="z87l"/> 
      <point x="904" y="0" type="line" name="z88l"/>
      <point added="1" x="904" y="0" control_out="1" name="z89l"/> 
      <point added="2" x="1067" y="0" control_in="1" name="z90l"/> 
    </contour>
  </outline>
</glyph>
<glyph name="B" format="1">
  <advance width="1357"/>
  <unicode hex="0042"/>
  <outline>
    <contour>
      <point x="792" y="625" type="line" startp="1" name="z1l"/>
      <point added="1" x="792" y="625" control_out="1" name="z2l"/> 
      <point added="2" x="866" y="712" control_in="1" name="z3l"/> 
      <point x="866" y="712" type="line" name="z4l"/>
      <point x="1154" y="717" control_out="1" name="z5l"/>
      <point x="1266" y="877" control_in="1" name="z6l"/>
      <point x="1266" y="1056" type="curve" smooth="yes" name="z7l"/>
      <point x="1266" y="1328" control_out="1" name="z8l"/>
      <point x="1048" y="1456" control_in="1" name="z9l"/>
      <point x="701" y="1456" type="curve" smooth="yes" name="z10l"/>
      <point added="1" x="701" y="1456" control_out="1" name="z11l"/> 
      <point added="2" x="204" y="1456" control_in="1" name="z12l"/> 
      <point x="204" y="1456" type="line" name="z13l"/>
      <point added="1" x="204" y="1456" control_out="1" name="z14l"/> 
      <point added="2" x="204" y="0" control_in="1" name="z15l"/> 
      <point x="204" y="0" type="line" name="z16l"/>
      <point added="1" x="204" y="0" control_out="1" name="z17l"/> 
      <point added="2" x="527" y="0" control_in="1" name="z18l"/> 
      <point x="527" y="0" type="line" name="z19l"/>
      <point added="1" x="527" y="0" control_out="1" name="z20l"/> 
      <point added="2" x="527" y="1196" control_in="1" name="z21l"/> 
      <point x="527" y="1196" type="line" name="z22l"/>
      <point added="1" x="527" y="1196" control_out="1" name="z23l"/> 
      <point added="2" x="701" y="1196" control_in="1" name="z24l"/> 
      <point x="701" y="1196" type="line" smooth="yes" name="z25l"/>
      <point x="862" y="1196" control_out="1" name="z26l"/>
      <point x="943" y="1144" control_in="1" name="z27l"/>
      <point x="943" y="1018" type="curve" smooth="yes" name="z28l"/>
      <point x="943" y="907" control_out="1" name="z29l"/>
      <point x="862" y="849" control_in="1" name="z30l"/>
      <point x="701" y="849" type="curve" smooth="yes" name="z31l"/>
      <point added="1" x="701" y="849" control_out="1" name="z32l"/> 
      <point added="2" x="410" y="849" control_in="1" name="z33l"/> 
      <point x="410" y="849" type="line" name="z34l"/>
      <point added="1" x="410" y="849" control_out="1" name="z35l"/> 
      <point added="2" x="412" y="625" control_in="1" name="z36l"/> 
      <point x="412" y="625" type="line" name="z37l"/>
      <point added="1" x="412" y="625" control_out="1" name="z38l"/> 
      <point added="2" x="792" y="625" control_in="1" name="z39l"/> 
    </contour>
    <contour>
      <point x="772" y="0" type="line" smooth="yes" startp="1" name="z40l"/>
      <point x="1119" y="0" control_out="1" name="z41l"/>
      <point x="1317" y="146" control_in="1" name="z42l"/>
      <point x="1317" y="431" type="curve" smooth="yes" name="z43l"/>
      <point x="1317" y="600" control_out="1" name="z44l"/>
      <point x="1215" y="769" control_in="1" name="z45l"/>
      <point x="938" y="760" type="curve" name="z46l"/>
      <point added="1" x="938" y="760" control_out="1" name="z47l"/> 
      <point added="2" x="864" y="849" control_in="1" name="z48l"/> 
      <point x="864" y="849" type="line" name="z49l"/>
      <point added="1" x="864" y="849" control_out="1" name="z50l"/> 
      <point added="2" x="494" y="849" control_in="1" name="z51l"/> 
      <point x="494" y="849" type="line" name="z52l"/>
      <point added="1" x="494" y="849" control_out="1" name="z53l"/> 
      <point added="2" x="492" y="625" control_in="1" name="z54l"/> 
      <point x="492" y="625" type="line" name="z55l"/>
      <point added="1" x="492" y="625" control_out="1" name="z56l"/> 
      <point added="2" x="792" y="625" control_in="1" name="z57l"/> 
      <point x="792" y="625" type="line" smooth="yes" name="z58l"/>
      <point x="939" y="625" control_out="1" name="z59l"/>
      <point x="995" y="556" control_in="1" name="z60l"/>
      <point x="995" y="433" type="curve" smooth="yes" name="z61l"/>
      <point x="995" y="317" control_out="1" name="z62l"/>
      <point x="921" y="260" control_in="1" name="z63l"/>
      <point x="772" y="260" type="curve" smooth="yes" name="z64l"/>
      <point added="1" x="772" y="260" control_out="1" name="z65l"/> 
      <point added="2" x="447" y="260" control_in="1" name="z66l"/> 
      <point x="447" y="260" type="line" name="z67l"/>
      <point added="1" x="447" y="260" control_out="1" name="z68l"/> 
      <point added="2" x="327" y="0" control_in="1" name="z69l"/> 
      <point x="327" y="0" type="line" name="z70l"/>
      <point added="1" x="327" y="0" control_out="1" name="z71l"/> 
      <point added="2" x="772" y="0" control_in="1" name="z72l"/> 
    </contour>
    <contour>
      <point x="204" y="1456" type="line" startp="1" name="z73l"/>
      <point added="1" x="204" y="1456" control_out="1" name="z74l"/> 
      <point added="2" x="51" y="1456" control_in="1" name="z75l"/> 
      <point x="51" y="1456" type="line" name="z76l"/>
      <point added="1" x="51" y="1456" control_out="1" name="z77l"/> 
      <point added="2" x="51" y="1256" control_in="1" name="z78l"/> 
      <point x="51" y="1256" type="line" name="z79l"/>
      <point added="1" x="51" y="1256" control_out="1" name="z80l"/> 
      <point added="2" x="204" y="1226" control_in="1" name="z81l"/> 
      <point x="204" y="1226" type="line" name="z82l"/>
      <point added="1" x="204" y="1226" control_out="1" name="z83l"/> 
      <point added="2" x="204" y="1456" control_in="1" name="z84l"/> 
    </contour>
    <contour>
      <point x="204" y="0" type="line" startp="1" name="z85l"/>
      <point added="1" x="204" y="0" control_out="1" name="z86l"/> 
      <point added="2" x="204" y="230" control_in="1" name="z87l"/> 
      <point x="204" y="230" type="line" name="z88l"/>
      <point added="1" x="204" y="230" control_out="1" name="z89l"/> 
      <point added="2" x="51" y="200" control_in="1" name="z90l"/> 
      <point x="51" y="200" type="line" name="z91l"/>
      <point added="1" x="51" y="200" control_out="1" name="z92l"/> 
      <point added="2" x="51" y="0" control_in="1" name="z93l"/> 
      <point x="51" y="0" type="line" name="z94l"/>
      <point added="1" x="51" y="0" control_out="1" name="z95l"/> 
      <point added="2" x="204" y="0" control_in="1" name="z96l"/> 
    </contour>
  </outline>
</glyph>
<glyph name="C" format="1">
  <advance width="1330"/>
  <unicode hex="0043"/>
  <outline>
    <contour>
      <point x="1266" y="1245" type="line" startp="1" name="z1l"/>
      <point x="1140" y="1396" control_out="1" name="z2l"/>
      <point x="952" y="1477" control_in="1" name="z3l"/>
      <point x="719" y="1477" type="curve" smooth="yes" name="z4l"/>
      <point x="326" y="1477" control_out="1" name="z5l"/>
      <point x="47" y="1185" control_in="1" name="z6l"/>
      <point x="47" y="760" type="curve" smooth="yes" name="z7l"/>
      <point added="1" x="47" y="760" control_out="1" name="z8l"/> 
      <point added="2" x="47" y="696" control_in="1" name="z9l"/> 
      <point x="47" y="696" type="line" smooth="yes" name="z10l"/>
      <point x="47" y="271" control_out="1" name="z11l"/>
      <point x="326" y="-21" control_in="1" name="z12l"/>
      <point x="719" y="-21" type="curve" smooth="yes" name="z13l"/>
      <point x="952" y="-21" control_out="1" name="z14l"/>
      <point x="1140" y="60" control_in="1" name="z15l"/>
      <point x="1266" y="211" type="curve" name="z16l"/>
      <point added="1" x="1266" y="211" control_out="1" name="z17l"/> 
      <point added="2" x="1266" y="514" control_in="1" name="z18l"/> 
      <point x="1266" y="514" type="line" name="z19l"/>
      <point added="1" x="1266" y="514" control_out="1" name="z20l"/> 
      <point added="2" x="1024" y="514" control_in="1" name="z21l"/> 
      <point x="1024" y="514" type="line" name="z22l"/>
      <point added="1" x="1024" y="514" control_out="1" name="z23l"/> 
      <point added="2" x="996" y="327" control_in="1" name="z24l"/> 
      <point x="996" y="327" type="line" name="z25l"/>
      <point x="947" y="270" control_out="1" name="z26l"/>
      <point x="850" y="239" control_in="1" name="z27l"/>
      <point x="739" y="239" type="curve" smooth="yes" name="z28l"/>
      <point x="498" y="239" control_out="1" name="z29l"/>
      <point x="369" y="427" control_in="1" name="z30l"/>
      <point x="369" y="696" type="curve" smooth="yes" name="z31l"/>
      <point added="1" x="369" y="696" control_out="1" name="z32l"/> 
      <point added="2" x="369" y="762" control_in="1" name="z33l"/> 
      <point x="369" y="762" type="line" smooth="yes" name="z34l"/>
      <point x="369" y="1032" control_out="1" name="z35l"/>
      <point x="498" y="1217" control_in="1" name="z36l"/>
      <point x="739" y="1217" type="curve" smooth="yes" name="z37l"/>
      <point x="859" y="1217" control_out="1" name="z38l"/>
      <point x="943" y="1186" control_in="1" name="z39l"/>
      <point x="996" y="1129" type="curve" name="z40l"/>
      <point added="1" x="996" y="1129" control_out="1" name="z41l"/> 
      <point added="2" x="1024" y="942" control_in="1" name="z42l"/> 
      <point x="1024" y="942" type="line" name="z43l"/>
      <point added="1" x="1024" y="942" control_out="1" name="z44l"/> 
      <point added="2" x="1266" y="942" control_in="1" name="z45l"/> 
      <point x="1266" y="942" type="line" name="z46l"/>
      <point added="1" x="1266" y="942" control_out="1" name="z47l"/> 
      <point added="2" x="1266" y="1245" control_in="1" name="z48l"/> 
    </contour>
  </outline>
</glyph>
<glyph name="D" format="1">
  <advance width="1409"/>
  <unicode hex="0044"/>
  <outline>
    <contour>
      <point x="721" y="0" type="line" smooth="yes" startp="1" name="z1l"/>
      <point x="1065" y="0" control_out="1" name="z2l"/>
      <point x="1327" y="243" control_in="1" name="z3l"/>
      <point x="1327" y="597" type="curve" smooth="yes" name="z4l"/>
      <point added="1" x="1327" y="597" control_out="1" name="z5l"/> 
      <point added="2" x="1327" y="859" control_in="1" name="z6l"/> 
      <point x="1327" y="859" type="line" smooth="yes" name="z7l"/>
      <point x="1327" y="1213" control_out="1" name="z8l"/>
      <point x="1065" y="1456" control_in="1" name="z9l"/>
      <point x="721" y="1456" type="curve" smooth="yes" name="z10l"/>
      <point added="1" x="721" y="1456" control_out="1" name="z11l"/> 
      <point added="2" x="337" y="1456" control_in="1" name="z12l"/> 
      <point x="337" y="1456" type="line" name="z13l"/>
      <point added="1" x="337" y="1456" control_out="1" name="z14l"/> 
      <point added="2" x="337" y="1196" control_in="1" name="z15l"/> 
      <point x="337" y="1196" type="line" name="z16l"/>
      <point added="1" x="337" y="1196" control_out="1" name="z17l"/> 
      <point added="2" x="701" y="1196" control_in="1" name="z18l"/> 
      <point x="701" y="1196" type="line" smooth="yes" name="z19l"/>
      <point x="895" y="1196" control_out="1" name="z20l"/>
      <point x="1004" y="1059" control_in="1" name="z21l"/>
      <point x="1004" y="861" type="curve" smooth="yes" name="z22l"/>
      <point added="1" x="1004" y="861" control_out="1" name="z23l"/> 
      <point added="2" x="1004" y="597" control_in="1" name="z24l"/> 
      <point x="1004" y="597" type="line" smooth="yes" name="z25l"/>
      <point x="1004" y="399" control_out="1" name="z26l"/>
      <point x="895" y="260" control_in="1" name="z27l"/>
      <point x="701" y="260" type="curve" smooth="yes" name="z28l"/>
      <point added="1" x="701" y="260" control_out="1" name="z29l"/> 
      <point added="2" x="345" y="260" control_in="1" name="z30l"/> 
      <point x="345" y="260" type="line" name="z31l"/>
      <point added="1" x="345" y="260" control_out="1" name="z32l"/> 
      <point added="2" x="343" y="0" control_in="1" name="z33l"/> 
      <point x="343" y="0" type="line" name="z34l"/>
      <point added="1" x="343" y="0" control_out="1" name="z35l"/> 
      <point added="2" x="721" y="0" control_in="1" name="z36l"/> 
    </contour>
    <contour>
      <point x="527" y="1456" type="line" startp="1" name="z37l"/>
      <point added="1" x="527" y="1456" control_out="1" name="z38l"/> 
      <point added="2" x="204" y="1456" control_in="1" name="z39l"/> 
      <point x="204" y="1456" type="line" name="z40l"/>
      <point added="1" x="204" y="1456" control_out="1" name="z41l"/> 
      <point added="2" x="204" y="0" control_in="1" name="z42l"/> 
      <point x="204" y="0" type="line" name="z43l"/>
      <point added="1" x="204" y="0" control_out="1" name="z44l"/> 
      <point added="2" x="527" y="0" control_in="1" name="z45l"/> 
      <point x="527" y="0" type="line" name="z46l"/>
      <point added="1" x="527" y="0" control_out="1" name="z47l"/> 
      <point added="2" x="527" y="1456" control_in="1" name="z48l"/> 
    </contour>
    <contour>
      <point x="204" y="0" type="line" startp="1" name="z49l"/>
      <point added="1" x="204" y="0" control_out="1" name="z50l"/> 
      <point added="2" x="204" y="230" control_in="1" name="z51l"/> 
      <point x="204" y="230" type="line" name="z52l"/>
      <point added="1" x="204" y="230" control_out="1" name="z53l"/> 
      <point added="2" x="51" y="200" control_in="1" name="z54l"/> 
      <point x="51" y="200" type="line" name="z55l"/>
      <point added="1" x="51" y="200" control_out="1" name="z56l"/> 
      <point added="2" x="51" y="0" control_in="1" name="z57l"/> 
      <point x="51" y="0" type="line" name="z58l"/>
      <point added="1" x="51" y="0" control_out="1" name="z59l"/> 
      <point added="2" x="204" y="0" control_in="1" name="z60l"/> 
    </contour>
    <contour>
      <point x="204" y="1456" type="line" startp="1" name="z61l"/>
      <point added="1" x="204" y="1456" control_out="1" name="z62l"/> 
      <point added="2" x="51" y="1456" control_in="1" name="z63l"/> 
      <point x="51" y="1456" type="line" name="z64l"/>
      <point added="1" x="51" y="1456" control_out="1" name="z65l"/> 
      <point added="2" x="51" y="1256" control_in="1" name="z66l"/> 
      <point x="51" y="1256" type="line" name="z67l"/>
      <point added="1" x="51" y="1256" control_out="1" name="z68l"/> 
      <point added="2" x="204" y="1226" control_in="1" name="z69l"/> 
      <point x="204" y="1226" type="line" name="z70l"/>
      <point added="1" x="204" y="1226" control_out="1" name="z71l"/> 
      <point added="2" x="204" y="1456" control_in="1" name="z72l"/> 
    </contour>
  </outline>
</glyph>
<glyph name="E" format="1">
  <advance width="1309"/>
  <unicode hex="0045"/>
  <outline>
    <contour>
      <point x="1211" y="260" type="line" startp="1" name="z1l"/>
      <point added="1" x="1211" y="260" control_out="1" name="z2l"/> 
      <point added="2" x="419" y="260" control_in="1" name="z3l"/> 
      <point x="419" y="260" type="line" name="z4l"/>
      <point added="1" x="419" y="260" control_out="1" name="z5l"/> 
      <point added="2" x="419" y="0" control_in="1" name="z6l"/> 
      <point x="419" y="0" type="line" name="z7l"/>
      <point added="1" x="419" y="0" control_out="1" name="z8l"/> 
      <point added="2" x="1211" y="0" control_in="1" name="z9l"/> 
      <point x="1211" y="0" type="line" name="z10l"/>
      <point added="1" x="1211" y="0" control_out="1" name="z11l"/> 
      <point added="2" x="1211" y="260" control_in="1" name="z12l"/> 
    </contour>
    <contour>
      <point x="527" y="1456" type="line" startp="1" name="z13l"/>
      <point added="1" x="527" y="1456" control_out="1" name="z14l"/> 
      <point added="2" x="204" y="1456" control_in="1" name="z15l"/> 
      <point x="204" y="1456" type="line" name="z16l"/>
      <point added="1" x="204" y="1456" control_out="1" name="z17l"/> 
      <point added="2" x="204" y="0" control_in="1" name="z18l"/> 
      <point x="204" y="0" type="line" name="z19l"/>
      <point added="1" x="204" y="0" control_out="1" name="z20l"/> 
      <point added="2" x="527" y="0" control_in="1" name="z21l"/> 
      <point x="527" y="0" type="line" name="z22l"/>
      <point added="1" x="527" y="0" control_out="1" name="z23l"/> 
      <point added="2" x="527" y="1456" control_in="1" name="z24l"/> 
    </contour>
    <contour>
      <point x="999" y="883" type="line" startp="1" name="z25l"/>
      <point added="1" x="999" y="883" control_out="1" name="z26l"/> 
      <point added="2" x="419" y="883" control_in="1" name="z27l"/> 
      <point x="419" y="883" type="line" name="z28l"/>
      <point added="1" x="419" y="883" control_out="1" name="z29l"/> 
      <point added="2" x="419" y="623" control_in="1" name="z30l"/> 
      <point x="419" y="623" type="line" name="z31l"/>
      <point added="1" x="419" y="623" control_out="1" name="z32l"/> 
      <point added="2" x="999" y="623" control_in="1" name="z33l"/> 
      <point x="999" y="623" type="line" name="z34l"/>
      <point added="1" x="999" y="623" control_out="1" name="z35l"/> 
      <point added="2" x="999" y="883" control_in="1" name="z36l"/> 
    </contour>
    <contour>
      <point x="1211" y="1456" type="line" startp="1" name="z37l"/>
      <point added="1" x="1211" y="1456" control_out="1" name="z38l"/> 
      <point added="2" x="419" y="1456" control_in="1" name="z39l"/> 
      <point x="419" y="1456" type="line" name="z40l"/>
      <point added="1" x="419" y="1456" control_out="1" name="z41l"/> 
      <point added="2" x="419" y="1196" control_in="1" name="z42l"/> 
      <point x="419" y="1196" type="line" name="z43l"/>
      <point added="1" x="419" y="1196" control_out="1" name="z44l"/> 
      <point added="2" x="1211" y="1196" control_in="1" name="z45l"/> 
      <point x="1211" y="1196" type="line" name="z46l"/>
      <point added="1" x="1211" y="1196" control_out="1" name="z47l"/> 
      <point added="2" x="1211" y="1456" control_in="1" name="z48l"/> 
    </contour>
    <contour>
      <point x="1211" y="1456" type="line" startp="1" name="z49l"/>
      <point added="1" x="1211" y="1456" control_out="1" name="z50l"/> 
      <point added="2" x="941" y="1456" control_in="1" name="z51l"/> 
      <point x="941" y="1456" type="line" name="z52l"/>
      <point added="1" x="941" y="1456" control_out="1" name="z53l"/> 
      <point added="2" x="970" y="1033" control_in="1" name="z54l"/> 
      <point x="970" y="1033" type="line" name="z55l"/>
      <point added="1" x="970" y="1033" control_out="1" name="z56l"/> 
      <point added="2" x="1211" y="1033" control_in="1" name="z57l"/> 
      <point x="1211" y="1033" type="line" name="z58l"/>
      <point added="1" x="1211" y="1033" control_out="1" name="z59l"/> 
      <point added="2" x="1211" y="1456" control_in="1" name="z60l"/> 
    </contour>
    <contour>
      <point x="204" y="0" type="line" startp="1" name="z61l"/>
      <point added="1" x="204" y="0" control_out="1" name="z62l"/> 
      <point added="2" x="204" y="230" control_in="1" name="z63l"/> 
      <point x="204" y="230" type="line" name="z64l"/>
      <point added="1" x="204" y="230" control_out="1" name="z65l"/> 
      <point added="2" x="51" y="200" control_in="1" name="z66l"/> 
      <point x="51" y="200" type="line" name="z67l"/>
      <point added="1" x="51" y="200" control_out="1" name="z68l"/> 
      <point added="2" x="51" y="0" control_in="1" name="z69l"/> 
      <point x="51" y="0" type="line" name="z70l"/>
      <point added="1" x="51" y="0" control_out="1" name="z71l"/> 
      <point added="2" x="204" y="0" control_in="1" name="z72l"/> 
    </contour>
    <contour>
      <point x="204" y="1456" type="line" startp="1" name="z73l"/>
      <point added="1" x="204" y="1456" control_out="1" name="z74l"/> 
      <point added="2" x="51" y="1456" control_in="1" name="z75l"/> 
      <point x="51" y="1456" type="line" name="z76l"/>
      <point added="1" x="51" y="1456" control_out="1" name="z77l"/> 
      <point added="2" x="51" y="1256" control_in="1" name="z78l"/> 
      <point x="51" y="1256" type="line" name="z79l"/>
      <point added="1" x="51" y="1256" control_out="1" name="z80l"/> 
      <point added="2" x="204" y="1226" control_in="1" name="z81l"/> 
      <point x="204" y="1226" type="line" name="z82l"/>
      <point added="1" x="204" y="1226" control_out="1" name="z83l"/> 
      <point added="2" x="204" y="1456" control_in="1" name="z84l"/> 
    </contour>
    <contour>
      <point x="1211" y="0" type="line" startp="1" name="z85l"/>
      <point added="1" x="1211" y="0" control_out="1" name="z86l"/> 
      <point added="2" x="1211" y="423" control_in="1" name="z87l"/> 
      <point x="1211" y="423" type="line" name="z88l"/>
      <point added="1" x="1211" y="423" control_out="1" name="z89l"/> 
      <point added="2" x="971" y="423" control_in="1" name="z90l"/> 
      <point x="971" y="423" type="line" name="z91l"/>
      <point added="1" x="971" y="423" control_out="1" name="z92l"/> 
      <point added="2" x="941" y="0" control_in="1" name="z93l"/> 
      <point x="941" y="0" type="line" name="z94l"/>
      <point added="1" x="941" y="0" control_out="1" name="z95l"/> 
      <point added="2" x="1211" y="0" control_in="1" name="z96l"/> 
    </contour>
  </outline>
</glyph>
<glyph name="G" format="1">
  <advance width="1343"/>
  <unicode hex="0047"/>
  <outline>
    <contour>
      <point x="1274" y="738" type="line" startp="1" name="z1l"/>
      <point added="1" x="1274" y="738" control_out="1" name="z2l"/> 
      <point added="2" x="752" y="738" control_in="1" name="z3l"/> 
      <point x="752" y="738" type="line" name="z4l"/>
      <point added="1" x="752" y="738" control_out="1" name="z5l"/> 
      <point added="2" x="752" y="504" control_in="1" name="z6l"/> 
      <point x="752" y="504" type="line" name="z7l"/>
      <point added="1" x="752" y="504" control_out="1" name="z8l"/> 
      <point added="2" x="951" y="484" control_in="1" name="z9l"/> 
      <point x="951" y="484" type="line" name="z10l"/>
      <point added="1" x="951" y="484" control_out="1" name="z11l"/> 
      <point added="2" x="951" y="274" control_in="1" name="z12l"/> 
      <point x="951" y="274" type="line" name="z13l"/>
      <point x="923" y="256" control_out="1" name="z14l"/>
      <point x="869" y="239" control_in="1" name="z15l"/>
      <point x="751" y="239" type="curve" smooth="yes" name="z16l"/>
      <point x="490" y="239" control_out="1" name="z17l"/>
      <point x="367" y="419" control_in="1" name="z18l"/>
      <point x="367" y="676" type="curve" smooth="yes" name="z19l"/>
      <point added="1" x="367" y="676" control_out="1" name="z20l"/> 
      <point added="2" x="367" y="742" control_in="1" name="z21l"/> 
      <point x="367" y="742" type="line" smooth="yes" name="z22l"/>
      <point x="367" y="1024" control_out="1" name="z23l"/>
      <point x="502" y="1217" control_in="1" name="z24l"/>
      <point x="741" y="1217" type="curve" smooth="yes" name="z25l"/>
      <point x="852" y="1217" control_out="1" name="z26l"/>
      <point x="939" y="1193" control_in="1" name="z27l"/>
      <point x="988" y="1149" type="curve" name="z28l"/>
      <point added="1" x="988" y="1149" control_out="1" name="z29l"/> 
      <point added="2" x="1026" y="957" control_in="1" name="z30l"/> 
      <point x="1026" y="957" type="line" name="z31l"/>
      <point added="1" x="1026" y="957" control_out="1" name="z32l"/> 
      <point added="2" x="1268" y="957" control_in="1" name="z33l"/> 
      <point x="1268" y="957" type="line" name="z34l"/>
      <point added="1" x="1268" y="957" control_out="1" name="z35l"/> 
      <point added="2" x="1268" y="1265" control_in="1" name="z36l"/> 
      <point x="1268" y="1265" type="line" name="z37l"/>
      <point x="1141" y="1397" control_out="1" name="z38l"/>
      <point x="939" y="1477" control_in="1" name="z39l"/>
      <point x="701" y="1477" type="curve" smooth="yes" name="z40l"/>
      <point x="313" y="1477" control_out="1" name="z41l"/>
      <point x="45" y="1177" control_in="1" name="z42l"/>
      <point x="45" y="740" type="curve" smooth="yes" name="z43l"/>
      <point added="1" x="45" y="740" control_out="1" name="z44l"/> 
      <point added="2" x="45" y="676" control_in="1" name="z45l"/> 
      <point x="45" y="676" type="line" smooth="yes" name="z46l"/>
      <point x="45" y="263" control_out="1" name="z47l"/>
      <point x="318" y="-21" control_in="1" name="z48l"/>
      <point x="711" y="-21" type="curve" smooth="yes" name="z49l"/>
      <point x="1029" y="-21" control_out="1" name="z50l"/>
      <point x="1202" y="87" control_in="1" name="z51l"/>
      <point x="1274" y="161" type="curve" name="z52l"/>
      <point added="1" x="1274" y="161" control_out="1" name="z53l"/> 
      <point added="2" x="1274" y="738" control_in="1" name="z54l"/> 
    </contour>
  </outline>
</glyph>
<glyph name="I" format="1">
  <advance width="730"/>
  <unicode hex="0049"/>
  <outline>
    <contour>
      <point x="526" y="1456" type="line"/>
      <point x="204" y="1456" type="line"/>
      <point x="204" y="0" type="line"/>
      <point x="526" y="0" type="line"/>
    </contour>
    <contour>
      <point x="204" y="0" type="line"/>
      <point x="204" y="230" type="line"/>
      <point x="51" y="200" type="line"/>
      <point x="51" y="0" type="line"/>
    </contour>
    <contour>
      <point x="526" y="0" type="line"/>
      <point x="679" y="0" type="line"/>
      <point x="679" y="200" type="line"/>
      <point x="526" y="230" type="line"/>
    </contour>
    <contour>
      <point x="526" y="1456" type="line"/>
      <point x="526" y="1226" type="line"/>
      <point x="679" y="1256" type="line"/>
      <point x="679" y="1456" type="line"/>
    </contour>
    <contour>
      <point x="204" y="1456" type="line"/>
      <point x="51" y="1456" type="line"/>
      <point x="51" y="1256" type="line"/>
      <point x="204" y="1226" type="line"/>
    </contour>
  </outline>
</glyph>
<glyph name="J" format="1">
  <advance width="1195"/>
  <unicode hex="004A"/>
  <outline>
    <contour>
      <point x="703" y="457" type="line" smooth="yes" startp="1" name="z1l"/>
      <point x="703" y="312" control_out="1" name="z2l"/>
      <point x="618" y="239" control_in="1" name="z3l"/>
      <point x="526" y="239" type="curve" smooth="yes" name="z4l"/>
      <point x="427" y="239" control_out="1" name="z5l"/>
      <point x="342" y="285" control_in="1" name="z6l"/>
      <point x="342" y="436" type="curve" name="z7l"/>
      <point added="1" x="342" y="436" control_out="1" name="z8l"/> 
      <point added="2" x="19" y="436" control_in="1" name="z9l"/> 
      <point x="19" y="436" type="line" name="z10l"/>
      <point x="19" y="123" control_out="1" name="z11l"/>
      <point x="227" y="-21" control_in="1" name="z12l"/>
      <point x="526" y="-21" type="curve" smooth="yes" name="z13l"/>
      <point x="805" y="-21" control_out="1" name="z14l"/>
      <point x="1025" y="156" control_in="1" name="z15l"/>
      <point x="1025" y="457" type="curve" smooth="yes" name="z16l"/>
      <point added="1" x="1025" y="457" control_out="1" name="z17l"/> 
      <point added="2" x="1025" y="1456" control_in="1" name="z18l"/> 
      <point x="1025" y="1456" type="line" name="z19l"/>
      <point added="1" x="1025" y="1456" control_out="1" name="z20l"/> 
      <point added="2" x="703" y="1456" control_in="1" name="z21l"/> 
      <point x="703" y="1456" type="line" name="z22l"/>
      <point added="1" x="703" y="1456" control_out="1" name="z23l"/> 
      <point added="2" x="703" y="457" control_in="1" name="z24l"/> 
    </contour>
    <contour>
      <point x="1025" y="1456" type="line" startp="1" name="z25l"/>
      <point added="1" x="1025" y="1456" control_out="1" name="z26l"/> 
      <point added="2" x="1025" y="1226" control_in="1" name="z27l"/> 
      <point x="1025" y="1226" type="line" name="z28l"/>
      <point added="1" x="1025" y="1226" control_out="1" name="z29l"/> 
      <point added="2" x="1178" y="1256" control_in="1" name="z30l"/> 
      <point x="1178" y="1256" type="line" name="z31l"/>
      <point added="1" x="1178" y="1256" control_out="1" name="z32l"/> 
      <point added="2" x="1178" y="1456" control_in="1" name="z33l"/> 
      <point x="1178" y="1456" type="line" name="z34l"/>
      <point added="1" x="1178" y="1456" control_out="1" name="z35l"/> 
      <point added="2" x="1025" y="1456" control_in="1" name="z36l"/> 
    </contour>
    <contour>
      <point x="703" y="1456" type="line" startp="1" name="z37l"/>
      <point added="1" x="703" y="1456" control_out="1" name="z38l"/> 
      <point added="2" x="550" y="1456" control_in="1" name="z39l"/> 
      <point x="550" y="1456" type="line" name="z40l"/>
      <point added="1" x="550" y="1456" control_out="1" name="z41l"/> 
      <point added="2" x="550" y="1256" control_in="1" name="z42l"/> 
      <point x="550" y="1256" type="line" name="z43l"/>
      <point added="1" x="550" y="1256" control_out="1" name="z44l"/> 
      <point added="2" x="703" y="1226" control_in="1" name="z45l"/> 
      <point x="703" y="1226" type="line" name="z46l"/>
      <point added="1" x="703" y="1226" control_out="1" name="z47l"/> 
      <point added="2" x="703" y="1456" control_in="1" name="z48l"/> 
    </contour>
  </outline>
</glyph>
<glyph name="K" format="1">
  <advance width="1468"/>
  <unicode hex="004B"/>
  <outline>
    <contour>
      <point x="527" y="1456" type="line" startp="1" name="z1l"/>
      <point added="1" x="527" y="1456" control_out="1" name="z2l"/> 
      <point added="2" x="204" y="1456" control_in="1" name="z3l"/> 
      <point x="204" y="1456" type="line" name="z4l"/>
      <point added="1" x="204" y="1456" control_out="1" name="z5l"/> 
      <point added="2" x="204" y="0" control_in="1" name="z6l"/> 
      <point x="204" y="0" type="line" name="z7l"/>
      <point added="1" x="204" y="0" control_out="1" name="z8l"/> 
      <point added="2" x="527" y="0" control_in="1" name="z9l"/> 
      <point x="527" y="0" type="line" name="z10l"/>
      <point added="1" x="527" y="0" control_out="1" name="z11l"/> 
      <point added="2" x="527" y="1456" control_in="1" name="z12l"/> 
    </contour>
    <contour>
      <point x="1417" y="1456" type="line" startp="1" name="z13l"/>
      <point added="1" x="1417" y="1456" control_out="1" name="z14l"/> 
      <point added="2" x="1018" y="1456" control_in="1" name="z15l"/> 
      <point x="1018" y="1456" type="line" name="z16l"/>
      <point added="1" x="1018" y="1456" control_out="1" name="z17l"/> 
      <point added="2" x="646" y="886" control_in="1" name="z18l"/> 
      <point x="646" y="886" type="line" name="z19l"/>
      <point added="1" x="646" y="886" control_out="1" name="z20l"/> 
      <point added="2" x="421" y="886" control_in="1" name="z21l"/> 
      <point x="421" y="886" type="line" name="z22l"/>
      <point added="1" x="421" y="886" control_out="1" name="z23l"/> 
      <point added="2" x="461" y="584" control_in="1" name="z24l"/> 
      <point x="461" y="584" type="line" name="z25l"/>
      <point added="1" x="461" y="584" control_out="1" name="z26l"/> 
      <point added="2" x="785" y="584" control_in="1" name="z27l"/> 
      <point x="785" y="584" type="line" name="z28l"/>
      <point added="1" x="785" y="584" control_out="1" name="z29l"/> 
      <point added="2" x="1417" y="1456" control_in="1" name="z30l"/> 
    </contour>
    <contour>
      <point x="1053" y="0" type="line" startp="1" name="z31l"/>
      <point added="1" x="1053" y="0" control_out="1" name="z32l"/> 
      <point added="2" x="1446" y="0" control_in="1" name="z33l"/> 
      <point x="1446" y="0" type="line" name="z34l"/>
      <point added="1" x="1446" y="0" control_out="1" name="z35l"/> 
      <point added="2" x="902" y="818" control_in="1" name="z36l"/> 
      <point x="902" y="818" type="line" name="z37l"/>
      <point added="1" x="902" y="818" control_out="1" name="z38l"/> 
      <point added="2" x="654" y="641" control_in="1" name="z39l"/> 
      <point x="654" y="641" type="line" name="z40l"/>
      <point added="1" x="654" y="641" control_out="1" name="z41l"/> 
      <point added="2" x="1053" y="0" control_in="1" name="z42l"/> 
    </contour>
    <contour>
      <point x="1053" y="0" type="line" startp="1" name="z43l"/>
      <point added="1" x="1053" y="0" control_out="1" name="z44l"/> 
      <point added="2" x="1053" y="230" control_in="1" name="z45l"/> 
      <point x="1053" y="230" type="line" name="z46l"/>
      <point added="1" x="1053" y="230" control_out="1" name="z47l"/> 
      <point added="2" x="840" y="200" control_in="1" name="z48l"/> 
      <point x="840" y="200" type="line" name="z49l"/>
      <point added="1" x="840" y="200" control_out="1" name="z50l"/> 
      <point added="2" x="840" y="0" control_in="1" name="z51l"/> 
      <point x="840" y="0" type="line" name="z52l"/>
      <point added="1" x="840" y="0" control_out="1" name="z53l"/> 
      <point added="2" x="1053" y="0" control_in="1" name="z54l"/> 
    </contour>
    <contour>
      <point x="1446" y="0" type="line" startp="1" name="z55l"/>
      <point added="1" x="1446" y="0" control_out="1" name="z56l"/> 
      <point added="2" x="1449" y="0" control_in="1" name="z57l"/> 
      <point x="1449" y="0" type="line" name="z58l"/>
      <point added="1" x="1449" y="0" control_out="1" name="z59l"/> 
      <point added="2" x="1449" y="200" control_in="1" name="z60l"/> 
      <point x="1449" y="200" type="line" name="z61l"/>
      <point added="1" x="1449" y="200" control_out="1" name="z62l"/> 
      <point added="2" x="1266" y="230" control_in="1" name="z63l"/> 
      <point x="1266" y="230" type="line" name="z64l"/>
      <point added="1" x="1266" y="230" control_out="1" name="z65l"/> 
      <point added="2" x="1446" y="0" control_in="1" name="z66l"/> 
    </contour>
    <contour>
      <point x="1018" y="1456" type="line" startp="1" name="z67l"/>
      <point added="1" x="1018" y="1456" control_out="1" name="z68l"/> 
      <point added="2" x="806" y="1456" control_in="1" name="z69l"/> 
      <point x="806" y="1456" type="line" name="z70l"/>
      <point added="1" x="806" y="1456" control_out="1" name="z71l"/> 
      <point added="2" x="806" y="1256" control_in="1" name="z72l"/> 
      <point x="806" y="1256" type="line" name="z73l"/>
      <point added="1" x="806" y="1256" control_out="1" name="z74l"/> 
      <point added="2" x="1018" y="1226" control_in="1" name="z75l"/> 
      <point x="1018" y="1226" type="line" name="z76l"/>
      <point added="1" x="1018" y="1226" control_out="1" name="z77l"/> 
      <point added="2" x="1018" y="1456" control_in="1" name="z78l"/> 
    </contour>
    <contour>
      <point x="1417" y="1456" type="line" startp="1" name="z79l"/>
      <point added="1" x="1417" y="1456" control_out="1" name="z80l"/> 
      <point added="2" x="1237" y="1226" control_in="1" name="z81l"/> 
      <point x="1237" y="1226" type="line" name="z82l"/>
      <point added="1" x="1237" y="1226" control_out="1" name="z83l"/> 
      <point added="2" x="1421" y="1256" control_in="1" name="z84l"/> 
      <point x="1421" y="1256" type="line" name="z85l"/>
      <point added="1" x="1421" y="1256" control_out="1" name="z86l"/> 
      <point added="2" x="1421" y="1456" control_in="1" name="z87l"/> 
      <point x="1421" y="1456" type="line" name="z88l"/>
      <point added="1" x="1421" y="1456" control_out="1" name="z89l"/> 
      <point added="2" x="1417" y="1456" control_in="1" name="z90l"/> 
    </contour>
    <contour>
      <point x="204" y="0" type="line" startp="1" name="z91l"/>
      <point added="1" x="204" y="0" control_out="1" name="z92l"/> 
      <point added="2" x="204" y="230" control_in="1" name="z93l"/> 
      <point x="204" y="230" type="line" name="z94l"/>
      <point added="1" x="204" y="230" control_out="1" name="z95l"/> 
      <point added="2" x="51" y="200" control_in="1" name="z96l"/> 
      <point x="51" y="200" type="line" name="z97l"/>
      <point added="1" x="51" y="200" control_out="1" name="z98l"/> 
      <point added="2" x="51" y="0" control_in="1" name="z99l"/> 
      <point x="51" y="0" type="line" name="z100l"/>
      <point added="1" x="51" y="0" control_out="1" name="z101l"/> 
      <point added="2" x="204" y="0" control_in="1" name="z102l"/> 
    </contour>
    <contour>
      <point x="527" y="0" type="line" startp="1" name="z103l"/>
      <point added="1" x="527" y="0" control_out="1" name="z104l"/> 
      <point added="2" x="670" y="0" control_in="1" name="z105l"/> 
      <point x="670" y="0" type="line" name="z106l"/>
      <point added="1" x="670" y="0" control_out="1" name="z107l"/> 
      <point added="2" x="670" y="200" control_in="1" name="z108l"/> 
      <point x="670" y="200" type="line" name="z109l"/>
      <point added="1" x="670" y="200" control_out="1" name="z110l"/> 
      <point added="2" x="527" y="230" control_in="1" name="z111l"/> 
      <point x="527" y="230" type="line" name="z112l"/>
      <point added="1" x="527" y="230" control_out="1" name="z113l"/> 
      <point added="2" x="527" y="0" control_in="1" name="z114l"/> 
    </contour>
    <contour>
      <point x="527" y="1456" type="line" startp="1" name="z115l"/>
      <point added="1" x="527" y="1456" control_out="1" name="z116l"/> 
      <point added="2" x="527" y="1226" control_in="1" name="z117l"/> 
      <point x="527" y="1226" type="line" name="z118l"/>
      <point added="1" x="527" y="1226" control_out="1" name="z119l"/> 
      <point added="2" x="670" y="1256" control_in="1" name="z120l"/> 
      <point x="670" y="1256" type="line" name="z121l"/>
      <point added="1" x="670" y="1256" control_out="1" name="z122l"/> 
      <point added="2" x="670" y="1456" control_in="1" name="z123l"/> 
      <point x="670" y="1456" type="line" name="z124l"/>
      <point added="1" x="670" y="1456" control_out="1" name="z125l"/> 
      <point added="2" x="527" y="1456" control_in="1" name="z126l"/> 
    </contour>
    <contour>
      <point x="204" y="1456" type="line" startp="1" name="z127l"/>
      <point added="1" x="204" y="1456" control_out="1" name="z128l"/> 
      <point added="2" x="51" y="1456" control_in="1" name="z129l"/> 
      <point x="51" y="1456" type="line" name="z130l"/>
      <point added="1" x="51" y="1456" control_out="1" name="z131l"/> 
      <point added="2" x="51" y="1256" control_in="1" name="z132l"/> 
      <point x="51" y="1256" type="line" name="z133l"/>
      <point added="1" x="51" y="1256" control_out="1" name="z134l"/> 
      <point added="2" x="204" y="1226" control_in="1" name="z135l"/> 
      <point x="204" y="1226" type="line" name="z136l"/>
      <point added="1" x="204" y="1226" control_out="1" name="z137l"/> 
      <point added="2" x="204" y="1456" control_in="1" name="z138l"/> 
    </contour>
  </outline>
</glyph>
<glyph name="M" format="1">
  <advance width="1937"/>
  <unicode hex="004D"/>
  <outline>
    <contour>
      <point x="357" y="1456" type="line" startp="1" name="z1l"/>
      <point added="1" x="357" y="1456" control_out="1" name="z2l"/> 
      <point added="2" x="863" y="0" control_in="1" name="z3l"/> 
      <point x="863" y="0" type="line" name="z4l"/>
      <point added="1" x="863" y="0" control_out="1" name="z5l"/> 
      <point added="2" x="1080" y="0" control_in="1" name="z6l"/> 
      <point x="1080" y="0" type="line" name="z7l"/>
      <point added="1" x="1080" y="0" control_out="1" name="z8l"/> 
      <point added="2" x="1588" y="1456" control_in="1" name="z9l"/> 
      <point x="1588" y="1456" type="line" name="z10l"/>
      <point added="1" x="1588" y="1456" control_out="1" name="z11l"/> 
      <point added="2" x="1318" y="1456" control_in="1" name="z12l"/> 
      <point x="1318" y="1456" type="line" name="z13l"/>
      <point added="1" x="1318" y="1456" control_out="1" name="z14l"/> 
      <point added="2" x="971" y="428" control_in="1" name="z15l"/> 
      <point x="971" y="428" type="line" name="z16l"/>
      <point added="1" x="971" y="428" control_out="1" name="z17l"/> 
      <point added="2" x="627" y="1456" control_in="1" name="z18l"/> 
      <point x="627" y="1456" type="line" name="z19l"/>
      <point added="1" x="627" y="1456" control_out="1" name="z20l"/> 
      <point added="2" x="357" y="1456" control_in="1" name="z21l"/> 
    </contour>
    <contour>
      <point x="204" y="1456" type="line" startp="1" name="z22l"/>
      <point added="1" x="204" y="1456" control_out="1" name="z23l"/> 
      <point added="2" x="204" y="0" control_in="1" name="z24l"/> 
      <point x="204" y="0" type="line" name="z25l"/>
      <point added="1" x="204" y="0" control_out="1" name="z26l"/> 
      <point added="2" x="527" y="0" control_in="1" name="z27l"/> 
      <point x="527" y="0" type="line" name="z28l"/>
      <point added="1" x="527" y="0" control_out="1" name="z29l"/> 
      <point added="2" x="527" y="361" control_in="1" name="z30l"/> 
      <point x="527" y="361" type="line" name="z31l"/>
      <point added="1" x="527" y="361" control_out="1" name="z32l"/> 
      <point added="2" x="477" y="1456" control_in="1" name="z33l"/> 
      <point x="477" y="1456" type="line" name="z34l"/>
      <point added="1" x="477" y="1456" control_out="1" name="z35l"/> 
      <point added="2" x="204" y="1456" control_in="1" name="z36l"/> 
    </contour>
    <contour>
      <point x="1470" y="1456" type="line" startp="1" name="z37l"/>
      <point added="1" x="1470" y="1456" control_out="1" name="z38l"/> 
      <point added="2" x="1420" y="361" control_in="1" name="z39l"/> 
      <point x="1420" y="361" type="line" name="z40l"/>
      <point added="1" x="1420" y="361" control_out="1" name="z41l"/> 
      <point added="2" x="1420" y="0" control_in="1" name="z42l"/> 
      <point x="1420" y="0" type="line" name="z43l"/>
      <point added="1" x="1420" y="0" control_out="1" name="z44l"/> 
      <point added="2" x="1743" y="0" control_in="1" name="z45l"/> 
      <point x="1743" y="0" type="line" name="z46l"/>
      <point added="1" x="1743" y="0" control_out="1" name="z47l"/> 
      <point added="2" x="1743" y="1456" control_in="1" name="z48l"/> 
      <point x="1743" y="1456" type="line" name="z49l"/>
      <point added="1" x="1743" y="1456" control_out="1" name="z50l"/> 
      <point added="2" x="1470" y="1456" control_in="1" name="z51l"/> 
    </contour>
    <contour>
      <point x="1420" y="0" type="line" startp="1" name="z52l"/>
      <point added="1" x="1420" y="0" control_out="1" name="z53l"/> 
      <point added="2" x="1420" y="230" control_in="1" name="z54l"/> 
      <point x="1420" y="230" type="line" name="z55l"/>
      <point added="1" x="1420" y="230" control_out="1" name="z56l"/> 
      <point added="2" x="1267" y="200" control_in="1" name="z57l"/> 
      <point x="1267" y="200" type="line" name="z58l"/>
      <point added="1" x="1267" y="200" control_out="1" name="z59l"/> 
      <point added="2" x="1267" y="0" control_in="1" name="z60l"/> 
      <point x="1267" y="0" type="line" name="z61l"/>
      <point added="1" x="1267" y="0" control_out="1" name="z62l"/> 
      <point added="2" x="1420" y="0" control_in="1" name="z63l"/> 
    </contour>
    <contour>
      <point x="1743" y="0" type="line" startp="1" name="z64l"/>
      <point added="1" x="1743" y="0" control_out="1" name="z65l"/> 
      <point added="2" x="1896" y="0" control_in="1" name="z66l"/> 
      <point x="1896" y="0" type="line" name="z67l"/>
      <point added="1" x="1896" y="0" control_out="1" name="z68l"/> 
      <point added="2" x="1896" y="200" control_in="1" name="z69l"/> 
      <point x="1896" y="200" type="line" name="z70l"/>
      <point added="1" x="1896" y="200" control_out="1" name="z71l"/> 
      <point added="2" x="1743" y="230" control_in="1" name="z72l"/> 
      <point x="1743" y="230" type="line" name="z73l"/>
      <point added="1" x="1743" y="230" control_out="1" name="z74l"/> 
      <point added="2" x="1743" y="0" control_in="1" name="z75l"/> 
    </contour>
    <contour>
      <point x="1743" y="1456" type="line" startp="1" name="z76l"/>
      <point added="1" x="1743" y="1456" control_out="1" name="z77l"/> 
      <point added="2" x="1743" y="1226" control_in="1" name="z78l"/> 
      <point x="1743" y="1226" type="line" name="z79l"/>
      <point added="1" x="1743" y="1226" control_out="1" name="z80l"/> 
      <point added="2" x="1896" y="1256" control_in="1" name="z81l"/> 
      <point x="1896" y="1256" type="line" name="z82l"/>
      <point added="1" x="1896" y="1256" control_out="1" name="z83l"/> 
      <point added="2" x="1896" y="1456" control_in="1" name="z84l"/> 
      <point x="1896" y="1456" type="line" name="z85l"/>
      <point added="1" x="1896" y="1456" control_out="1" name="z86l"/> 
      <point added="2" x="1743" y="1456" control_in="1" name="z87l"/> 
    </contour>
    <contour>
      <point x="527" y="0" type="line" startp="1" name="z88l"/>
      <point added="1" x="527" y="0" control_out="1" name="z89l"/> 
      <point added="2" x="680" y="0" control_in="1" name="z90l"/> 
      <point x="680" y="0" type="line" name="z91l"/>
      <point added="1" x="680" y="0" control_out="1" name="z92l"/> 
      <point added="2" x="680" y="200" control_in="1" name="z93l"/> 
      <point x="680" y="200" type="line" name="z94l"/>
      <point added="1" x="680" y="200" control_out="1" name="z95l"/> 
      <point added="2" x="527" y="230" control_in="1" name="z96l"/> 
      <point x="527" y="230" type="line" name="z97l"/>
      <point added="1" x="527" y="230" control_out="1" name="z98l"/> 
      <point added="2" x="527" y="0" control_in="1" name="z99l"/> 
    </contour>
    <contour>
      <point x="204" y="0" type="line" startp="1" name="z100l"/>
      <point added="1" x="204" y="0" control_out="1" name="z101l"/> 
      <point added="2" x="204" y="230" control_in="1" name="z102l"/> 
      <point x="204" y="230" type="line" name="z103l"/>
      <point added="1" x="204" y="230" control_out="1" name="z104l"/> 
      <point added="2" x="51" y="200" control_in="1" name="z105l"/> 
      <point x="51" y="200" type="line" name="z106l"/>
      <point added="1" x="51" y="200" control_out="1" name="z107l"/> 
      <point added="2" x="51" y="0" control_in="1" name="z108l"/> 
      <point x="51" y="0" type="line" name="z109l"/>
      <point added="1" x="51" y="0" control_out="1" name="z110l"/> 
      <point added="2" x="204" y="0" control_in="1" name="z111l"/> 
    </contour>
    <contour>
      <point x="204" y="1456" type="line" startp="1" name="z112l"/>
      <point added="1" x="204" y="1456" control_out="1" name="z113l"/> 
      <point added="2" x="51" y="1456" control_in="1" name="z114l"/> 
      <point x="51" y="1456" type="line" name="z115l"/>
      <point added="1" x="51" y="1456" control_out="1" name="z116l"/> 
      <point added="2" x="51" y="1256" control_in="1" name="z117l"/> 
      <point x="51" y="1256" type="line" name="z118l"/>
      <point added="1" x="51" y="1256" control_out="1" name="z119l"/> 
      <point added="2" x="204" y="1226" control_in="1" name="z120l"/> 
      <point x="204" y="1226" type="line" name="z121l"/>
      <point added="1" x="204" y="1226" control_out="1" name="z122l"/> 
      <point added="2" x="204" y="1456" control_in="1" name="z123l"/> 
    </contour>
  </outline>
</glyph>
<glyph name="O" format="1">
  <advance width="1450"/>
  <unicode hex="004F"/>
  <outline>
    <contour>
      <point x="1394" y="739" type="line" smooth="yes" startp="1" name="z1l"/>
      <point x="1394" y="1159" control_out="1" name="z2l"/>
      <point x="1133" y="1477" control_in="1" name="z3l"/>
      <point x="728" y="1477" type="curve" smooth="yes" name="z4l"/>
      <point x="323" y="1477" control_out="1" name="z5l"/>
      <point x="64" y="1159" control_in="1" name="z6l"/>
      <point x="64" y="739" type="curve" smooth="yes" name="z7l"/>
      <point added="1" x="64" y="739" control_out="1" name="z8l"/> 
      <point added="2" x="64" y="717" control_in="1" name="z9l"/> 
      <point x="64" y="717" type="line" smooth="yes" name="z10l"/>
      <point x="64" y="297" control_out="1" name="z11l"/>
      <point x="325" y="-21" control_in="1" name="z12l"/>
      <point x="730" y="-21" type="curve" smooth="yes" name="z13l"/>
      <point x="1135" y="-21" control_out="1" name="z14l"/>
      <point x="1394" y="297" control_in="1" name="z15l"/>
      <point x="1394" y="717" type="curve" smooth="yes" name="z16l"/>
      <point added="1" x="1394" y="717" control_out="1" name="z17l"/> 
      <point added="2" x="1394" y="739" control_in="1" name="z18l"/> 
    </contour>
    <contour>
      <point x="1072" y="717" type="line" smooth="yes" startp="1" name="z19l"/>
      <point x="1072" y="450" control_out="1" name="z20l"/>
      <point x="975" y="239" control_in="1" name="z21l"/>
      <point x="730" y="239" type="curve" smooth="yes" name="z22l"/>
      <point x="483" y="239" control_out="1" name="z23l"/>
      <point x="386" y="450" control_in="1" name="z24l"/>
      <point x="386" y="717" type="curve" smooth="yes" name="z25l"/>
      <point added="1" x="386" y="717" control_out="1" name="z26l"/> 
      <point added="2" x="386" y="741" control_in="1" name="z27l"/> 
      <point x="386" y="741" type="line" smooth="yes" name="z28l"/>
      <point x="386" y="1008" control_out="1" name="z29l"/>
      <point x="481" y="1217" control_in="1" name="z30l"/>
      <point x="728" y="1217" type="curve" smooth="yes" name="z31l"/>
      <point x="973" y="1217" control_out="1" name="z32l"/>
      <point x="1072" y="1008" control_in="1" name="z33l"/>
      <point x="1072" y="741" type="curve" smooth="yes" name="z34l"/>
      <point added="1" x="1072" y="741" control_out="1" name="z35l"/> 
      <point added="2" x="1072" y="717" control_in="1" name="z36l"/> 
    </contour>
  </outline>
</glyph>
<glyph name="P" format="1">
  <advance width="1333"/>
  <unicode hex="0050"/>
  <outline>
    <contour>
      <point x="751" y="499" type="line" smooth="yes"/>
      <point x="1098" y="499"/>
      <point x="1306" y="695"/>
      <point x="1306" y="977" type="curve" smooth="yes"/>
      <point x="1306" y="1260"/>
      <point x="1098" y="1456"/>
      <point x="751" y="1456" type="curve" smooth="yes"/>
      <point x="204" y="1456" type="line"/>
      <point x="204" y="0" type="line"/>
      <point x="527" y="0" type="line"/>
      <point x="527" y="1196" type="line"/>
      <point x="751" y="1196" type="line" smooth="yes"/>
      <point x="912" y="1196"/>
      <point x="984" y="1097"/>
      <point x="984" y="975" type="curve" smooth="yes"/>
      <point x="984" y="857"/>
      <point x="912" y="759"/>
      <point x="751" y="759" type="curve" smooth="yes"/>
      <point x="412" y="759" type="line"/>
      <point x="412" y="499" type="line"/>
    </contour>
    <contour>
      <point x="204" y="0" type="line"/>
      <point x="204" y="230" type="line"/>
      <point x="51" y="200" type="line"/>
      <point x="51" y="0" type="line"/>
    </contour>
    <contour>
      <point x="527" y="0" type="line"/>
      <point x="680" y="0" type="line"/>
      <point x="680" y="200" type="line"/>
      <point x="527" y="230" type="line"/>
    </contour>
    <contour>
      <point x="204" y="1456" type="line"/>
      <point x="51" y="1456" type="line"/>
      <point x="51" y="1256" type="line"/>
      <point x="204" y="1226" type="line"/>
    </contour>
  </outline>
</glyph>
<glyph name="R" format="1">
  <advance width="1415"/>
  <unicode hex="0052"/>
  <outline>
    <contour>
      <point x="792" y="558" type="line" smooth="yes" startp="1" name="z1l"/>
      <point x="851" y="558" control_out="1" name="z2l"/>
      <point x="825" y="574" control_in="1" name="z3l"/>
      <point x="878" y="587" type="curve" name="z4l"/>
      <point x="884" y="589" control_out="1" name="z5l"/>
      <point x="890" y="649" control_in="1" name="z6l"/>
      <point x="896" y="651" type="curve" name="z7l"/>
      <point x="1127" y="713" control_out="1" name="z8l"/>
      <point x="1253" y="830" control_in="1" name="z9l"/>
      <point x="1253" y="1019" type="curve" smooth="yes" name="z10l"/>
      <point x="1253" y="1292" control_out="1" name="z11l"/>
      <point x="1045" y="1456" control_in="1" name="z12l"/>
      <point x="710" y="1456" type="curve" smooth="yes" name="z13l"/>
      <point added="1" x="710" y="1456" control_out="1" name="z14l"/> 
      <point added="2" x="204" y="1456" control_in="1" name="z15l"/> 
      <point x="204" y="1456" type="line" name="z16l"/>
      <point added="1" x="204" y="1456" control_out="1" name="z17l"/> 
      <point added="2" x="204" y="0" control_in="1" name="z18l"/> 
      <point x="204" y="0" type="line" name="z19l"/>
      <point added="1" x="204" y="0" control_out="1" name="z20l"/> 
      <point added="2" x="527" y="0" control_in="1" name="z21l"/> 
      <point x="527" y="0" type="line" name="z22l"/>
      <point added="1" x="527" y="0" control_out="1" name="z23l"/> 
      <point added="2" x="527" y="1196" control_in="1" name="z24l"/> 
      <point x="527" y="1196" type="line" name="z25l"/>
      <point added="1" x="527" y="1196" control_out="1" name="z26l"/> 
      <point added="2" x="710" y="1196" control_in="1" name="z27l"/> 
      <point x="710" y="1196" type="line" smooth="yes" name="z28l"/>
      <point x="857" y="1196" control_out="1" name="z29l"/>
      <point x="931" y="1114" control_in="1" name="z30l"/>
      <point x="931" y="998" type="curve" smooth="yes" name="z31l"/>
      <point x="931" y="883" control_out="1" name="z32l"/>
      <point x="857" y="818" control_in="1" name="z33l"/>
      <point x="710" y="818" type="curve" smooth="yes" name="z34l"/>
      <point added="1" x="710" y="818" control_out="1" name="z35l"/> 
      <point added="2" x="410" y="818" control_in="1" name="z36l"/> 
      <point x="410" y="818" type="line" name="z37l"/>
      <point added="1" x="410" y="818" control_out="1" name="z38l"/> 
      <point added="2" x="412" y="558" control_in="1" name="z39l"/> 
      <point x="412" y="558" type="line" name="z40l"/>
      <point added="1" x="412" y="558" control_out="1" name="z41l"/> 
      <point added="2" x="792" y="558" control_in="1" name="z42l"/> 
    </contour>
    <contour>
      <point x="204" y="0" type="line" startp="1" name="z43l"/>
      <point added="1" x="204" y="0" control_out="1" name="z44l"/> 
      <point added="2" x="204" y="230" control_in="1" name="z45l"/> 
      <point x="204" y="230" type="line" name="z46l"/>
      <point added="1" x="204" y="230" control_out="1" name="z47l"/> 
      <point added="2" x="51" y="200" control_in="1" name="z48l"/> 
      <point x="51" y="200" type="line" name="z49l"/>
      <point added="1" x="51" y="200" control_out="1" name="z50l"/> 
      <point added="2" x="51" y="0" control_in="1" name="z51l"/> 
      <point x="51" y="0" type="line" name="z52l"/>
      <point added="1" x="51" y="0" control_out="1" name="z53l"/> 
      <point added="2" x="204" y="0" control_in="1" name="z54l"/> 
    </contour>
    <contour>
      <point x="527" y="0" type="line" startp="1" name="z55l"/>
      <point added="1" x="527" y="0" control_out="1" name="z56l"/> 
      <point added="2" x="680" y="0" control_in="1" name="z57l"/> 
      <point x="680" y="0" type="line" name="z58l"/>
      <point added="1" x="680" y="0" control_out="1" name="z59l"/> 
      <point added="2" x="680" y="200" control_in="1" name="z60l"/> 
      <point x="680" y="200" type="line" name="z61l"/>
      <point added="1" x="680" y="200" control_out="1" name="z62l"/> 
      <point added="2" x="527" y="230" control_in="1" name="z63l"/> 
      <point x="527" y="230" type="line" name="z64l"/>
      <point added="1" x="527" y="230" control_out="1" name="z65l"/> 
      <point added="2" x="527" y="0" control_in="1" name="z66l"/> 
    </contour>
    <contour>
      <point x="204" y="1456" type="line" startp="1" name="z67l"/>
      <point added="1" x="204" y="1456" control_out="1" name="z68l"/> 
      <point added="2" x="51" y="1456" control_in="1" name="z69l"/> 
      <point x="51" y="1456" type="line" name="z70l"/>
      <point added="1" x="51" y="1456" control_out="1" name="z71l"/> 
      <point added="2" x="51" y="1256" control_in="1" name="z72l"/> 
      <point x="51" y="1256" type="line" name="z73l"/>
      <point added="1" x="51" y="1256" control_out="1" name="z74l"/> 
      <point added="2" x="204" y="1226" control_in="1" name="z75l"/> 
      <point x="204" y="1226" type="line" name="z76l"/>
      <point added="1" x="204" y="1226" control_out="1" name="z77l"/> 
      <point added="2" x="204" y="1456" control_in="1" name="z78l"/> 
    </contour>
    <contour>
      <point x="1385" y="0" type="line" startp="1" name="z79l"/>
      <point added="1" x="1385" y="0" control_out="1" name="z80l"/> 
      <point added="2" x="1385" y="200" control_in="1" name="z81l"/> 
      <point x="1385" y="200" type="line" name="z82l"/>
      <point added="1" x="1385" y="200" control_out="1" name="z83l"/> 
      <point added="2" x="1352" y="204" control_in="1" name="z84l"/> 
      <point x="1352" y="204" type="line" smooth="yes" name="z85l"/>
      <point x="1289" y="212" control_out="1" name="z86l"/>
      <point x="1267" y="248" control_in="1" name="z87l"/>
      <point x="1267" y="294" type="curve" smooth="yes" name="z88l"/>
      <point added="1" x="1267" y="294" control_out="1" name="z89l"/> 
      <point added="2" x="1267" y="346" control_in="1" name="z90l"/> 
      <point x="1267" y="346" type="line" smooth="yes" name="z91l"/>
      <point x="1267" y="563" control_out="1" name="z92l"/>
      <point x="1159" y="719" control_in="1" name="z93l"/>
      <point x="806" y="719" type="curve" name="z94l"/>
      <point added="1" x="806" y="719" control_out="1" name="z95l"/> 
      <point added="2" x="725" y="558" control_in="1" name="z96l"/> 
      <point x="725" y="558" type="line" name="z97l"/>
      <point x="869" y="558" control_out="1" name="z98l"/>
      <point x="945" y="483" control_in="1" name="z99l"/>
      <point x="945" y="344" type="curve" smooth="yes" name="z100l"/>
      <point added="1" x="945" y="344" control_out="1" name="z101l"/> 
      <point added="2" x="945" y="276" control_in="1" name="z102l"/> 
      <point x="945" y="276" type="line" smooth="yes" name="z103l"/>
      <point x="945" y="129" control_out="1" name="z104l"/>
      <point x="1001" y="0" control_in="1" name="z105l"/>
      <point x="1219" y="0" type="curve" smooth="yes" name="z106l"/>
      <point added="1" x="1219" y="0" control_out="1" name="z107l"/> 
      <point added="2" x="1385" y="0" control_in="1" name="z108l"/> 
    </contour>
  </outline>
</glyph>
<glyph name="S" format="1">
  <advance width="1240"/>
  <unicode hex="0053"/>
  <outline>
    <contour>
      <point x="1174" y="1284" type="line" startp="1" name="z1l"/>
      <point x="1047" y="1404" control_out="1" name="z2l"/>
      <point x="855" y="1476" control_in="1" name="z3l"/>
      <point x="617" y="1476" type="curve" smooth="yes" name="z4l"/>
      <point x="325" y="1471" control_out="1" name="z5l"/>
      <point x="88" y="1316" control_in="1" name="z6l"/>
      <point x="88" y="1068" type="curve" smooth="yes" name="z7l"/>
      <point x="88" y="796" control_out="1" name="z8l"/>
      <point x="311" y="694" control_in="1" name="z9l"/>
      <point x="625" y="594" type="curve" smooth="yes" name="z10l"/>
      <point x="802" y="536" control_out="1" name="z11l"/>
      <point x="870" y="495" control_in="1" name="z12l"/>
      <point x="870" y="386" type="curve" smooth="yes" name="z13l"/>
      <point x="870" y="302" control_out="1" name="z14l"/>
      <point x="804" y="234" control_in="1" name="z15l"/>
      <point x="650" y="234" type="curve" smooth="yes" name="z16l"/>
      <point x="529" y="234" control_out="1" name="z17l"/>
      <point x="426" y="263" control_in="1" name="z18l"/>
      <point x="373" y="307" type="curve" name="z19l"/>
      <point added="1" x="373" y="307" control_out="1" name="z20l"/> 
      <point added="2" x="345" y="512" control_in="1" name="z21l"/> 
      <point x="345" y="512" type="line" name="z22l"/>
      <point added="1" x="345" y="512" control_out="1" name="z23l"/> 
      <point added="2" x="93" y="512" control_in="1" name="z24l"/> 
      <point x="93" y="512" type="line" name="z25l"/>
      <point added="1" x="93" y="512" control_out="1" name="z26l"/> 
      <point added="2" x="93" y="191" control_in="1" name="z27l"/> 
      <point x="93" y="191" type="line" name="z28l"/>
      <point x="220" y="58" control_out="1" name="z29l"/>
      <point x="412" y="-21" control_in="1" name="z30l"/>
      <point x="650" y="-21" type="curve" smooth="yes" name="z31l"/>
      <point x="972" y="-21" control_out="1" name="z32l"/>
      <point x="1193" y="128" control_in="1" name="z33l"/>
      <point x="1193" y="388" type="curve" smooth="yes" name="z34l"/>
      <point x="1193" y="657" control_out="1" name="z35l"/>
      <point x="1000" y="777" control_in="1" name="z36l"/>
      <point x="697" y="867" type="curve" name="z37l"/>
      <point x="497" y="938" control_out="1" name="z38l"/>
      <point x="410" y="976" control_in="1" name="z39l"/>
      <point x="410" y="1066" type="curve" smooth="yes" name="z40l"/>
      <point x="410" y="1151" control_out="1" name="z41l"/>
      <point x="490" y="1216" control_in="1" name="z42l"/>
      <point x="637" y="1216" type="curve" smooth="yes" name="z43l"/>
      <point x="743" y="1216" control_out="1" name="z44l"/>
      <point x="850" y="1193" control_in="1" name="z45l"/>
      <point x="894" y="1168" type="curve" name="z46l"/>
      <point added="1" x="894" y="1168" control_out="1" name="z47l"/> 
      <point added="2" x="932" y="972" control_in="1" name="z48l"/> 
      <point x="932" y="972" type="line" name="z49l"/>
      <point added="1" x="932" y="972" control_out="1" name="z50l"/> 
      <point added="2" x="1174" y="972" control_in="1" name="z51l"/> 
      <point x="1174" y="972" type="line" name="z52l"/>
      <point added="1" x="1174" y="972" control_out="1" name="z53l"/> 
      <point added="2" x="1174" y="1284" control_in="1" name="z54l"/> 
    </contour>
  </outline>
</glyph>
<glyph name="T" format="1">
  <advance width="1408"/>
  <unicode hex="0054"/>
  <outline>
    <contour>
      <point x="865" y="1456" type="line" startp="1" name="z1l"/>
      <point added="1" x="865" y="1456" control_out="1" name="z2l"/> 
      <point added="2" x="542" y="1456" control_in="1" name="z3l"/> 
      <point x="542" y="1456" type="line" name="z4l"/>
      <point added="1" x="542" y="1456" control_out="1" name="z5l"/> 
      <point added="2" x="542" y="0" control_in="1" name="z6l"/> 
      <point x="542" y="0" type="line" name="z7l"/>
      <point added="1" x="542" y="0" control_out="1" name="z8l"/> 
      <point added="2" x="865" y="0" control_in="1" name="z9l"/> 
      <point x="865" y="0" type="line" name="z10l"/>
      <point added="1" x="865" y="0" control_out="1" name="z11l"/> 
      <point added="2" x="865" y="1456" control_in="1" name="z12l"/> 
    </contour>
    <contour>
      <point x="1268" y="1456" type="line" startp="1" name="z13l"/>
      <point added="1" x="1268" y="1456" control_out="1" name="z14l"/> 
      <point added="2" x="141" y="1456" control_in="1" name="z15l"/> 
      <point x="141" y="1456" type="line" name="z16l"/>
      <point added="1" x="141" y="1456" control_out="1" name="z17l"/> 
      <point added="2" x="141" y="1196" control_in="1" name="z18l"/> 
      <point x="141" y="1196" type="line" name="z19l"/>
      <point added="1" x="141" y="1196" control_out="1" name="z20l"/> 
      <point added="2" x="1268" y="1196" control_in="1" name="z21l"/> 
      <point x="1268" y="1196" type="line" name="z22l"/>
      <point added="1" x="1268" y="1196" control_out="1" name="z23l"/> 
      <point added="2" x="1268" y="1456" control_in="1" name="z24l"/> 
    </contour>
    <contour>
      <point x="41" y="1456" type="line" startp="1" name="z25l"/>
      <point added="1" x="41" y="1456" control_out="1" name="z26l"/> 
      <point added="2" x="41" y="1033" control_in="1" name="z27l"/> 
      <point x="41" y="1033" type="line" name="z28l"/>
      <point added="1" x="41" y="1033" control_out="1" name="z29l"/> 
      <point added="2" x="282" y="1033" control_in="1" name="z30l"/> 
      <point x="282" y="1033" type="line" name="z31l"/>
      <point added="1" x="282" y="1033" control_out="1" name="z32l"/> 
      <point added="2" x="311" y="1456" control_in="1" name="z33l"/> 
      <point x="311" y="1456" type="line" name="z34l"/>
      <point added="1" x="311" y="1456" control_out="1" name="z35l"/> 
      <point added="2" x="41" y="1456" control_in="1" name="z36l"/> 
    </contour>
    <contour>
      <point x="1368" y="1456" type="line" startp="1" name="z37l"/>
      <point added="1" x="1368" y="1456" control_out="1" name="z38l"/> 
      <point added="2" x="1098" y="1456" control_in="1" name="z39l"/> 
      <point x="1098" y="1456" type="line" name="z40l"/>
      <point added="1" x="1098" y="1456" control_out="1" name="z41l"/> 
      <point added="2" x="1127" y="1033" control_in="1" name="z42l"/> 
      <point x="1127" y="1033" type="line" name="z43l"/>
      <point added="1" x="1127" y="1033" control_out="1" name="z44l"/> 
      <point added="2" x="1368" y="1033" control_in="1" name="z45l"/> 
      <point x="1368" y="1033" type="line" name="z46l"/>
      <point added="1" x="1368" y="1033" control_out="1" name="z47l"/> 
      <point added="2" x="1368" y="1456" control_in="1" name="z48l"/> 
    </contour>
    <contour>
      <point x="542" y="0" type="line" startp="1" name="z49l"/>
      <point added="1" x="542" y="0" control_out="1" name="z50l"/> 
      <point added="2" x="542" y="230" control_in="1" name="z51l"/> 
      <point x="542" y="230" type="line" name="z52l"/>
      <point added="1" x="542" y="230" control_out="1" name="z53l"/> 
      <point added="2" x="389" y="200" control_in="1" name="z54l"/> 
      <point x="389" y="200" type="line" name="z55l"/>
      <point added="1" x="389" y="200" control_out="1" name="z56l"/> 
      <point added="2" x="389" y="0" control_in="1" name="z57l"/> 
      <point x="389" y="0" type="line" name="z58l"/>
      <point added="1" x="389" y="0" control_out="1" name="z59l"/> 
      <point added="2" x="542" y="0" control_in="1" name="z60l"/> 
    </contour>
    <contour>
      <point x="865" y="0" type="line" startp="1" name="z61l"/>
      <point added="1" x="865" y="0" control_out="1" name="z62l"/> 
      <point added="2" x="1018" y="0" control_in="1" name="z63l"/> 
      <point x="1018" y="0" type="line" name="z64l"/>
      <point added="1" x="1018" y="0" control_out="1" name="z65l"/> 
      <point added="2" x="1018" y="200" control_in="1" name="z66l"/> 
      <point x="1018" y="200" type="line" name="z67l"/>
      <point added="1" x="1018" y="200" control_out="1" name="z68l"/> 
      <point added="2" x="865" y="230" control_in="1" name="z69l"/> 
      <point x="865" y="230" type="line" name="z70l"/>
      <point added="1" x="865" y="230" control_out="1" name="z71l"/> 
      <point added="2" x="865" y="0" control_in="1" name="z72l"/> 
    </contour>
  </outline>
</glyph>
<glyph name="W" format="1">
  <advance width="1993"/>
  <unicode hex="0057"/>
  <outline>
    <contour>
      <point x="544" y="163" type="line" startp="1" name="z1l"/>
      <point added="1" x="544" y="163" control_out="1" name="z2l"/> 
      <point added="2" x="567" y="0" control_in="1" name="z3l"/> 
      <point x="567" y="0" type="line" name="z4l"/>
      <point added="1" x="567" y="0" control_out="1" name="z5l"/> 
      <point added="2" x="742" y="0" control_in="1" name="z6l"/> 
      <point x="742" y="0" type="line" name="z7l"/>
      <point added="1" x="742" y="0" control_out="1" name="z8l"/> 
      <point added="2" x="1091" y="1315" control_in="1" name="z9l"/> 
      <point x="1091" y="1315" type="line" name="z10l"/>
      <point added="1" x="1091" y="1315" control_out="1" name="z11l"/> 
      <point added="2" x="1028" y="1456" control_in="1" name="z12l"/> 
      <point x="1028" y="1456" type="line" name="z13l"/>
      <point added="1" x="1028" y="1456" control_out="1" name="z14l"/> 
      <point added="2" x="882" y="1456" control_in="1" name="z15l"/> 
      <point x="882" y="1456" type="line" name="z16l"/>
      <point added="1" x="882" y="1456" control_out="1" name="z17l"/> 
      <point added="2" x="544" y="163" control_in="1" name="z18l"/> 
    </contour>
    <contour>
      <point x="417" y="1456" type="line" startp="1" name="z19l"/>
      <point added="1" x="417" y="1456" control_out="1" name="z20l"/> 
      <point added="2" x="103" y="1456" control_in="1" name="z21l"/> 
      <point x="103" y="1456" type="line" name="z22l"/>
      <point added="1" x="103" y="1456" control_out="1" name="z23l"/> 
      <point added="2" x="440" y="0" control_in="1" name="z24l"/> 
      <point x="440" y="0" type="line" name="z25l"/>
      <point added="1" x="440" y="0" control_out="1" name="z26l"/> 
      <point added="2" x="636" y="0" control_in="1" name="z27l"/> 
      <point x="636" y="0" type="line" name="z28l"/>
      <point added="1" x="636" y="0" control_out="1" name="z29l"/> 
      <point added="2" x="673" y="156" control_in="1" name="z30l"/> 
      <point x="673" y="156" type="line" name="z31l"/>
      <point added="1" x="673" y="156" control_out="1" name="z32l"/> 
      <point added="2" x="417" y="1456" control_in="1" name="z33l"/> 
    </contour>
    <contour>
      <point x="1323" y="163" type="line" startp="1" name="z34l"/>
      <point added="1" x="1323" y="163" control_out="1" name="z35l"/> 
      <point added="2" x="1358" y="0" control_in="1" name="z36l"/> 
      <point x="1358" y="0" type="line" name="z37l"/>
      <point added="1" x="1358" y="0" control_out="1" name="z38l"/> 
      <point added="2" x="1554" y="0" control_in="1" name="z39l"/> 
      <point x="1554" y="0" type="line" name="z40l"/>
      <point added="1" x="1554" y="0" control_out="1" name="z41l"/> 
      <point added="2" x="1890" y="1456" control_in="1" name="z42l"/> 
      <point x="1890" y="1456" type="line" name="z43l"/>
      <point added="1" x="1890" y="1456" control_out="1" name="z44l"/> 
      <point added="2" x="1577" y="1456" control_in="1" name="z45l"/> 
      <point x="1577" y="1456" type="line" name="z46l"/>
      <point added="1" x="1577" y="1456" control_out="1" name="z47l"/> 
      <point added="2" x="1323" y="163" control_in="1" name="z48l"/> 
    </contour>
    <contour>
      <point x="1111" y="1456" type="line" startp="1" name="z49l"/>
      <point added="1" x="1111" y="1456" control_out="1" name="z50l"/> 
      <point added="2" x="966" y="1456" control_in="1" name="z51l"/> 
      <point x="966" y="1456" type="line" name="z52l"/>
      <point added="1" x="966" y="1456" control_out="1" name="z53l"/> 
      <point added="2" x="901" y="1317" control_in="1" name="z54l"/> 
      <point x="901" y="1317" type="line" name="z55l"/>
      <point added="1" x="901" y="1317" control_out="1" name="z56l"/> 
      <point added="2" x="1252" y="0" control_in="1" name="z57l"/> 
      <point x="1252" y="0" type="line" name="z58l"/>
      <point added="1" x="1252" y="0" control_out="1" name="z59l"/> 
      <point added="2" x="1427" y="0" control_in="1" name="z60l"/> 
      <point x="1427" y="0" type="line" name="z61l"/>
      <point added="1" x="1427" y="0" control_out="1" name="z62l"/> 
      <point added="2" x="1453" y="156" control_in="1" name="z63l"/> 
      <point x="1453" y="156" type="line" name="z64l"/>
      <point added="1" x="1453" y="156" control_out="1" name="z65l"/> 
      <point added="2" x="1111" y="1456" control_in="1" name="z66l"/> 
    </contour>
    <contour>
      <point x="1890" y="1456" type="line" startp="1" name="z67l"/>
      <point added="1" x="1890" y="1456" control_out="1" name="z68l"/> 
      <point added="2" x="1710" y="1226" control_in="1" name="z69l"/> 
      <point x="1710" y="1226" type="line" name="z70l"/>
      <point added="1" x="1710" y="1226" control_out="1" name="z71l"/> 
      <point added="2" x="1963" y="1256" control_in="1" name="z72l"/> 
      <point x="1963" y="1256" type="line" name="z73l"/>
      <point added="1" x="1963" y="1256" control_out="1" name="z74l"/> 
      <point added="2" x="1963" y="1456" control_in="1" name="z75l"/> 
      <point x="1963" y="1456" type="line" name="z76l"/>
      <point added="1" x="1963" y="1456" control_out="1" name="z77l"/> 
      <point added="2" x="1890" y="1456" control_in="1" name="z78l"/> 
    </contour>
    <contour>
      <point x="1577" y="1456" type="line" startp="1" name="z79l"/>
      <point added="1" x="1577" y="1456" control_out="1" name="z80l"/> 
      <point added="2" x="1404" y="1456" control_in="1" name="z81l"/> 
      <point x="1404" y="1456" type="line" name="z82l"/>
      <point added="1" x="1404" y="1456" control_out="1" name="z83l"/> 
      <point added="2" x="1404" y="1256" control_in="1" name="z84l"/> 
      <point x="1404" y="1256" type="line" name="z85l"/>
      <point added="1" x="1404" y="1256" control_out="1" name="z86l"/> 
      <point added="2" x="1577" y="1226" control_in="1" name="z87l"/> 
      <point x="1577" y="1226" type="line" name="z88l"/>
      <point added="1" x="1577" y="1226" control_out="1" name="z89l"/> 
      <point added="2" x="1577" y="1456" control_in="1" name="z90l"/> 
    </contour>
    <contour>
      <point x="103" y="1456" type="line" startp="1" name="z91l"/>
      <point added="1" x="103" y="1456" control_out="1" name="z92l"/> 
      <point added="2" x="30" y="1456" control_in="1" name="z93l"/> 
      <point x="30" y="1456" type="line" name="z94l"/>
      <point added="1" x="30" y="1456" control_out="1" name="z95l"/> 
      <point added="2" x="30" y="1256" control_in="1" name="z96l"/> 
      <point x="30" y="1256" type="line" name="z97l"/>
      <point added="1" x="30" y="1256" control_out="1" name="z98l"/> 
      <point added="2" x="283" y="1226" control_in="1" name="z99l"/> 
      <point x="283" y="1226" type="line" name="z100l"/>
      <point added="1" x="283" y="1226" control_out="1" name="z101l"/> 
      <point added="2" x="103" y="1456" control_in="1" name="z102l"/> 
    </contour>
    <contour>
      <point x="417" y="1456" type="line" startp="1" name="z103l"/>
      <point added="1" x="417" y="1456" control_out="1" name="z104l"/> 
      <point added="2" x="417" y="1226" control_in="1" name="z105l"/> 
      <point x="417" y="1226" type="line" name="z106l"/>
      <point added="1" x="417" y="1226" control_out="1" name="z107l"/> 
      <point added="2" x="590" y="1256" control_in="1" name="z108l"/> 
      <point x="590" y="1256" type="line" name="z109l"/>
      <point added="1" x="590" y="1256" control_out="1" name="z110l"/> 
      <point added="2" x="590" y="1456" control_in="1" name="z111l"/> 
      <point x="590" y="1456" type="line" name="z112l"/>
      <point added="1" x="590" y="1456" control_out="1" name="z113l"/> 
      <point added="2" x="417" y="1456" control_in="1" name="z114l"/> 
    </contour>
  </outline>
</glyph>
<glyph name="Y" format="1">
  <advance width="1392"/>
  <unicode hex="0059"/>
  <outline>
    <contour>
      <point x="622" y="651" type="line"/>
      <point x="661" y="480" type="line"/>
      <point x="837" y="480" type="line"/>
      <point x="1349" y="1456" type="line"/>
      <point x="998" y="1456" type="line"/>
    </contour>
    <contour>
      <point x="394" y="1456" type="line"/>
      <point x="43" y="1456" type="line"/>
      <point x="555" y="480" type="line"/>
      <point x="730" y="480" type="line"/>
      <point x="773" y="643" type="line"/>
    </contour>
    <contour>
      <point x="853" y="688" type="line"/>
      <point x="531" y="688" type="line"/>
      <point x="531" y="0" type="line"/>
      <point x="853" y="0" type="line"/>
    </contour>
    <contour>
      <point x="531" y="0" type="line"/>
      <point x="531" y="230" type="line"/>
      <point x="378" y="200" type="line"/>
      <point x="378" y="0" type="line"/>
    </contour>
    <contour>
      <point x="853" y="0" type="line"/>
      <point x="1006" y="0" type="line"/>
      <point x="1006" y="200" type="line"/>
      <point x="853" y="230" type="line"/>
    </contour>
    <contour>
      <point x="43" y="1456" type="line"/>
      <point x="30" y="1456" type="line"/>
      <point x="30" y="1256" type="line"/>
      <point x="223" y="1226" type="line"/>
    </contour>
    <contour>
      <point x="394" y="1456" type="line"/>
      <point x="394" y="1226" type="line"/>
      <point x="597" y="1256" type="line"/>
      <point x="597" y="1456" type="line"/>
    </contour>
    <contour>
      <point x="998" y="1456" type="line"/>
      <point x="795" y="1456" type="line"/>
      <point x="795" y="1256" type="line"/>
      <point x="998" y="1226" type="line"/>
    </contour>
    <contour>
      <point x="1349" y="1456" type="line"/>
      <point x="1169" y="1226" type="line"/>
      <point x="1362" y="1256" type="line"/>
      <point x="1362" y="1456" type="line"/>
    </contour>
  </outline>
</glyph>
<glyph name="bracketleft" format="1">
  <advance width="580"/>
  <unicode hex="005B"/>
  <outline>
    <contour>
      <point x="582" y="1706" type="line" startp="1" name="z1l"/>
      <point added="1" x="582" y="1706" control_out="1" name="z2l"/> 
      <point added="2" x="133" y="1706" control_in="1" name="z3l"/> 
      <point x="133" y="1706" type="line" name="z4l"/>
      <point added="1" x="133" y="1706" control_out="1" name="z5l"/> 
      <point added="2" x="133" y="-349" control_in="1" name="z6l"/> 
      <point x="133" y="-349" type="line" name="z7l"/>
      <point added="1" x="133" y="-349" control_out="1" name="z8l"/> 
      <point added="2" x="582" y="-349" control_in="1" name="z9l"/> 
      <point x="582" y="-349" type="line" name="z10l"/>
      <point added="1" x="582" y="-349" control_out="1" name="z11l"/> 
      <point added="2" x="582" y="-104" control_in="1" name="z12l"/> 
      <point x="582" y="-104" type="line" name="z13l"/>
      <point added="1" x="582" y="-104" control_out="1" name="z14l"/> 
      <point added="2" x="456" y="-104" control_in="1" name="z15l"/> 
      <point x="456" y="-104" type="line" name="z16l"/>
      <point added="1" x="456" y="-104" control_out="1" name="z17l"/> 
      <point added="2" x="456" y="1460" control_in="1" name="z18l"/> 
      <point x="456" y="1460" type="line" name="z19l"/>
      <point added="1" x="456" y="1460" control_out="1" name="z20l"/> 
      <point added="2" x="582" y="1460" control_in="1" name="z21l"/> 
      <point x="582" y="1460" type="line" name="z22l"/>
      <point added="1" x="582" y="1460" control_out="1" name="z23l"/> 
      <point added="2" x="582" y="1706" control_in="1" name="z24l"/> 
    </contour>
  </outline>
</glyph>
<glyph name="backslash" format="1">
  <advance width="858"/>
  <unicode hex="005C"/>
  <outline>
    <contour>
      <point x="612" y="-125" type="line" startp="1" name="z1l"/>
      <point added="1" x="612" y="-125" control_out="1" name="z2l"/> 
      <point added="2" x="934" y="-125" control_in="1" name="z3l"/> 
      <point x="934" y="-125" type="line" name="z4l"/>
      <point added="1" x="934" y="-125" control_out="1" name="z5l"/> 
      <point added="2" x="326" y="1456" control_in="1" name="z6l"/> 
      <point x="326" y="1456" type="line" name="z7l"/>
      <point added="1" x="326" y="1456" control_out="1" name="z8l"/> 
      <point added="2" x="4" y="1456" control_in="1" name="z9l"/> 
      <point x="4" y="1456" type="line" name="z10l"/>
      <point added="1" x="4" y="1456" control_out="1" name="z11l"/> 
      <point added="2" x="612" y="-125" control_in="1" name="z12l"/> 
    </contour>
  </outline>
</glyph>
<glyph name="bracketright" format="1">
  <advance width="575"/>
  <unicode hex="005D"/>
  <outline>
    <contour>
      <point x="8" y="1460" type="line"/>
      <point x="135" y="1460" type="line"/>
      <point x="135" y="-104" type="line"/>
      <point x="8" y="-104" type="line"/>
      <point x="8" y="-349" type="line"/>
      <point x="457" y="-349" type="line"/>
      <point x="457" y="1706" type="line"/>
      <point x="8" y="1706" type="line"/>
    </contour>
  </outline>
</glyph>
<glyph name="asciicircum" format="1">
  <advance width="891"/>
  <unicode hex="005E"/>
  <outline>
    <contour>
      <point x="445" y="1142" type="line" startp="1" name="z1l"/>
      <point added="1" x="445" y="1142" control_out="1" name="z2l"/> 
      <point added="2" x="516" y="1456" control_in="1" name="z3l"/> 
      <point x="516" y="1456" type="line" name="z4l"/>
      <point added="1" x="516" y="1456" control_out="1" name="z5l"/> 
      <point added="2" x="336" y="1456" control_in="1" name="z6l"/> 
      <point x="336" y="1456" type="line" name="z7l"/>
      <point added="1" x="336" y="1456" control_out="1" name="z8l"/> 
      <point added="2" x="37" y="729" control_in="1" name="z9l"/> 
      <point x="37" y="729" type="line" name="z10l"/>
      <point added="1" x="37" y="729" control_out="1" name="z11l"/> 
      <point added="2" x="283" y="729" control_in="1" name="z12l"/> 
      <point x="283" y="729" type="line" name="z13l"/>
      <point added="1" x="283" y="729" control_out="1" name="z14l"/> 
      <point added="2" x="445" y="1142" control_in="1" name="z15l"/> 
    </contour>
    <contour>
      <point x="626" y="729" type="line" startp="1" name="z16l"/>
      <point added="1" x="626" y="729" control_out="1" name="z17l"/> 
      <point added="2" x="872" y="729" control_in="1" name="z18l"/> 
      <point x="872" y="729" type="line" name="z19l"/>
      <point added="1" x="872" y="729" control_out="1" name="z20l"/> 
      <point added="2" x="573" y="1456" control_in="1" name="z21l"/> 
      <point x="573" y="1456" type="line" name="z22l"/>
      <point added="1" x="573" y="1456" control_out="1" name="z23l"/> 
      <point added="2" x="393" y="1456" control_in="1" name="z24l"/> 
      <point x="393" y="1456" type="line" name="z25l"/>
      <point added="1" x="393" y="1456" control_out="1" name="z26l"/> 
      <point added="2" x="461" y="1142" control_in="1" name="z27l"/> 
      <point x="461" y="1142" type="line" name="z28l"/>
      <point added="1" x="461" y="1142" control_out="1" name="z29l"/> 
      <point added="2" x="626" y="729" control_in="1" name="z30l"/> 
    </contour>
  </outline>
</glyph>
<glyph name="grave" format="1">
  <advance width="636"/>
  <unicode hex="0060"/>
  <outline>
    <contour>
      <point x="395" y="1478" type="line" startp="1" name="z1l"/>
      <point added="1" x="395" y="1478" control_out="1" name="z2l"/> 
      <point added="2" x="52" y="1478" control_in="1" name="z3l"/> 
      <point x="52" y="1478" type="line" name="z4l"/>
      <point added="1" x="52" y="1478" control_out="1" name="z5l"/> 
      <point added="2" x="337" y="1212" control_in="1" name="z6l"/> 
      <point x="337" y="1212" type="line" name="z7l"/>
      <point added="1" x="337" y="1212" control_out="1" name="z8l"/> 
      <point added="2" x="599" y="1212" control_in="1" name="z9l"/> 
      <point x="599" y="1212" type="line" name="z10l"/>
      <point added="1" x="599" y="1212" control_out="1" name="z11l"/> 
      <point added="2" x="395" y="1478" control_in="1" name="z12l"/> 
    </contour>
  </outline>
</glyph>
<glyph name="a" format="1">
  <advance width="1125"/>
  <unicode hex="0061"/>
  <outline>
    <contour>
      <point x="681" y="272" type="line" smooth="yes" startp="1" name="z1l"/>
      <point x="681" y="175" control_out="1" name="z2l"/>
      <point x="705" y="73" control_in="1" name="z3l"/>
      <point x="739" y="1" type="curve" name="z4l"/>
      <point added="1" x="739" y="1" control_out="1" name="z5l"/> 
      <point added="2" x="1059" y="0" control_in="1" name="z6l"/> 
      <point x="1059" y="0" type="line" name="z7l"/>
      <point x="1024" y="94" control_out="1" name="z8l"/>
      <point x="1004" y="189" control_in="1" name="z9l"/>
      <point x="1004" y="308" type="curve" smooth="yes" name="z10l"/>
      <point added="1" x="1004" y="308" control_out="1" name="z11l"/> 
      <point added="2" x="1004" y="716" control_in="1" name="z12l"/> 
      <point x="1004" y="716" type="line" smooth="yes" name="z13l"/>
      <point x="1004" y="973" control_out="1" name="z14l"/>
      <point x="805" y="1102" control_in="1" name="z15l"/>
      <point x="539" y="1102" type="curve" smooth="yes" name="z16l"/>
      <point x="360" y="1102" control_out="1" name="z17l"/>
      <point x="220" y="1030" control_in="1" name="z18l"/>
      <point x="130" y="976" type="curve" name="z19l"/>
      <point added="1" x="130" y="976" control_out="1" name="z20l"/> 
      <point added="2" x="129" y="719" control_in="1" name="z21l"/> 
      <point x="129" y="719" type="line" name="z22l"/>
      <point added="1" x="129" y="719" control_out="1" name="z23l"/> 
      <point added="2" x="371" y="719" control_in="1" name="z24l"/> 
      <point x="371" y="719" type="line" name="z25l"/>
      <point added="1" x="371" y="719" control_out="1" name="z26l"/> 
      <point added="2" x="389" y="838" control_in="1" name="z27l"/> 
      <point x="389" y="838" type="line" name="z28l"/>
      <point x="411" y="845" control_out="1" name="z29l"/>
      <point x="455" y="861" control_in="1" name="z30l"/>
      <point x="518" y="861" type="curve" smooth="yes" name="z31l"/>
      <point x="630" y="861" control_out="1" name="z32l"/>
      <point x="681" y="809" control_in="1" name="z33l"/>
      <point x="681" y="718" type="curve" smooth="yes" name="z34l"/>
      <point added="1" x="681" y="718" control_out="1" name="z35l"/> 
      <point added="2" x="681" y="272" control_in="1" name="z36l"/> 
    </contour>
    <contour>
      <point x="721" y="621" type="line" startp="1" name="z37l"/>
      <point added="1" x="721" y="621" control_out="1" name="z38l"/> 
      <point added="2" x="549" y="621" control_in="1" name="z39l"/> 
      <point x="549" y="621" type="line" smooth="yes" name="z40l"/>
      <point x="221" y="621" control_out="1" name="z41l"/>
      <point x="64" y="502" control_in="1" name="z42l"/>
      <point x="64" y="305" type="curve" smooth="yes" name="z43l"/>
      <point x="64" y="107" control_out="1" name="z44l"/>
      <point x="206" y="-21" control_in="1" name="z45l"/>
      <point x="411" y="-21" type="curve" smooth="yes" name="z46l"/>
      <point x="618" y="-21" control_out="1" name="z47l"/>
      <point x="720" y="97" control_in="1" name="z48l"/>
      <point x="769" y="194" type="curve" name="z49l"/>
      <point added="1" x="769" y="194" control_out="1" name="z50l"/> 
      <point added="2" x="704" y="352" control_in="1" name="z51l"/> 
      <point x="704" y="352" type="line" name="z52l"/>
      <point x="704" y="297" control_out="1" name="z53l"/>
      <point x="623" y="220" control_in="1" name="z54l"/>
      <point x="506" y="220" type="curve" smooth="yes" name="z55l"/>
      <point x="435" y="220" control_out="1" name="z56l"/>
      <point x="386" y="262" control_in="1" name="z57l"/>
      <point x="386" y="323" type="curve" smooth="yes" name="z58l"/>
      <point x="386" y="385" control_out="1" name="z59l"/>
      <point x="431" y="451" control_in="1" name="z60l"/>
      <point x="551" y="451" type="curve" smooth="yes" name="z61l"/>
      <point added="1" x="551" y="451" control_out="1" name="z62l"/> 
      <point added="2" x="723" y="451" control_in="1" name="z63l"/> 
      <point x="723" y="451" type="line" name="z64l"/>
      <point added="1" x="723" y="451" control_out="1" name="z65l"/> 
      <point added="2" x="721" y="621" control_in="1" name="z66l"/> 
    </contour>
    <contour>
      <point x="1059" y="0" type="line" startp="1" name="z67l"/>
      <point added="1" x="1059" y="0" control_out="1" name="z68l"/> 
      <point added="2" x="1102" y="0" control_in="1" name="z69l"/> 
      <point x="1102" y="0" type="line" name="z70l"/>
      <point added="1" x="1102" y="0" control_out="1" name="z71l"/> 
      <point added="2" x="1102" y="200" control_in="1" name="z72l"/> 
      <point x="1102" y="200" type="line" name="z73l"/>
      <point added="1" x="1102" y="200" control_out="1" name="z74l"/> 
      <point added="2" x="879" y="230" control_in="1" name="z75l"/> 
      <point x="879" y="230" type="line" name="z76l"/>
      <point added="1" x="879" y="230" control_out="1" name="z77l"/> 
      <point added="2" x="1059" y="0" control_in="1" name="z78l"/> 
    </contour>
  </outline>
</glyph>
<glyph name="b" format="1">
  <advance width="1179"/>
  <unicode hex="0062"/>
  <outline>
    <contour>
      <point x="126" y="1560" type="line" startp="1" name="z1l"/>
      <point added="1" x="126" y="1560" control_out="1" name="z2l"/> 
      <point added="2" x="126" y="0" control_in="1" name="z3l"/> 
      <point x="126" y="0" type="line" name="z4l"/>
      <point added="1" x="126" y="0" control_out="1" name="z5l"/> 
      <point added="2" x="405" y="0" control_in="1" name="z6l"/> 
      <point x="405" y="0" type="line" name="z7l"/>
      <point added="1" x="405" y="0" control_out="1" name="z8l"/> 
      <point added="2" x="448" y="266" control_in="1" name="z9l"/> 
      <point x="448" y="266" type="line" name="z10l"/>
      <point added="1" x="448" y="266" control_out="1" name="z11l"/> 
      <point added="2" x="448" y="1560" control_in="1" name="z12l"/> 
      <point x="448" y="1560" type="line" name="z13l"/>
      <point added="1" x="448" y="1560" control_out="1" name="z14l"/> 
      <point added="2" x="126" y="1560" control_in="1" name="z15l"/> 
    </contour>
    <contour>
      <point x="1119" y="539" type="line" smooth="yes" startp="1" name="z16l"/>
      <point x="1119" y="868" control_out="1" name="z17l"/>
      <point x="985" y="1102" control_in="1" name="z18l"/>
      <point x="697" y="1102" type="curve" smooth="yes" name="z19l"/>
      <point x="449" y="1102" control_out="1" name="z20l"/>
      <point x="348" y="848" control_in="1" name="z21l"/>
      <point x="308" y="535" type="curve" name="z22l"/>
      <point added="1" x="308" y="535" control_out="1" name="z23l"/> 
      <point added="2" x="308" y="510" control_in="1" name="z24l"/> 
      <point x="308" y="510" type="line" name="z25l"/>
      <point x="348" y="217" control_out="1" name="z26l"/>
      <point x="449" y="-21" control_in="1" name="z27l"/>
      <point x="699" y="-21" type="curve" smooth="yes" name="z28l"/>
      <point x="985" y="-21" control_out="1" name="z29l"/>
      <point x="1119" y="203" control_in="1" name="z30l"/>
      <point x="1119" y="518" type="curve" smooth="yes" name="z31l"/>
      <point added="1" x="1119" y="518" control_out="1" name="z32l"/> 
      <point added="2" x="1119" y="539" control_in="1" name="z33l"/> 
    </contour>
    <contour>
      <point x="797" y="518" type="line" smooth="yes" startp="1" name="z34l"/>
      <point x="797" y="356" control_out="1" name="z35l"/>
      <point x="769" y="239" control_in="1" name="z36l"/>
      <point x="618" y="239" type="curve" smooth="yes" name="z37l"/>
      <point x="469" y="239" control_out="1" name="z38l"/>
      <point x="408" y="329" control_in="1" name="z39l"/>
      <point x="408" y="483" type="curve" smooth="yes" name="z40l"/>
      <point added="1" x="408" y="483" control_out="1" name="z41l"/> 
      <point added="2" x="408" y="562" control_in="1" name="z42l"/> 
      <point x="408" y="562" type="line" smooth="yes" name="z43l"/>
      <point x="408" y="738" control_out="1" name="z44l"/>
      <point x="469" y="842" control_in="1" name="z45l"/>
      <point x="616" y="842" type="curve" smooth="yes" name="z46l"/>
      <point x="765" y="842" control_out="1" name="z47l"/>
      <point x="797" y="707" control_in="1" name="z48l"/>
      <point x="797" y="539" type="curve" smooth="yes" name="z49l"/>
      <point added="1" x="797" y="539" control_out="1" name="z50l"/> 
      <point added="2" x="797" y="518" control_in="1" name="z51l"/> 
    </contour>
    <contour>
      <point x="126" y="1560" type="line" startp="1" name="z52l"/>
      <point added="1" x="126" y="1560" control_out="1" name="z53l"/> 
      <point added="2" x="-27" y="1560" control_in="1" name="z54l"/> 
      <point x="-27" y="1560" type="line" name="z55l"/>
      <point added="1" x="-27" y="1560" control_out="1" name="z56l"/> 
      <point added="2" x="-27" y="1360" control_in="1" name="z57l"/> 
      <point x="-27" y="1360" type="line" name="z58l"/>
      <point added="1" x="-27" y="1360" control_out="1" name="z59l"/> 
      <point added="2" x="126" y="1330" control_in="1" name="z60l"/> 
      <point x="126" y="1330" type="line" name="z61l"/>
      <point added="1" x="126" y="1330" control_out="1" name="z62l"/> 
      <point added="2" x="126" y="1560" control_in="1" name="z63l"/> 
    </contour>
  </outline>
</glyph>
<glyph name="c" format="1">
  <advance width="1071"/>
  <unicode hex="0063"/>
  <outline>
    <contour>
      <point x="570" y="239" type="curve" smooth="yes" startp="1" name="z1l"/>
      <point x="419" y="239" control_out="1" name="z2l"/>
      <point x="382" y="369" control_in="1" name="z3l"/>
      <point x="382" y="529" type="curve" smooth="yes" name="z4l"/>
      <point added="1" x="382" y="529" control_out="1" name="z5l"/> 
      <point added="2" x="382" y="552" control_in="1" name="z6l"/> 
      <point x="382" y="552" type="line" smooth="yes" name="z7l"/>
      <point x="382" y="708" control_out="1" name="z8l"/>
      <point x="424" y="842" control_in="1" name="z9l"/>
      <point x="588" y="842" type="curve" smooth="yes" name="z10l"/>
      <point x="635" y="842" control_out="1" name="z11l"/>
      <point x="667" y="827" control_in="1" name="z12l"/>
      <point x="687" y="814" type="curve" name="z13l"/>
      <point added="1" x="687" y="814" control_out="1" name="z14l"/> 
      <point added="2" x="737" y="644" control_in="1" name="z15l"/> 
      <point x="737" y="644" type="line" name="z16l"/>
      <point added="1" x="737" y="644" control_out="1" name="z17l"/> 
      <point added="2" x="999" y="644" control_in="1" name="z18l"/> 
      <point x="999" y="644" type="line" name="z19l"/>
      <point added="1" x="999" y="644" control_out="1" name="z20l"/> 
      <point added="2" x="998" y="959" control_in="1" name="z21l"/> 
      <point x="998" y="959" type="line" name="z22l"/>
      <point x="907" y="1052" control_out="1" name="z23l"/>
      <point x="766" y="1102" control_in="1" name="z24l"/>
      <point x="588" y="1102" type="curve" smooth="yes" name="z25l"/>
      <point x="240" y="1102" control_out="1" name="z26l"/>
      <point x="60" y="865" control_in="1" name="z27l"/>
      <point x="60" y="552" type="curve" smooth="yes" name="z28l"/>
      <point added="1" x="60" y="552" control_out="1" name="z29l"/> 
      <point added="2" x="60" y="529" control_in="1" name="z30l"/> 
      <point x="60" y="529" type="line" smooth="yes" name="z31l"/>
      <point x="60" y="216" control_out="1" name="z32l"/>
      <point x="233" y="-21" control_in="1" name="z33l"/>
      <point x="570" y="-21" type="curve" smooth="yes" name="z34l"/>
      <point x="827" y="-21" control_out="1" name="z35l"/>
      <point x="1019" y="141" control_in="1" name="z36l"/>
      <point x="1019" y="385" type="curve" name="z37l"/>
      <point added="1" x="1019" y="385" control_out="1" name="z38l"/> 
      <point added="2" x="717" y="385" control_in="1" name="z39l"/> 
      <point x="717" y="385" type="line" name="z40l"/>
      <point x="717" y="293" control_out="1" name="z41l"/>
      <point x="668" y="239" control_in="1" name="z42l"/>
    </contour>
  </outline>
</glyph>
<glyph name="d" format="1">
  <advance width="1207"/>
  <unicode hex="0064"/>
  <outline>
    <contour>
      <point x="731" y="248" type="line"/>
      <point x="774" y="0" type="line"/>
      <point x="1054" y="0" type="line"/>
      <point x="1054" y="1560" type="line"/>
      <point x="731" y="1560" type="line"/>
    </contour>
    <contour>
      <point x="60" y="518" type="line" smooth="yes"/>
      <point x="60" y="203"/>
      <point x="208" y="-21"/>
      <point x="480" y="-21" type="curve" smooth="yes"/>
      <point x="719" y="-21"/>
      <point x="833" y="217"/>
      <point x="872" y="510" type="curve"/>
      <point x="872" y="535" type="line"/>
      <point x="833" y="848"/>
      <point x="719" y="1102"/>
      <point x="482" y="1102" type="curve" smooth="yes"/>
      <point x="208" y="1102"/>
      <point x="60" y="868"/>
      <point x="60" y="539" type="curve" smooth="yes"/>
    </contour>
    <contour>
      <point x="382" y="539" type="line" smooth="yes"/>
      <point x="382" y="707"/>
      <point x="430" y="842"/>
      <point x="564" y="842" type="curve" smooth="yes"/>
      <point x="698" y="842"/>
      <point x="772" y="738"/>
      <point x="772" y="562" type="curve" smooth="yes"/>
      <point x="772" y="483" type="line" smooth="yes"/>
      <point x="772" y="329"/>
      <point x="697" y="239"/>
      <point x="562" y="239" type="curve" smooth="yes"/>
      <point x="426" y="239"/>
      <point x="382" y="356"/>
      <point x="382" y="518" type="curve" smooth="yes"/>
    </contour>
    <contour>
      <point x="731" y="1560" type="line"/>
      <point x="578" y="1560" type="line"/>
      <point x="578" y="1360" type="line"/>
      <point x="731" y="1330" type="line"/>
    </contour>
    <contour>
      <point x="1054" y="0" type="line"/>
      <point x="1187" y="0" type="line"/>
      <point x="1187" y="200" type="line"/>
      <point x="1054" y="230" type="line"/>
    </contour>
  </outline>
</glyph>
<glyph name="e" format="1">
  <advance width="1088"/>
  <unicode hex="0065"/>
  <outline>
    <contour>
      <point x="581" y="-21" type="curve" smooth="yes" startp="1" name="z1l"/>
      <point x="766" y="-21" control_out="1" name="z2l"/>
      <point x="918" y="37" control_in="1" name="z3l"/>
      <point x="1001" y="100" type="curve" name="z4l"/>
      <point added="1" x="1001" y="100" control_out="1" name="z5l"/> 
      <point added="2" x="921" y="306" control_in="1" name="z6l"/> 
      <point x="921" y="306" type="line" name="z7l"/>
      <point x="833" y="268" control_out="1" name="z8l"/>
      <point x="765" y="239" control_in="1" name="z9l"/>
      <point x="622" y="239" type="curve" smooth="yes" name="z10l"/>
      <point x="458" y="239" control_out="1" name="z11l"/>
      <point x="382" y="365" control_in="1" name="z12l"/>
      <point x="382" y="505" type="curve" smooth="yes" name="z13l"/>
      <point added="1" x="382" y="505" control_out="1" name="z14l"/> 
      <point added="2" x="382" y="543" control_in="1" name="z15l"/> 
      <point x="382" y="543" type="line" smooth="yes" name="z16l"/>
      <point x="382" y="704" control_out="1" name="z17l"/>
      <point x="422" y="842" control_in="1" name="z18l"/>
      <point x="556" y="842" type="curve" smooth="yes" name="z19l"/>
      <point x="663" y="842" control_out="1" name="z20l"/>
      <point x="708" y="779" control_in="1" name="z21l"/>
      <point x="708" y="672" type="curve" smooth="yes" name="z22l"/>
      <point added="1" x="708" y="672" control_out="1" name="z23l"/> 
      <point added="2" x="708" y="646" control_in="1" name="z24l"/> 
      <point x="708" y="646" type="line" name="z25l"/>
      <point added="1" x="708" y="646" control_out="1" name="z26l"/> 
      <point added="2" x="187" y="646" control_in="1" name="z27l"/> 
      <point x="187" y="646" type="line" name="z28l"/>
      <point added="1" x="187" y="646" control_out="1" name="z29l"/> 
      <point added="2" x="187" y="435" control_in="1" name="z30l"/> 
      <point x="187" y="435" type="line" name="z31l"/>
      <point added="1" x="187" y="435" control_out="1" name="z32l"/> 
      <point added="2" x="1023" y="435" control_in="1" name="z33l"/> 
      <point x="1023" y="435" type="line" name="z34l"/>
      <point added="1" x="1023" y="435" control_out="1" name="z35l"/> 
      <point added="2" x="1023" y="612" control_in="1" name="z36l"/> 
      <point x="1023" y="612" type="line" smooth="yes" name="z37l"/>
      <point x="1023" y="913" control_out="1" name="z38l"/>
      <point x="852" y="1102" control_in="1" name="z39l"/>
      <point x="556" y="1102" type="curve" smooth="yes" name="z40l"/>
      <point x="234" y="1104" control_out="1" name="z41l"/>
      <point x="60" y="859" control_in="1" name="z42l"/>
      <point x="60" y="543" type="curve" smooth="yes" name="z43l"/>
      <point added="1" x="60" y="543" control_out="1" name="z44l"/> 
      <point added="2" x="60" y="505" control_in="1" name="z45l"/> 
      <point x="60" y="505" type="line" smooth="yes" name="z46l"/>
      <point x="60" y="212" control_out="1" name="z47l"/>
      <point x="258" y="-21" control_in="1" name="z48l"/>
    </contour>
  </outline>
</glyph>
<glyph name="f" format="1">
  <advance width="773"/>
  <unicode hex="0066"/>
  <outline>
    <contour>
      <point x="537" y="0" type="line" startp="1" name="z1l"/>
      <point added="1" x="537" y="0" control_out="1" name="z2l"/> 
      <point added="2" x="537" y="1194" control_in="1" name="z3l"/> 
      <point x="537" y="1194" type="line" smooth="yes" name="z4l"/>
      <point x="537" y="1276" control_out="1" name="z5l"/>
      <point x="586" y="1321" control_in="1" name="z6l"/>
      <point x="673" y="1321" type="curve" smooth="yes" name="z7l"/>
      <point x="717" y="1321" control_out="1" name="z8l"/>
      <point x="743" y="1317" control_in="1" name="z9l"/>
      <point x="773" y="1311" type="curve" name="z10l"/>
      <point added="1" x="773" y="1311" control_out="1" name="z11l"/> 
      <point added="2" x="798" y="1560" control_in="1" name="z12l"/> 
      <point x="798" y="1560" type="line" name="z13l"/>
      <point x="742" y="1572" control_out="1" name="z14l"/>
      <point x="689" y="1581" control_in="1" name="z15l"/>
      <point x="633" y="1581" type="curve" smooth="yes" name="z16l"/>
      <point x="369" y="1581" control_out="1" name="z17l"/>
      <point x="214" y="1445" control_in="1" name="z18l"/>
      <point x="214" y="1194" type="curve" smooth="yes" name="z19l"/>
      <point added="1" x="214" y="1194" control_out="1" name="z20l"/> 
      <point added="2" x="214" y="0" control_in="1" name="z21l"/> 
      <point x="214" y="0" type="line" name="z22l"/>
      <point added="1" x="214" y="0" control_out="1" name="z23l"/> 
      <point added="2" x="537" y="0" control_in="1" name="z24l"/> 
    </contour>
    <contour>
      <point x="749" y="1082" type="line" startp="1" name="z25l"/>
      <point added="1" x="749" y="1082" control_out="1" name="z26l"/> 
      <point added="2" x="56" y="1082" control_in="1" name="z27l"/> 
      <point x="56" y="1082" type="line" name="z28l"/>
      <point added="1" x="56" y="1082" control_out="1" name="z29l"/> 
      <point added="2" x="56" y="848" control_in="1" name="z30l"/> 
      <point x="56" y="848" type="line" name="z31l"/>
      <point added="1" x="56" y="848" control_out="1" name="z32l"/> 
      <point added="2" x="749" y="848" control_in="1" name="z33l"/> 
      <point x="749" y="848" type="line" name="z34l"/>
      <point added="1" x="749" y="848" control_out="1" name="z35l"/> 
      <point added="2" x="749" y="1082" control_in="1" name="z36l"/> 
    </contour>
    <contour>
      <point x="214" y="0" type="line" startp="1" name="z37l"/>
      <point added="1" x="214" y="0" control_out="1" name="z38l"/> 
      <point added="2" x="214" y="230" control_in="1" name="z39l"/> 
      <point x="214" y="230" type="line" name="z40l"/>
      <point added="1" x="214" y="230" control_out="1" name="z41l"/> 
      <point added="2" x="81" y="200" control_in="1" name="z42l"/> 
      <point x="81" y="200" type="line" name="z43l"/>
      <point added="1" x="81" y="200" control_out="1" name="z44l"/> 
      <point added="2" x="81" y="0" control_in="1" name="z45l"/> 
      <point x="81" y="0" type="line" name="z46l"/>
      <point added="1" x="81" y="0" control_out="1" name="z47l"/> 
      <point added="2" x="214" y="0" control_in="1" name="z48l"/> 
    </contour>
    <contour>
      <point x="537" y="0" type="line" startp="1" name="z49l"/>
      <point added="1" x="537" y="0" control_out="1" name="z50l"/> 
      <point added="2" x="670" y="0" control_in="1" name="z51l"/> 
      <point x="670" y="0" type="line" name="z52l"/>
      <point added="1" x="670" y="0" control_out="1" name="z53l"/> 
      <point added="2" x="670" y="200" control_in="1" name="z54l"/> 
      <point x="670" y="200" type="line" name="z55l"/>
      <point added="1" x="670" y="200" control_out="1" name="z56l"/> 
      <point added="2" x="537" y="230" control_in="1" name="z57l"/> 
      <point x="537" y="230" type="line" name="z58l"/>
      <point added="1" x="537" y="230" control_out="1" name="z59l"/> 
      <point added="2" x="537" y="0" control_in="1" name="z60l"/> 
    </contour>
  </outline>
</glyph>
<glyph name="g" format="1">
  <advance width="1174"/>
  <unicode hex="0067"/>
  <outline>
    <contour>
      <point x="791" y="1082" type="line" startp="1" name="z1l"/>
      <point added="1" x="791" y="1082" control_out="1" name="z2l"/> 
      <point added="2" x="750" y="826" control_in="1" name="z3l"/> 
      <point x="750" y="826" type="line" name="z4l"/>
      <point added="1" x="750" y="826" control_out="1" name="z5l"/> 
      <point added="2" x="750" y="44" control_in="1" name="z6l"/> 
      <point x="750" y="44" type="line" smooth="yes" name="z7l"/>
      <point x="750" y="-95" control_out="1" name="z8l"/>
      <point x="685" y="-185" control_in="1" name="z9l"/>
      <point x="550" y="-185" type="curve" smooth="yes" name="z10l"/>
      <point x="434" y="-185" control_out="1" name="z11l"/>
      <point x="348" y="-159" control_in="1" name="z12l"/>
      <point x="258" y="-122" type="curve" name="z13l"/>
      <point added="1" x="258" y="-122" control_out="1" name="z14l"/> 
      <point added="2" x="203" y="-352" control_in="1" name="z15l"/> 
      <point x="203" y="-352" type="line" name="z16l"/>
      <point x="311" y="-404" control_out="1" name="z17l"/>
      <point x="440" y="-437" control_in="1" name="z18l"/>
      <point x="552" y="-437" type="curve" smooth="yes" name="z19l"/>
      <point x="875" y="-437" control_out="1" name="z20l"/>
      <point x="1073" y="-247" control_in="1" name="z21l"/>
      <point x="1073" y="42" type="curve" smooth="yes" name="z22l"/>
      <point added="1" x="1073" y="42" control_out="1" name="z23l"/> 
      <point added="2" x="1073" y="1082" control_in="1" name="z24l"/> 
      <point x="1073" y="1082" type="line" name="z25l"/>
      <point added="1" x="1073" y="1082" control_out="1" name="z26l"/> 
      <point added="2" x="791" y="1082" control_in="1" name="z27l"/> 
    </contour>
    <contour>
      <point x="79" y="518" type="line" smooth="yes" startp="1" name="z28l"/>
      <point x="79" y="203" control_out="1" name="z29l"/>
      <point x="227" y="-21" control_in="1" name="z30l"/>
      <point x="499" y="-21" type="curve" smooth="yes" name="z31l"/>
      <point x="749" y="-21" control_out="1" name="z32l"/>
      <point x="850" y="217" control_in="1" name="z33l"/>
      <point x="891" y="510" type="curve" name="z34l"/>
      <point added="1" x="891" y="510" control_out="1" name="z35l"/> 
      <point added="2" x="891" y="535" control_in="1" name="z36l"/> 
      <point x="891" y="535" type="line" name="z37l"/>
      <point x="850" y="848" control_out="1" name="z38l"/>
      <point x="749" y="1102" control_in="1" name="z39l"/>
      <point x="501" y="1102" type="curve" smooth="yes" name="z40l"/>
      <point x="227" y="1102" control_out="1" name="z41l"/>
      <point x="79" y="868" control_in="1" name="z42l"/>
      <point x="79" y="539" type="curve" smooth="yes" name="z43l"/>
      <point added="1" x="79" y="539" control_out="1" name="z44l"/> 
      <point added="2" x="79" y="518" control_in="1" name="z45l"/> 
    </contour>
    <contour>
      <point x="401" y="539" type="line" smooth="yes" startp="1" name="z46l"/>
      <point x="401" y="707" control_out="1" name="z47l"/>
      <point x="449" y="842" control_in="1" name="z48l"/>
      <point x="583" y="842" type="curve" smooth="yes" name="z49l"/>
      <point x="730" y="842" control_out="1" name="z50l"/>
      <point x="791" y="738" control_in="1" name="z51l"/>
      <point x="791" y="562" type="curve" smooth="yes" name="z52l"/>
      <point added="1" x="791" y="562" control_out="1" name="z53l"/> 
      <point added="2" x="791" y="483" control_in="1" name="z54l"/> 
      <point x="791" y="483" type="line" smooth="yes" name="z55l"/>
      <point x="791" y="329" control_out="1" name="z56l"/>
      <point x="730" y="239" control_in="1" name="z57l"/>
      <point x="581" y="239" type="curve" smooth="yes" name="z58l"/>
      <point x="445" y="239" control_out="1" name="z59l"/>
      <point x="401" y="356" control_in="1" name="z60l"/>
      <point x="401" y="518" type="curve" smooth="yes" name="z61l"/>
      <point added="1" x="401" y="518" control_out="1" name="z62l"/> 
      <point added="2" x="401" y="539" control_in="1" name="z63l"/> 
    </contour>
  </outline>
</glyph>
